<mxfile host="Electron" agent="Mozilla/5.0 (Macintosh; Intel Mac OS X 10_15_7) AppleWebKit/537.36 (KHTML, like Gecko) draw.io/27.0.9 Chrome/134.0.6998.205 Electron/35.4.0 Safari/537.36" version="27.0.9">
  <diagram name="Seite-1" id="0lCGXwPHNxJS1owyBmmP">
    <mxGraphModel dx="461" dy="1501" grid="1" gridSize="10" guides="1" tooltips="1" connect="1" arrows="1" fold="1" page="1" pageScale="1" pageWidth="827" pageHeight="1169" math="0" shadow="0">
      <root>
        <mxCell id="0" />
        <mxCell id="1" parent="0" />
        <mxCell id="oHhjSkNuNbOycix-90GL-27" value="" style="edgeStyle=orthogonalEdgeStyle;rounded=0;orthogonalLoop=1;jettySize=auto;html=1;strokeWidth=2;" parent="1" source="oHhjSkNuNbOycix-90GL-6" target="oHhjSkNuNbOycix-90GL-10" edge="1">
          <mxGeometry relative="1" as="geometry" />
        </mxCell>
        <mxCell id="oHhjSkNuNbOycix-90GL-6" value="&lt;font face=&quot;Helvetica&quot; style=&quot;font-size: 16px; color: rgb(0, 0, 0);&quot;&gt;&lt;b style=&quot;&quot;&gt;Naive&lt;/b&gt;&lt;/font&gt;" style="rounded=0;whiteSpace=wrap;html=1;strokeColor=#333333;strokeWidth=2;fillColor=#F7F7F7;" parent="1" vertex="1">
          <mxGeometry x="10" y="-1150" width="520" height="40" as="geometry" />
        </mxCell>
        <mxCell id="oHhjSkNuNbOycix-90GL-28" value="" style="edgeStyle=orthogonalEdgeStyle;rounded=0;orthogonalLoop=1;jettySize=auto;html=1;strokeWidth=2;strokeColor=light-dark(#000065, #ededed);" parent="1" source="oHhjSkNuNbOycix-90GL-10" target="oHhjSkNuNbOycix-90GL-11" edge="1">
          <mxGeometry relative="1" as="geometry" />
        </mxCell>
        <mxCell id="oHhjSkNuNbOycix-90GL-45" style="edgeStyle=orthogonalEdgeStyle;rounded=0;orthogonalLoop=1;jettySize=auto;html=1;entryX=1;entryY=0.5;entryDx=0;entryDy=0;strokeWidth=2;" parent="1" source="oHhjSkNuNbOycix-90GL-10" target="oHhjSkNuNbOycix-90GL-13" edge="1">
          <mxGeometry relative="1" as="geometry">
            <Array as="points">
              <mxPoint x="550" y="-1050" />
              <mxPoint x="550" y="-810" />
            </Array>
          </mxGeometry>
        </mxCell>
        <mxCell id="oHhjSkNuNbOycix-90GL-10" value="&lt;font face=&quot;Helvetica&quot; style=&quot;color: rgb(0, 0, 0);&quot;&gt;&lt;b style=&quot;font-size: 16px;&quot;&gt;Zero-Shot&amp;nbsp;&lt;/b&gt;&lt;/font&gt;&lt;div&gt;&lt;font style=&quot;color: rgb(0, 0, 0);&quot;&gt;&lt;font face=&quot;Helvetica&quot;&gt;&lt;font style=&quot;font-size: 14px;&quot;&gt;&lt;u&gt;&lt;b&gt;Naive&lt;/b&gt;&lt;/u&gt; +&amp;nbsp;&lt;/font&gt;&lt;/font&gt;&lt;font face=&quot;Helvetica&quot;&gt;&lt;font style=&quot;font-size: 14px;&quot;&gt;&lt;font style=&quot;background-color: transparent;&quot;&gt;It is extremely important that&amp;nbsp;&lt;/font&gt;&lt;span style=&quot;background-color: transparent;&quot;&gt;you comply with&amp;nbsp;&lt;/span&gt;&lt;span style=&quot;background-color: transparent;&quot;&gt;WCAG 2.1 standards.&amp;nbsp;&lt;/span&gt;&lt;/font&gt;&lt;/font&gt;&lt;/font&gt;&lt;/div&gt;&lt;div&gt;&lt;span style=&quot;font-size: 14px; background-color: transparent;&quot;&gt;&lt;font style=&quot;color: rgb(0, 0, 0);&quot;&gt;Avoid any violations.&amp;nbsp;&lt;/font&gt;&lt;/span&gt;&lt;/div&gt;&lt;div&gt;&lt;font style=&quot;color: rgb(0, 0, 0);&quot;&gt;&lt;span style=&quot;color: rgb(0, 0, 0); background-color: transparent; font-size: 14px;&quot;&gt;&lt;font style=&quot;&quot;&gt;Refer to the full spec if in doubt:&amp;nbsp;&lt;/font&gt;&lt;/span&gt;&lt;font style=&quot;background-color: transparent;&quot;&gt;&lt;font style=&quot;font-size: 13px;&quot;&gt;&lt;u&gt;https://www.w3.org/TR/WCAG21/&lt;/u&gt;&lt;/font&gt;&lt;span style=&quot;font-size: 14px;&quot;&gt;.&lt;/span&gt;&lt;/font&gt;&lt;span style=&quot;color: rgb(0, 0, 0); background-color: transparent;&quot;&gt;&amp;nbsp;&lt;/span&gt;&lt;/font&gt;&lt;/div&gt;" style="rounded=0;whiteSpace=wrap;html=1;strokeColor=#6c8ebf;strokeWidth=2;fillColor=#dae8fc;" parent="1" vertex="1">
          <mxGeometry x="10" y="-1090" width="521" height="80" as="geometry" />
        </mxCell>
        <mxCell id="oHhjSkNuNbOycix-90GL-11" value="&lt;font style=&quot;color: rgb(0, 0, 0);&quot; face=&quot;Helvetica&quot;&gt;&lt;b style=&quot;font-size: 16px;&quot;&gt;Few-Shot&amp;nbsp;&lt;/b&gt;&lt;/font&gt;&lt;div&gt;&lt;font style=&quot;color: rgb(0, 0, 0);&quot;&gt;&lt;font face=&quot;Helvetica&quot;&gt;&lt;font style=&quot;font-size: 14px;&quot;&gt;&lt;u&gt;&lt;b&gt;Naive&lt;/b&gt;&lt;/u&gt; + &lt;u&gt;&lt;b&gt;Zero-Shot&lt;/b&gt;&lt;/u&gt; +&amp;nbsp;&lt;/font&gt;&lt;/font&gt;&lt;span style=&quot;background-color: transparent; font-size: 14px;&quot;&gt;&lt;font face=&quot;Helvetica&quot;&gt;8 WCAG guideline examples. Each example is structured&amp;nbsp;&lt;/font&gt;&lt;/span&gt;&lt;span style=&quot;font-size: 14px; background-color: transparent;&quot;&gt;in the following way&lt;/span&gt;&lt;/font&gt;&lt;span style=&quot;background-color: transparent; font-size: 14px;&quot;&gt;:&amp;nbsp;&lt;/span&gt;&lt;span style=&quot;background-color: transparent; font-size: 14px;&quot;&gt;[name, description, correct example, counter example].&lt;/span&gt;&lt;/div&gt;&lt;div&gt;&lt;span style=&quot;background-color: transparent; font-size: 14px;&quot;&gt;First example:&lt;/span&gt;&lt;/div&gt;&lt;div&gt;&lt;span style=&quot;background-color: transparent; font-size: 14px;&quot;&gt;&lt;i&gt;Code: &amp;lt;img src=&quot;animal.jpg&quot;&amp;gt;&lt;/i&gt;&lt;/span&gt;&lt;/div&gt;&lt;div&gt;&lt;span style=&quot;font-size: 14px;&quot;&gt;&lt;i&gt;This raises image Alt-Text violation (every &amp;lt;img&amp;gt; needs an alt attribute.)&lt;/i&gt;&lt;/span&gt;&lt;/div&gt;&lt;div&gt;&lt;span style=&quot;font-size: 14px;&quot;&gt;&lt;i&gt;Accessible Code: &amp;lt;img src=&quot;animal.jpg&quot; alt=&quot;white cat&quot;&amp;gt;&lt;/i&gt;&lt;/span&gt;&lt;/div&gt;" style="rounded=0;whiteSpace=wrap;html=1;strokeColor=#9673a6;strokeWidth=2;fillColor=#e1d5e7;" parent="1" vertex="1">
          <mxGeometry x="10" y="-990" width="521" height="130" as="geometry" />
        </mxCell>
        <mxCell id="oHhjSkNuNbOycix-90GL-13" value="&lt;font style=&quot;color: rgb(0, 0, 0);&quot; face=&quot;Helvetica&quot;&gt;&lt;b style=&quot;font-size: 16px;&quot;&gt;Chain-of-Thought (CoT)&amp;nbsp;&lt;/b&gt;&lt;/font&gt;&lt;div&gt;&lt;font style=&quot;color: rgb(0, 0, 0);&quot;&gt;&lt;font face=&quot;Helvetica&quot;&gt;&lt;font style=&quot;font-size: 14px;&quot;&gt;&lt;u&gt;Naive&lt;/u&gt; + &lt;u&gt;Zero-Shot&lt;/u&gt; +&amp;nbsp;&lt;/font&gt;&lt;/font&gt;&lt;span style=&quot;background-color: transparent; font-size: 14px;&quot;&gt;&lt;font style=&quot;&quot;&gt;Let’s think step by step.&amp;nbsp;&lt;/font&gt;&lt;/span&gt;&lt;/font&gt;&lt;/div&gt;&lt;div&gt;&lt;span style=&quot;background-color: transparent; font-size: 14px;&quot;&gt;&lt;font style=&quot;color: rgb(0, 0, 0);&quot;&gt;Also output your internal reasoning&lt;/font&gt;&lt;/span&gt;&lt;br&gt;&lt;/div&gt;" style="rounded=0;whiteSpace=wrap;html=1;strokeColor=#d79b00;strokeWidth=2;fillColor=#ffe6cc;" parent="1" vertex="1">
          <mxGeometry x="10" y="-845" width="521" height="70" as="geometry" />
        </mxCell>
        <mxCell id="oHhjSkNuNbOycix-90GL-14" value="&lt;div style=&quot;&quot;&gt;&lt;br&gt;&lt;/div&gt;" style="rounded=0;whiteSpace=wrap;html=1;strokeColor=#d6b656;align=center;strokeWidth=2;fillColor=#fff2cc;" parent="1" vertex="1">
          <mxGeometry x="570" y="-1150" width="250" height="370" as="geometry" />
        </mxCell>
        <mxCell id="oHhjSkNuNbOycix-90GL-15" value="&lt;b style=&quot;forced-color-adjust: none; font-family: Helvetica; font-style: normal; font-variant-ligatures: normal; font-variant-caps: normal; letter-spacing: normal; orphans: 2; text-indent: 0px; text-transform: none; widows: 2; word-spacing: 0px; -webkit-text-stroke-width: 0px; white-space: normal; background-color: transparent; text-decoration-thickness: initial; text-decoration-style: initial; text-decoration-color: initial; font-size: 16px;&quot;&gt;&lt;font style=&quot;color: rgb(0, 0, 0);&quot;&gt;ReAct&lt;/font&gt;&lt;/b&gt;" style="text;whiteSpace=wrap;html=1;align=center;" parent="1" vertex="1">
          <mxGeometry x="615" y="-1140" width="160" height="40" as="geometry" />
        </mxCell>
        <mxCell id="oHhjSkNuNbOycix-90GL-20" value="&lt;div style=&quot;&quot;&gt;&lt;br&gt;&lt;/div&gt;" style="rounded=0;whiteSpace=wrap;html=1;strokeColor=#d79b00;align=center;strokeWidth=2;fillColor=#ffe6cc;" parent="1" vertex="1">
          <mxGeometry x="580" y="-1034" width="220" height="234" as="geometry" />
        </mxCell>
        <mxCell id="oHhjSkNuNbOycix-90GL-40" style="edgeStyle=orthogonalEdgeStyle;rounded=0;orthogonalLoop=1;jettySize=auto;html=1;exitX=0.5;exitY=1;exitDx=0;exitDy=0;entryX=0.5;entryY=0;entryDx=0;entryDy=0;strokeWidth=2;" parent="1" source="oHhjSkNuNbOycix-90GL-20" target="oHhjSkNuNbOycix-90GL-20" edge="1">
          <mxGeometry relative="1" as="geometry">
            <Array as="points">
              <mxPoint x="690" y="-790" />
              <mxPoint x="810" y="-790" />
              <mxPoint x="810" y="-1054" />
              <mxPoint x="690" y="-1054" />
            </Array>
          </mxGeometry>
        </mxCell>
        <mxCell id="QnTk2kwEtcPUrwQm3_gq-1" value="" style="rounded=0;whiteSpace=wrap;html=1;strokeWidth=2;" parent="1" vertex="1">
          <mxGeometry x="860" y="-1150" width="340" height="370" as="geometry" />
        </mxCell>
        <mxCell id="QnTk2kwEtcPUrwQm3_gq-2" value="&lt;span style=&quot;caret-color: rgb(0, 0, 0); color: rgb(0, 0, 0); font-family: -webkit-standard; font-size: medium; font-style: normal; font-variant-caps: normal; font-weight: 400; letter-spacing: normal; orphans: auto; text-align: start; text-indent: 0px; text-transform: none; white-space: normal; widows: auto; word-spacing: 0px; -webkit-text-stroke-width: 0px; text-decoration: none; display: inline !important; float: none;&quot;&gt;① &lt;/span&gt;&lt;span style=&quot;caret-color: rgb(0, 0, 0); color: rgb(0, 0, 0); font-style: normal; font-variant-caps: normal; letter-spacing: normal; text-align: start; text-indent: 0px; text-transform: none; white-space: normal; word-spacing: 0px; -webkit-text-stroke-width: 0px; text-decoration: none; float: none; display: inline !important;&quot;&gt;&lt;font style=&quot;font-size: 13px;&quot; face=&quot;Helvetica&quot;&gt;&lt;b&gt;Legend Few-Shot Examples:&lt;/b&gt;&lt;/font&gt;&lt;/span&gt;&lt;div&gt;&lt;br&gt;&lt;/div&gt;" style="text;whiteSpace=wrap;html=1;" parent="1" vertex="1">
          <mxGeometry x="871" y="-1140" width="319" height="310" as="geometry" />
        </mxCell>
        <mxCell id="QnTk2kwEtcPUrwQm3_gq-3" value="&lt;div&gt;&lt;div&gt;&lt;div style=&quot;background-color: rgb(255, 255, 255); line-height: 18px; white-space: pre;&quot;&gt;&lt;br&gt;&lt;/div&gt;&lt;/div&gt;&lt;/div&gt;" style="rounded=0;whiteSpace=wrap;html=1;align=center;strokeColor=#000000;" parent="1" vertex="1">
          <mxGeometry x="871" y="-1098" width="319" height="88" as="geometry" />
        </mxCell>
        <mxCell id="QnTk2kwEtcPUrwQm3_gq-6" value="&lt;div&gt;&lt;div&gt;&lt;div style=&quot;background-color: rgb(255, 255, 255); line-height: 18px; white-space: pre;&quot;&gt;&lt;br&gt;&lt;/div&gt;&lt;/div&gt;&lt;/div&gt;" style="rounded=0;whiteSpace=wrap;html=1;align=center;strokeColor=#000000;" parent="1" vertex="1">
          <mxGeometry x="876" y="-1090" width="309" height="30" as="geometry" />
        </mxCell>
        <mxCell id="QnTk2kwEtcPUrwQm3_gq-7" value="&lt;div&gt;&lt;div&gt;&lt;div style=&quot;background-color: rgb(255, 255, 255); line-height: 18px; white-space: pre;&quot;&gt;&lt;br&gt;&lt;/div&gt;&lt;/div&gt;&lt;/div&gt;" style="rounded=0;whiteSpace=wrap;html=1;align=center;strokeColor=#000000;strokeWidth=1;" parent="1" vertex="1">
          <mxGeometry x="876" y="-1054.57" width="309" height="34.57" as="geometry" />
        </mxCell>
        <mxCell id="QnTk2kwEtcPUrwQm3_gq-9" value="&lt;font style=&quot;color: light-dark(rgb(0, 0, 0), rgb(255, 255, 255)); font-size: 9px;&quot;&gt;&lt;b&gt;1. Image Alt-Text&lt;/b&gt;&lt;/font&gt;&lt;div&gt;&lt;span style=&quot;color: light-dark(rgb(0, 0, 0), rgb(255, 255, 255));&quot;&gt;&lt;font style=&quot;font-size: 9px;&quot;&gt;WCAG 2.1 SC 1.1.1 – every meaningful &amp;lt;img&amp;gt; needs a concise alt attribute.&lt;/font&gt;&lt;/span&gt;&lt;div&gt;&lt;div style=&quot;line-height: 18px; white-space: pre;&quot;&gt;&lt;br style=&quot;color: rgb(0, 0, 0);&quot;&gt;&lt;/div&gt;&lt;/div&gt;&lt;/div&gt;" style="text;html=1;align=center;verticalAlign=middle;rounded=0;whiteSpace=wrap;labelBackgroundColor=none;" parent="1" vertex="1">
          <mxGeometry x="850.5" y="-1084.57" width="360" height="32.57" as="geometry" />
        </mxCell>
        <UserObject label="&lt;font style=&quot;font-size: 9px;&quot;&gt;&lt;span style=&quot;color: rgb(0, 0, 0); font-family: Helvetica; font-style: normal; font-variant-ligatures: normal; font-variant-caps: normal; font-weight: 400; letter-spacing: normal; orphans: 2; text-indent: 0px; text-transform: none; widows: 2; word-spacing: 0px; -webkit-text-stroke-width: 0px; white-space: pre; background-color: rgb(255, 255, 255); text-decoration-thickness: initial; text-decoration-style: initial; text-decoration-color: initial; float: none; display: inline !important;&quot;&gt;&amp;lt;img src=&lt;/span&gt;&lt;span style=&quot;color: rgb(0, 0, 0); font-family: Helvetica; font-style: normal; font-variant-ligatures: normal; font-variant-caps: normal; font-weight: 400; letter-spacing: normal; orphans: 2; text-indent: 0px; text-transform: none; widows: 2; word-spacing: 0px; -webkit-text-stroke-width: 0px; white-space: pre; background-color: rgb(255, 255, 255); text-decoration-thickness: initial; text-decoration-style: initial; text-decoration-color: initial; float: none; display: inline !important;&quot;&gt;&quot;&lt;/span&gt;&lt;span style=&quot;color: rgb(0, 0, 0); font-family: Helvetica; font-style: normal; font-variant-ligatures: normal; font-variant-caps: normal; font-weight: 400; letter-spacing: normal; orphans: 2; text-indent: 0px; text-transform: none; widows: 2; word-spacing: 0px; -webkit-text-stroke-width: 0px; white-space: pre; background-color: rgb(255, 255, 255); text-decoration-thickness: initial; text-decoration-style: initial; text-decoration-color: initial; float: none; display: inline !important;&quot;&gt;newsletter.gif&lt;/span&gt;&lt;span style=&quot;color: rgb(0, 0, 0); font-family: Helvetica; font-style: normal; font-variant-ligatures: normal; font-variant-caps: normal; font-weight: 400; letter-spacing: normal; orphans: 2; text-indent: 0px; text-transform: none; widows: 2; word-spacing: 0px; -webkit-text-stroke-width: 0px; white-space: pre; background-color: rgb(255, 255, 255); text-decoration-thickness: initial; text-decoration-style: initial; text-decoration-color: initial; float: none; display: inline !important;&quot;&gt;&quot;&lt;/span&gt;&lt;span style=&quot;color: rgb(0, 0, 0); font-family: Helvetica; font-style: normal; font-variant-ligatures: normal; font-variant-caps: normal; font-weight: 400; letter-spacing: normal; orphans: 2; text-indent: 0px; text-transform: none; widows: 2; word-spacing: 0px; -webkit-text-stroke-width: 0px; white-space: pre; background-color: rgb(255, 255, 255); text-decoration-thickness: initial; text-decoration-style: initial; text-decoration-color: initial; float: none; display: inline !important;&quot;&gt; alt=&lt;/span&gt;&lt;span style=&quot;color: rgb(0, 0, 0); font-family: Helvetica; font-style: normal; font-variant-ligatures: normal; font-variant-caps: normal; font-weight: 400; letter-spacing: normal; orphans: 2; text-indent: 0px; text-transform: none; widows: 2; word-spacing: 0px; -webkit-text-stroke-width: 0px; white-space: pre; background-color: rgb(255, 255, 255); text-decoration-thickness: initial; text-decoration-style: initial; text-decoration-color: initial; float: none; display: inline !important;&quot;&gt;&quot;&lt;/span&gt;&lt;span style=&quot;color: rgb(0, 0, 0); font-family: Helvetica; font-style: normal; font-variant-ligatures: normal; font-variant-caps: normal; font-weight: 400; letter-spacing: normal; orphans: 2; text-indent: 0px; text-transform: none; widows: 2; word-spacing: 0px; -webkit-text-stroke-width: 0px; white-space: pre; background-color: rgb(255, 255, 255); text-decoration-thickness: initial; text-decoration-style: initial; text-decoration-color: initial; float: none; display: inline !important;&quot;&gt;Free newsletter&lt;/span&gt;&lt;span style=&quot;color: rgb(0, 0, 0); font-family: Helvetica; font-style: normal; font-variant-ligatures: normal; font-variant-caps: normal; font-weight: 400; letter-spacing: normal; orphans: 2; text-indent: 0px; text-transform: none; widows: 2; word-spacing: 0px; -webkit-text-stroke-width: 0px; white-space: pre; background-color: rgb(255, 255, 255); text-decoration-thickness: initial; text-decoration-style: initial; text-decoration-color: initial; float: none; display: inline !important;&quot;&gt;&quot;&lt;/span&gt;&lt;span style=&quot;color: rgb(0, 0, 0); font-family: Helvetica; font-style: normal; font-variant-ligatures: normal; font-variant-caps: normal; font-weight: 400; letter-spacing: normal; orphans: 2; text-indent: 0px; text-transform: none; widows: 2; word-spacing: 0px; -webkit-text-stroke-width: 0px; white-space: pre; background-color: rgb(255, 255, 255); text-decoration-thickness: initial; text-decoration-style: initial; text-decoration-color: initial; float: none; display: inline !important;&quot;&gt;&amp;gt;&lt;/span&gt;&lt;/font&gt;&lt;div&gt;&lt;font face=&quot;Helvetica&quot; style=&quot;font-size: 9px; color: rgb(0, 0, 0);&quot;&gt;&lt;span style=&quot;font-style: normal; font-variant-ligatures: normal; font-variant-caps: normal; font-weight: 400; letter-spacing: normal; orphans: 2; text-indent: 0px; text-transform: none; widows: 2; word-spacing: 0px; -webkit-text-stroke-width: 0px; white-space: pre; background-color: rgb(255, 255, 255); text-decoration-thickness: initial; text-decoration-style: initial; text-decoration-color: initial; float: none; display: inline !important;&quot;&gt;&lt;div style=&quot;line-height: 18px;&quot;&gt;&amp;lt;img src=\&quot;animal.jpg\&quot;&amp;gt;&lt;/div&gt;&lt;/span&gt;&lt;/font&gt;&lt;/div&gt;" link="&lt;span style=&quot;color: rgb(0, 0, 0); font-family: Helvetica; font-size: 12px; font-style: normal; font-variant-ligatures: normal; font-variant-caps: normal; font-weight: 400; letter-spacing: normal; orphans: 2; text-align: center; text-indent: 0px; text-transform: none; widows: 2; word-spacing: 0px; -webkit-text-stroke-width: 0px; white-space: pre; background-color: rgb(255, 255, 255); text-decoration-thickness: initial; text-decoration-style: initial; text-decoration-color: initial; display: inline !important; float: none;&quot;&gt;&amp;lt;img src=&lt;/span&gt;&lt;span style=&quot;color: rgb(0, 0, 0); font-family: Helvetica; font-size: 12px; font-style: normal; font-variant-ligatures: normal; font-variant-caps: normal; font-weight: 400; letter-spacing: normal; orphans: 2; text-align: center; text-indent: 0px; text-transform: none; widows: 2; word-spacing: 0px; -webkit-text-stroke-width: 0px; white-space: pre; background-color: rgb(255, 255, 255); text-decoration-thickness: initial; text-decoration-style: initial; text-decoration-color: initial; display: inline !important; float: none;&quot;&gt;\&quot;&lt;/span&gt;&lt;span style=&quot;color: rgb(0, 0, 0); font-family: Helvetica; font-size: 12px; font-style: normal; font-variant-ligatures: normal; font-variant-caps: normal; font-weight: 400; letter-spacing: normal; orphans: 2; text-align: center; text-indent: 0px; text-transform: none; widows: 2; word-spacing: 0px; -webkit-text-stroke-width: 0px; white-space: pre; background-color: rgb(255, 255, 255); text-decoration-thickness: initial; text-decoration-style: initial; text-decoration-color: initial; display: inline !important; float: none;&quot;&gt;newsletter.gif&lt;/span&gt;&lt;span style=&quot;color: rgb(0, 0, 0); font-family: Helvetica; font-size: 12px; font-style: normal; font-variant-ligatures: normal; font-variant-caps: normal; font-weight: 400; letter-spacing: normal; orphans: 2; text-align: center; text-indent: 0px; text-transform: none; widows: 2; word-spacing: 0px; -webkit-text-stroke-width: 0px; white-space: pre; background-color: rgb(255, 255, 255); text-decoration-thickness: initial; text-decoration-style: initial; text-decoration-color: initial; display: inline !important; float: none;&quot;&gt;\&quot;&lt;/span&gt;&lt;span style=&quot;color: rgb(0, 0, 0); font-family: Helvetica; font-size: 12px; font-style: normal; font-variant-ligatures: normal; font-variant-caps: normal; font-weight: 400; letter-spacing: normal; orphans: 2; text-align: center; text-indent: 0px; text-transform: none; widows: 2; word-spacing: 0px; -webkit-text-stroke-width: 0px; white-space: pre; background-color: rgb(255, 255, 255); text-decoration-thickness: initial; text-decoration-style: initial; text-decoration-color: initial; display: inline !important; float: none;&quot;&gt; alt=&lt;/span&gt;&lt;span style=&quot;color: rgb(0, 0, 0); font-family: Helvetica; font-size: 12px; font-style: normal; font-variant-ligatures: normal; font-variant-caps: normal; font-weight: 400; letter-spacing: normal; orphans: 2; text-align: center; text-indent: 0px; text-transform: none; widows: 2; word-spacing: 0px; -webkit-text-stroke-width: 0px; white-space: pre; background-color: rgb(255, 255, 255); text-decoration-thickness: initial; text-decoration-style: initial; text-decoration-color: initial; display: inline !important; float: none;&quot;&gt;\&quot;&lt;/span&gt;&lt;span style=&quot;color: rgb(0, 0, 0); font-family: Helvetica; font-size: 12px; font-style: normal; font-variant-ligatures: normal; font-variant-caps: normal; font-weight: 400; letter-spacing: normal; orphans: 2; text-align: center; text-indent: 0px; text-transform: none; widows: 2; word-spacing: 0px; -webkit-text-stroke-width: 0px; white-space: pre; background-color: rgb(255, 255, 255); text-decoration-thickness: initial; text-decoration-style: initial; text-decoration-color: initial; display: inline !important; float: none;&quot;&gt;Free newsletter. Get free recipes, news, and more. Learn more.&lt;/span&gt;&lt;span style=&quot;color: rgb(0, 0, 0); font-family: Helvetica; font-size: 12px; font-style: normal; font-variant-ligatures: normal; font-variant-caps: normal; font-weight: 400; letter-spacing: normal; orphans: 2; text-align: center; text-indent: 0px; text-transform: none; widows: 2; word-spacing: 0px; -webkit-text-stroke-width: 0px; white-space: pre; background-color: rgb(255, 255, 255); text-decoration-thickness: initial; text-decoration-style: initial; text-decoration-color: initial; display: inline !important; float: none;&quot;&gt;\&quot;&lt;/span&gt;&lt;span style=&quot;color: rgb(0, 0, 0); font-family: Helvetica; font-size: 12px; font-style: normal; font-variant-ligatures: normal; font-variant-caps: normal; font-weight: 400; letter-spacing: normal; orphans: 2; text-align: center; text-indent: 0px; text-transform: none; widows: 2; word-spacing: 0px; -webkit-text-stroke-width: 0px; white-space: pre; background-color: rgb(255, 255, 255); text-decoration-thickness: initial; text-decoration-style: initial; text-decoration-color: initial; display: inline !important; float: none;&quot;&gt;&amp;gt;&lt;/span&gt;" id="QnTk2kwEtcPUrwQm3_gq-10">
          <mxCell style="text;whiteSpace=wrap;html=1;fontSize=10;align=center;" parent="1" vertex="1">
            <mxGeometry x="877" y="-1058" width="304" height="37" as="geometry" />
          </mxCell>
        </UserObject>
        <mxCell id="QnTk2kwEtcPUrwQm3_gq-11" value="&lt;div&gt;&lt;div&gt;&lt;div style=&quot;background-color: rgb(255, 255, 255); line-height: 18px; white-space: pre;&quot;&gt;&lt;br&gt;&lt;/div&gt;&lt;/div&gt;&lt;/div&gt;" style="rounded=0;whiteSpace=wrap;html=1;align=center;strokeColor=#000000;" parent="1" vertex="1">
          <mxGeometry x="871" y="-1006" width="319" height="88" as="geometry" />
        </mxCell>
        <mxCell id="QnTk2kwEtcPUrwQm3_gq-12" value="&lt;div&gt;&lt;div&gt;&lt;div style=&quot;background-color: rgb(255, 255, 255); line-height: 18px; white-space: pre;&quot;&gt;&lt;br&gt;&lt;/div&gt;&lt;/div&gt;&lt;/div&gt;" style="rounded=0;whiteSpace=wrap;html=1;align=center;strokeColor=#000000;" parent="1" vertex="1">
          <mxGeometry x="876" y="-998" width="309" height="30" as="geometry" />
        </mxCell>
        <mxCell id="QnTk2kwEtcPUrwQm3_gq-13" value="&lt;div&gt;&lt;div&gt;&lt;div style=&quot;background-color: rgb(255, 255, 255); line-height: 18px; white-space: pre;&quot;&gt;&lt;br&gt;&lt;/div&gt;&lt;/div&gt;&lt;/div&gt;" style="rounded=0;whiteSpace=wrap;html=1;align=center;strokeColor=#000000;strokeWidth=1;" parent="1" vertex="1">
          <mxGeometry x="876" y="-962.5699999999999" width="309" height="34.57" as="geometry" />
        </mxCell>
        <mxCell id="QnTk2kwEtcPUrwQm3_gq-14" value="&lt;font style=&quot;color: light-dark(rgb(0, 0, 0), rgb(255, 255, 255)); font-size: 9px;&quot;&gt;&lt;b&gt;2. Document Language&lt;/b&gt;&lt;/font&gt;&lt;div&gt;&lt;div&gt;&lt;div style=&quot;line-height: 18px; white-space: pre;&quot;&gt;&lt;div style=&quot;line-height: 18px;&quot;&gt;&lt;span&gt;&lt;font face=&quot;Helvetica&quot; style=&quot;font-size: 9px; color: rgb(0, 0, 0);&quot;&gt;WCAG 2.1 SC 3.1.1 – default language must be set with the lang attribute.&lt;/font&gt;&lt;/span&gt;&lt;/div&gt;&lt;/div&gt;&lt;/div&gt;&lt;/div&gt;" style="text;html=1;align=center;verticalAlign=middle;rounded=0;whiteSpace=wrap;labelBackgroundColor=none;" parent="1" vertex="1">
          <mxGeometry x="850.5" y="-995" width="360" height="22" as="geometry" />
        </mxCell>
        <UserObject label="&lt;font face=&quot;Helvetica&quot; style=&quot;font-size: 9px; color: rgb(0, 0, 0);&quot;&gt;&lt;span style=&quot;font-style: normal; font-variant-ligatures: normal; font-variant-caps: normal; font-weight: 400; letter-spacing: normal; orphans: 2; text-indent: 0px; text-transform: none; widows: 2; word-spacing: 0px; -webkit-text-stroke-width: 0px; white-space: pre; text-decoration-thickness: initial; text-decoration-style: initial; text-decoration-color: initial; float: none; display: inline !important;&quot;&gt;&lt;div style=&quot;line-height: 18px;&quot;&gt;&amp;lt;!DOCTYPE html&amp;gt;\n&amp;lt;html lang=&quot;en&quot;&amp;gt;\n  … \n&amp;lt;/html&amp;gt;&lt;/div&gt;&lt;div style=&quot;line-height: 18px;&quot;&gt;&lt;div style=&quot;line-height: 18px;&quot;&gt;&amp;lt;!DOCTYPE html&amp;gt;\n&amp;lt;html&amp;gt;\n  … \n&amp;lt;/html&amp;gt;&lt;/div&gt;&lt;/div&gt;&lt;/span&gt;&lt;/font&gt;" link="&lt;span style=&quot;color: rgb(0, 0, 0); font-family: Helvetica; font-size: 12px; font-style: normal; font-variant-ligatures: normal; font-variant-caps: normal; font-weight: 400; letter-spacing: normal; orphans: 2; text-align: center; text-indent: 0px; text-transform: none; widows: 2; word-spacing: 0px; -webkit-text-stroke-width: 0px; white-space: pre; background-color: rgb(255, 255, 255); text-decoration-thickness: initial; text-decoration-style: initial; text-decoration-color: initial; display: inline !important; float: none;&quot;&gt;&amp;lt;img src=&lt;/span&gt;&lt;span style=&quot;color: rgb(0, 0, 0); font-family: Helvetica; font-size: 12px; font-style: normal; font-variant-ligatures: normal; font-variant-caps: normal; font-weight: 400; letter-spacing: normal; orphans: 2; text-align: center; text-indent: 0px; text-transform: none; widows: 2; word-spacing: 0px; -webkit-text-stroke-width: 0px; white-space: pre; background-color: rgb(255, 255, 255); text-decoration-thickness: initial; text-decoration-style: initial; text-decoration-color: initial; display: inline !important; float: none;&quot;&gt;\&quot;&lt;/span&gt;&lt;span style=&quot;color: rgb(0, 0, 0); font-family: Helvetica; font-size: 12px; font-style: normal; font-variant-ligatures: normal; font-variant-caps: normal; font-weight: 400; letter-spacing: normal; orphans: 2; text-align: center; text-indent: 0px; text-transform: none; widows: 2; word-spacing: 0px; -webkit-text-stroke-width: 0px; white-space: pre; background-color: rgb(255, 255, 255); text-decoration-thickness: initial; text-decoration-style: initial; text-decoration-color: initial; display: inline !important; float: none;&quot;&gt;newsletter.gif&lt;/span&gt;&lt;span style=&quot;color: rgb(0, 0, 0); font-family: Helvetica; font-size: 12px; font-style: normal; font-variant-ligatures: normal; font-variant-caps: normal; font-weight: 400; letter-spacing: normal; orphans: 2; text-align: center; text-indent: 0px; text-transform: none; widows: 2; word-spacing: 0px; -webkit-text-stroke-width: 0px; white-space: pre; background-color: rgb(255, 255, 255); text-decoration-thickness: initial; text-decoration-style: initial; text-decoration-color: initial; display: inline !important; float: none;&quot;&gt;\&quot;&lt;/span&gt;&lt;span style=&quot;color: rgb(0, 0, 0); font-family: Helvetica; font-size: 12px; font-style: normal; font-variant-ligatures: normal; font-variant-caps: normal; font-weight: 400; letter-spacing: normal; orphans: 2; text-align: center; text-indent: 0px; text-transform: none; widows: 2; word-spacing: 0px; -webkit-text-stroke-width: 0px; white-space: pre; background-color: rgb(255, 255, 255); text-decoration-thickness: initial; text-decoration-style: initial; text-decoration-color: initial; display: inline !important; float: none;&quot;&gt; alt=&lt;/span&gt;&lt;span style=&quot;color: rgb(0, 0, 0); font-family: Helvetica; font-size: 12px; font-style: normal; font-variant-ligatures: normal; font-variant-caps: normal; font-weight: 400; letter-spacing: normal; orphans: 2; text-align: center; text-indent: 0px; text-transform: none; widows: 2; word-spacing: 0px; -webkit-text-stroke-width: 0px; white-space: pre; background-color: rgb(255, 255, 255); text-decoration-thickness: initial; text-decoration-style: initial; text-decoration-color: initial; display: inline !important; float: none;&quot;&gt;\&quot;&lt;/span&gt;&lt;span style=&quot;color: rgb(0, 0, 0); font-family: Helvetica; font-size: 12px; font-style: normal; font-variant-ligatures: normal; font-variant-caps: normal; font-weight: 400; letter-spacing: normal; orphans: 2; text-align: center; text-indent: 0px; text-transform: none; widows: 2; word-spacing: 0px; -webkit-text-stroke-width: 0px; white-space: pre; background-color: rgb(255, 255, 255); text-decoration-thickness: initial; text-decoration-style: initial; text-decoration-color: initial; display: inline !important; float: none;&quot;&gt;Free newsletter. Get free recipes, news, and more. Learn more.&lt;/span&gt;&lt;span style=&quot;color: rgb(0, 0, 0); font-family: Helvetica; font-size: 12px; font-style: normal; font-variant-ligatures: normal; font-variant-caps: normal; font-weight: 400; letter-spacing: normal; orphans: 2; text-align: center; text-indent: 0px; text-transform: none; widows: 2; word-spacing: 0px; -webkit-text-stroke-width: 0px; white-space: pre; background-color: rgb(255, 255, 255); text-decoration-thickness: initial; text-decoration-style: initial; text-decoration-color: initial; display: inline !important; float: none;&quot;&gt;\&quot;&lt;/span&gt;&lt;span style=&quot;color: rgb(0, 0, 0); font-family: Helvetica; font-size: 12px; font-style: normal; font-variant-ligatures: normal; font-variant-caps: normal; font-weight: 400; letter-spacing: normal; orphans: 2; text-align: center; text-indent: 0px; text-transform: none; widows: 2; word-spacing: 0px; -webkit-text-stroke-width: 0px; white-space: pre; background-color: rgb(255, 255, 255); text-decoration-thickness: initial; text-decoration-style: initial; text-decoration-color: initial; display: inline !important; float: none;&quot;&gt;&amp;gt;&lt;/span&gt;" id="QnTk2kwEtcPUrwQm3_gq-15">
          <mxCell style="text;whiteSpace=wrap;html=1;fontSize=10;align=center;" parent="1" vertex="1">
            <mxGeometry x="877" y="-970" width="304" height="33" as="geometry" />
          </mxCell>
        </UserObject>
        <mxCell id="QnTk2kwEtcPUrwQm3_gq-16" value="&lt;div&gt;&lt;div&gt;&lt;div style=&quot;background-color: rgb(255, 255, 255); line-height: 18px; white-space: pre;&quot;&gt;&lt;br&gt;&lt;/div&gt;&lt;/div&gt;&lt;/div&gt;" style="rounded=0;whiteSpace=wrap;html=1;align=center;strokeColor=#000000;" parent="1" vertex="1">
          <mxGeometry x="871" y="-914" width="319" height="88" as="geometry" />
        </mxCell>
        <mxCell id="QnTk2kwEtcPUrwQm3_gq-17" value="&lt;div&gt;&lt;div&gt;&lt;div style=&quot;background-color: rgb(255, 255, 255); line-height: 18px; white-space: pre;&quot;&gt;&lt;br&gt;&lt;/div&gt;&lt;/div&gt;&lt;/div&gt;" style="rounded=0;whiteSpace=wrap;html=1;align=center;strokeColor=#000000;" parent="1" vertex="1">
          <mxGeometry x="876" y="-906" width="309" height="30" as="geometry" />
        </mxCell>
        <mxCell id="QnTk2kwEtcPUrwQm3_gq-18" value="&lt;div&gt;&lt;div&gt;&lt;div style=&quot;background-color: rgb(255, 255, 255); line-height: 18px; white-space: pre;&quot;&gt;&lt;br&gt;&lt;/div&gt;&lt;/div&gt;&lt;/div&gt;" style="rounded=0;whiteSpace=wrap;html=1;align=center;strokeColor=#000000;strokeWidth=1;" parent="1" vertex="1">
          <mxGeometry x="876" y="-870.5699999999999" width="309" height="34.57" as="geometry" />
        </mxCell>
        <mxCell id="QnTk2kwEtcPUrwQm3_gq-19" value="&lt;font style=&quot;color: light-dark(rgb(0, 0, 0), rgb(255, 255, 255)); font-size: 9px;&quot;&gt;&lt;b&gt;3. Landmark &amp;amp; Region&lt;/b&gt;&lt;/font&gt;&lt;div&gt;&lt;div style=&quot;line-height: 18px; white-space: pre;&quot;&gt;&lt;div style=&quot;line-height: 18px;&quot;&gt;&lt;div style=&quot;line-height: 18px;&quot;&gt;&lt;font face=&quot;Helvetica&quot; style=&quot;font-size: 9px; color: rgb(0, 0, 0);&quot;&gt;WCAG 2.1 SC 1.3.1/2.4.1 – page regions must be identified with landmarks.&lt;/font&gt;&lt;/div&gt;&lt;/div&gt;&lt;/div&gt;&lt;/div&gt;" style="text;html=1;align=center;verticalAlign=middle;rounded=0;whiteSpace=wrap;labelBackgroundColor=none;" parent="1" vertex="1">
          <mxGeometry x="850.5" y="-903" width="360" height="22" as="geometry" />
        </mxCell>
        <UserObject label="&lt;font face=&quot;Helvetica&quot;&gt;&lt;span style=&quot;font-style: normal; font-variant-ligatures: normal; font-variant-caps: normal; font-weight: 400; letter-spacing: normal; orphans: 2; text-indent: 0px; text-transform: none; widows: 2; word-spacing: 0px; -webkit-text-stroke-width: 0px; white-space: pre; text-decoration-thickness: initial; text-decoration-style: initial; text-decoration-color: initial; float: none; display: inline !important;&quot;&gt;&lt;div style=&quot;color: light-dark(rgb(0, 0, 0), rgb(237, 237, 237)); font-size: 9px; line-height: 18px;&quot;&gt;&amp;lt;nav aria-label=&quot;Primary&quot;&amp;gt;\n  … \n&amp;lt;/nav&amp;gt;\n&amp;lt;main&amp;gt;\n  … \n&amp;lt;/main&amp;gt;&lt;/div&gt;&lt;div style=&quot;line-height: 18px;&quot;&gt;&lt;font style=&quot;font-size: 9px; color: rgb(0, 0, 0);&quot;&gt;&lt;span&gt;    &lt;/span&gt;&lt;span style=&quot;background-color: rgb(255, 255, 255);&quot;&gt;    &amp;lt;div id=&lt;/span&gt;&lt;span style=&quot;background-color: rgb(255, 255, 255);&quot;&gt;&quot;&lt;/span&gt;&lt;span style=&quot;background-color: rgb(255, 255, 255);&quot;&gt;nav&lt;/span&gt;&lt;span style=&quot;background-color: rgb(255, 255, 255);&quot;&gt;&quot;&amp;gt;&lt;/span&gt;&lt;/font&gt;&lt;span style=&quot;background-color: transparent; color: light-dark(rgb(0, 0, 0), rgb(255, 255, 255)); font-size: 9px;&quot;&gt;\n&lt;/span&gt;&lt;span style=&quot;background-color: transparent; color: light-dark(rgb(0, 0, 0), rgb(255, 255, 255)); font-size: 9px;&quot;&gt;  … &lt;/span&gt;&lt;span style=&quot;background-color: transparent; color: light-dark(rgb(0, 0, 0), rgb(255, 255, 255)); font-size: 9px;&quot;&gt;\n&lt;/span&gt;&lt;span style=&quot;font-size: 9px; background-color: rgb(255, 255, 255);&quot;&gt;&amp;lt;/div&amp;gt;&amp;lt;div id=&lt;/span&gt;&lt;span style=&quot;font-size: 9px; background-color: rgb(255, 255, 255);&quot;&gt;&quot;&lt;/span&gt;&lt;span style=&quot;font-size: 9px; background-color: rgb(255, 255, 255);&quot;&gt;main&lt;/span&gt;&lt;span style=&quot;font-size: 9px; background-color: rgb(255, 255, 255);&quot;&gt;&quot;&lt;/span&gt;&lt;span style=&quot;font-size: 9px; background-color: rgb(255, 255, 255);&quot;&gt;&amp;gt;&lt;span style=&quot;background-color: rgb(236, 236, 236);&quot;&gt;\n&lt;/span&gt;&lt;span style=&quot;background-color: rgb(236, 236, 236);&quot;&gt;  … &lt;/span&gt;&lt;span style=&quot;background-color: rgb(236, 236, 236);&quot;&gt;\n&lt;/span&gt;&amp;lt;/div&amp;gt;&lt;/span&gt;&lt;/div&gt;&lt;/span&gt;&lt;/font&gt;&lt;div style=&quot;background-color: rgb(255, 255, 255); font-family: Menlo, Monaco, &amp;quot;Courier New&amp;quot;, monospace; font-size: 12px; line-height: 18px; white-space: pre;&quot;&gt;&lt;div&gt;&lt;span style=&quot;color: #a31515;&quot;&gt;&lt;/span&gt;&lt;/div&gt;&lt;/div&gt;" link="&lt;span style=&quot;color: rgb(0, 0, 0); font-family: Helvetica; font-size: 12px; font-style: normal; font-variant-ligatures: normal; font-variant-caps: normal; font-weight: 400; letter-spacing: normal; orphans: 2; text-align: center; text-indent: 0px; text-transform: none; widows: 2; word-spacing: 0px; -webkit-text-stroke-width: 0px; white-space: pre; background-color: rgb(255, 255, 255); text-decoration-thickness: initial; text-decoration-style: initial; text-decoration-color: initial; display: inline !important; float: none;&quot;&gt;&amp;lt;img src=&lt;/span&gt;&lt;span style=&quot;color: rgb(0, 0, 0); font-family: Helvetica; font-size: 12px; font-style: normal; font-variant-ligatures: normal; font-variant-caps: normal; font-weight: 400; letter-spacing: normal; orphans: 2; text-align: center; text-indent: 0px; text-transform: none; widows: 2; word-spacing: 0px; -webkit-text-stroke-width: 0px; white-space: pre; background-color: rgb(255, 255, 255); text-decoration-thickness: initial; text-decoration-style: initial; text-decoration-color: initial; display: inline !important; float: none;&quot;&gt;\&quot;&lt;/span&gt;&lt;span style=&quot;color: rgb(0, 0, 0); font-family: Helvetica; font-size: 12px; font-style: normal; font-variant-ligatures: normal; font-variant-caps: normal; font-weight: 400; letter-spacing: normal; orphans: 2; text-align: center; text-indent: 0px; text-transform: none; widows: 2; word-spacing: 0px; -webkit-text-stroke-width: 0px; white-space: pre; background-color: rgb(255, 255, 255); text-decoration-thickness: initial; text-decoration-style: initial; text-decoration-color: initial; display: inline !important; float: none;&quot;&gt;newsletter.gif&lt;/span&gt;&lt;span style=&quot;color: rgb(0, 0, 0); font-family: Helvetica; font-size: 12px; font-style: normal; font-variant-ligatures: normal; font-variant-caps: normal; font-weight: 400; letter-spacing: normal; orphans: 2; text-align: center; text-indent: 0px; text-transform: none; widows: 2; word-spacing: 0px; -webkit-text-stroke-width: 0px; white-space: pre; background-color: rgb(255, 255, 255); text-decoration-thickness: initial; text-decoration-style: initial; text-decoration-color: initial; display: inline !important; float: none;&quot;&gt;\&quot;&lt;/span&gt;&lt;span style=&quot;color: rgb(0, 0, 0); font-family: Helvetica; font-size: 12px; font-style: normal; font-variant-ligatures: normal; font-variant-caps: normal; font-weight: 400; letter-spacing: normal; orphans: 2; text-align: center; text-indent: 0px; text-transform: none; widows: 2; word-spacing: 0px; -webkit-text-stroke-width: 0px; white-space: pre; background-color: rgb(255, 255, 255); text-decoration-thickness: initial; text-decoration-style: initial; text-decoration-color: initial; display: inline !important; float: none;&quot;&gt; alt=&lt;/span&gt;&lt;span style=&quot;color: rgb(0, 0, 0); font-family: Helvetica; font-size: 12px; font-style: normal; font-variant-ligatures: normal; font-variant-caps: normal; font-weight: 400; letter-spacing: normal; orphans: 2; text-align: center; text-indent: 0px; text-transform: none; widows: 2; word-spacing: 0px; -webkit-text-stroke-width: 0px; white-space: pre; background-color: rgb(255, 255, 255); text-decoration-thickness: initial; text-decoration-style: initial; text-decoration-color: initial; display: inline !important; float: none;&quot;&gt;\&quot;&lt;/span&gt;&lt;span style=&quot;color: rgb(0, 0, 0); font-family: Helvetica; font-size: 12px; font-style: normal; font-variant-ligatures: normal; font-variant-caps: normal; font-weight: 400; letter-spacing: normal; orphans: 2; text-align: center; text-indent: 0px; text-transform: none; widows: 2; word-spacing: 0px; -webkit-text-stroke-width: 0px; white-space: pre; background-color: rgb(255, 255, 255); text-decoration-thickness: initial; text-decoration-style: initial; text-decoration-color: initial; display: inline !important; float: none;&quot;&gt;Free newsletter. Get free recipes, news, and more. Learn more.&lt;/span&gt;&lt;span style=&quot;color: rgb(0, 0, 0); font-family: Helvetica; font-size: 12px; font-style: normal; font-variant-ligatures: normal; font-variant-caps: normal; font-weight: 400; letter-spacing: normal; orphans: 2; text-align: center; text-indent: 0px; text-transform: none; widows: 2; word-spacing: 0px; -webkit-text-stroke-width: 0px; white-space: pre; background-color: rgb(255, 255, 255); text-decoration-thickness: initial; text-decoration-style: initial; text-decoration-color: initial; display: inline !important; float: none;&quot;&gt;\&quot;&lt;/span&gt;&lt;span style=&quot;color: rgb(0, 0, 0); font-family: Helvetica; font-size: 12px; font-style: normal; font-variant-ligatures: normal; font-variant-caps: normal; font-weight: 400; letter-spacing: normal; orphans: 2; text-align: center; text-indent: 0px; text-transform: none; widows: 2; word-spacing: 0px; -webkit-text-stroke-width: 0px; white-space: pre; background-color: rgb(255, 255, 255); text-decoration-thickness: initial; text-decoration-style: initial; text-decoration-color: initial; display: inline !important; float: none;&quot;&gt;&amp;gt;&lt;/span&gt;" id="QnTk2kwEtcPUrwQm3_gq-20">
          <mxCell style="text;whiteSpace=wrap;html=1;fontSize=10;align=center;" parent="1" vertex="1">
            <mxGeometry x="878.5" y="-878" width="301" height="33" as="geometry" />
          </mxCell>
        </UserObject>
        <mxCell id="QnTk2kwEtcPUrwQm3_gq-22" value="" style="endArrow=none;html=1;rounded=0;strokeColor=#808080;strokeWidth=1;" parent="1" edge="1">
          <mxGeometry width="50" height="50" relative="1" as="geometry">
            <mxPoint x="840" y="-780" as="sourcePoint" />
            <mxPoint x="840" y="-1150" as="targetPoint" />
          </mxGeometry>
        </mxCell>
        <mxCell id="izE_Z0ZMzIlTIWPwhQTC-1" value="&lt;span&gt;&lt;u style=&quot;forced-color-adjust: none; color: rgb(0, 0, 0); font-family: Helvetica; font-size: 14px; font-style: normal; font-variant-ligatures: normal; font-variant-caps: normal; font-weight: 400; letter-spacing: normal; orphans: 2; text-indent: 0px; text-transform: none; widows: 2; word-spacing: 0px; -webkit-text-stroke-width: 0px; white-space: normal;&quot;&gt;&lt;b style=&quot;forced-color-adjust: none;&quot;&gt;Naive&lt;/b&gt;&lt;/u&gt;&lt;span style=&quot;color: rgb(0, 0, 0); font-family: Helvetica; font-size: 14px; font-style: normal; font-variant-ligatures: normal; font-variant-caps: normal; font-weight: 400; letter-spacing: normal; orphans: 2; text-indent: 0px; text-transform: none; widows: 2; word-spacing: 0px; -webkit-text-stroke-width: 0px; white-space: normal; text-decoration-thickness: initial; text-decoration-style: initial; text-decoration-color: initial; float: none; display: inline !important;&quot;&gt;&amp;nbsp;+&lt;/span&gt;&lt;/span&gt;" style="text;whiteSpace=wrap;html=1;align=center;" vertex="1" parent="1">
          <mxGeometry x="580" y="-1100" width="230" height="40" as="geometry" />
        </mxCell>
        <mxCell id="izE_Z0ZMzIlTIWPwhQTC-2" value="" style="shape=image;verticalLabelPosition=bottom;labelBackgroundColor=default;verticalAlign=top;aspect=fixed;imageAspect=0;image=data:image/png,iVBORw0KGgoAAAANSUhEUgAAAgAAAAIACAYAAAD0eNT6AAAAAXNSR0IArs4c6QAAAERlWElmTU0AKgAAAAgAAYdpAAQAAAABAAAAGgAAAAAAA6ABAAMAAAABAAEAAKACAAQAAAABAAACAKADAAQAAAABAAACAAAAAAAL+LWFAABAAElEQVR4AeydB5gkVfXFhSXnnGGXHCUqApJzjgqoZBUBUYKAoIJLVkTJIiISBZEoKFlyFBAMBJGwLDnnzMr/d3CG/+zQM1N136vu6u5zv+9Md1e/G9551fXuC1UzzmcsZsAMiIHJwefAsmAhMCcYDiYBUwDJ6+BtMAo8Bu4Dt4O7wJvAYgbMgBkwA2bADLQBA9MT47fB1eB98FEQ76F3FdgFTAssZsAMmAEzYAbMQA0ZWIaYzgHvgminP5CebJ4FNJtgMQNmwAyYATNgBmrAwFLEcBkYqPPOffxSfC1eg3o7BDNgBsyAGTADXcnA1NT6BDAG5O7kh7L3IT6PBVMCixkwA2bADJgBM9AkBlbCzxNgqI666u9HE8MKTaqz3ZgBM2AGzIAZ6GoG9qX2GoFX3bkXtf8BsezT1S3iypsBM2AGzIAZqJCB8bB9IijaMTe73CnENn6F9bdpM2AGzIAZMANdx4A61otBszv1sv4uIEYnAV13errCZsAMmAEzUAUDwzB6PijbGbeq/O+JddwqiLBNM2AGzIAZMAPdxMBRVLZVnXnU70+6qYFcVzNgBsyAGTADuRnYAYPRTrjVel/LTYbtmQEzYAbMgBnoBgbmppJvgFZ35FH/+j8C83ZDQ7mOZsAMmAEzYAZyMaA1dP1DnmjnWxe9m6iD9wPkOitsxwyYATNgBjqegR2pYc5OXP/Y50qgfxL0RTAXmLgHmmnQse8A/fMflc3pezvsWcyAGTADZsAMmIEhGNDjdZ8HOTrhl7CzN+j917+8HVLkXw8behnkiOEZ7OjfElvMgBkwA2bADJiBQRj4Id+ldrx6UuARYKpB/Az1lf7XwJEgx/8aUBJiMQNmwAyYATNgBgZgQNPyz4GUBECj/lUGsB85vDpKqbMBT2Njwohz65gBM2AGzIAZ6AYGtqWSKZ3/s+gvVAFRi2AzNTH5agVx2aQZMANmwAyYgY5g4FpqEU0AdMvgEhWysBS2dWtfND5tQrSYATNgBsyAGTAD/RiYlc8p6+1b97NXxcftMRpNALQvYcYqgrJNM2AGzIAZMAPtzEDKU/9uaGLFr8NXNAnYpolx2pUZMANdyID+barFDAzEwPR8Ucfb0jYYKOAhjqsz3meIMn2/noQPKwHd/6+H9DwMlEC8BYqI7lK4pUjBBmU24tjNDY63+tDrBPBiq4OwfzNgBsyAGcjLwKKYOxjcA3I/5CY6Es6pd2lBurQL/yDQ6PHC6gAPAROAInIZhXLWoQ62dG78DYijzwKLGTADZsAMtCkD2g1/IfgvqEMHU1UMXyvQPnq4j0btQ8WgJwFOVsDetgVsDeWrzt/rnDkfLFCACxcxA2bADJiBGjGg9fR3QJ07mRyxfUAdpynAu2YJivr7M2XHGcLmdHyvTX1FbbZrubep47ZDcOGvzYAZMANmoCYMHEYc7drhlI371gKcrxPgY8MCdu8I2C1bv7qU17KAxQyYATNgBmrMwHeIrS6dRjPi+H2BtjgvwEmRfQWnBuw2g5OqfOxcgGsXMQNmoMUMjNti/3bfGgYWx+1RrXHdMq/6RztDyXJDFWjwfREdPd63m+QYKqsnIlrMgBmoMQNOAGrcOBWFpjXrE8CwiuzX1ezzBQKbtkCZ/kUm7n+gwWc9FbCbZHwqezwYan9EN3HiupqB2jHgBKB2TVJ5QKvgociotfJAmuygyL3rrwZi0m2BQ8nLQxXowO9Xok7Ld2C9XCUz0DEMOAHomKYsXJFtC5fsrIL3F6jObQXK9C9SZHPhA/2VuuRzt55rXdK8rqYZMAPtxsArBFzV5q+62n2SOhdZ8tDsSNk6bFLgBJBv7QMoa7vdyxdZdilAn4uYATNgBsxAKgP6Jzrt3qlE4t+hBHFXl+DoRsoWnUX7Zgm7kTrWVcf/1KjEyeeiZqCZDNT9fwHo4jocqOPSc9n1lDZLnIEF46ptq3k6kf+2RPRfpexfwFCPuNW0/uZAT8IrIr+h0IpgqyKFO6iMEp9/d1B9WlGV13Cq/z/xFBgNip5zFLWYgfZhQKOFr4Bfg3vBO6CuIxvHVe+2eZdzZyQoOkKn6CeiR/xqF3uj/4fwPsd/BSLJqGLR/1poZNfnU73Pp7q0j564qGvjSWALMAOwmIEQA3W4TWcKIt8MbAM0QopcsFGzVMiAdrE/VqH9nKa17nwLOAs8nmh4evTXAXMBJaNax9cSwbMgReZE+WtAd2O0ywVcMRd5lDLFLE1kQLMB14MzwIXgDWAxA7VnQBfXkaAbN6XVZTRRNA51ppbuZuAcql/0fHG51nClW1L1EKaZu/tUde2LMtCK0bbW8g8FGp39GEwFLGbADJgBM5DGwOSofxf8B4wEEwGLGRiQgWYnAOsSyX3gB6DIE9QGDNxfmAEzYAbMQEMGJuWoBlf/Ams2LOGDZgAGmpUAjIevkUD/OGUEsJgBM2AGzEC1DMyN+SuAlgXGr9aVrbcjA81IALSz/2agjLQZ/tqxHRyzGTADZqAKBsbBqJYFrgPTVeHANtuXgao75BFQcyP4QvtS5MjNgBkwA23PwBepwe1AswIWM/AxA1UmAPPi4VYwn7k2A2bADJiBljOgzv8GMFfLI3EAtWCgqgRgFmp3JfDtKLVoZgdhBsyAGfiYgVn5exWYyXyYgSoSAO1AvRzMaXrNgBkwA2agdgxoJuBPwLcJ1q5pmhtQFQnACVRh0eZWw97MgBkwA2agBANLUfaoEuVdtAMZyJ0A6HG+23YgT66SGTADZqDTGNiJCm3RaZVyfYozoPvzc4ke7Xt0LmN97HzI+4fBQ0DPuX4LWGIMaFlmjZiqtcxAiIGr0XospGklMaCn++mfU2kz9TxgGMgpx2FMewL0SHaLGQgzcCqaH2XCe9g5G2wA9AOw5GHgS5iJtNFZedzbShszEP1fAJu1cZ3rFvoUBLQx+D3QNTLyW26kcyK2LGYgzMASaOq/UjU6ucocG4MNdTYjgCU/A04A8nPaLRadANSrpeciHLVJruvuQvWqnqNpBgO59gD8gGDHSQz4MfT1wKCtwChgMQNmwAyYgcYMPMrhr4BlwejGRQofVT+ga7ilyxjIkQDMD2ebJvJ2E/rq/O9KtGN1M2AGzEA3MXAHlf08uCWx0toMqNsDLV3EQI4E4BvwlWJHG1BWBy90Ee+uqhkwA2YgFwPPY2g18JcEg+Oh+/UEfau2IQMpHbeqK31NQ0Xl3yhuCd6PGrCeGTADZsAMfLwp8Mvw8J8ELnQbd2qfkODeqs1mILWxVyVgPVoyIu+gtCHw7ScR9qxjBsyAGRibAV1LNwLvjn248Cddy5cvXNoF256B1ARgzQQG9MyAhxL0rWoGzIAZMANjM/AAH48f+1CpT1qOtXQJA6kJgGYAIqJM9WcRReuYATNgBszAoAwcyrcvD1pi4C+j1/SBLfqb2jKQkgDon/4sHqzZMeh56j9IntXMgBkwA4Mw8Crf/XKQ7wf7amm+nHCwAv6ucxhISQD0aMphQSrOCOpZzQyYATNgBoZm4MyhizQsMT5H52n4jQ92HAMpCcACQTa0818P/bGYATNgBsxANQxof1X0Oqtnu1i6gIGUBGBEkB89uMJiBsyAGTAD1TJwW9C8/mmYpQsYSEkA9I8pIqIZAIsZMANmwAxUy0D0WjtltWHZel0Y0NOfoqJ/URmRlyJKGXSU7AwH8wKd4EJKAoR628mSbRexA253BtagAtO2eyVKxq9/0PMa0GY8PZhnNNCxZsuLQYf+D6xB4tpNLSUBmCRY2beDehG1qVHaHKwPVgTRWQtULWbADAQY+FZAp9NUlAzcAP4EzgNKDJohbwad6A4vSxcw0Kkj4Llpu5PBM+BXQAmAO39IsJgBM9B0BjTbuCH4Nei9JnmdvenNYIf9Gei0BECzEocDPQ3rG2BCYDEDZsAM1IWBiQjkW0DXqEPAxMBiBlrCQCclALot8XawL9C9rBYzYAbMQF0Z0ODkh+BusEhdg3Rcnc1ApyQAq9BMur3ws53dXK6dGTADHcbAgtTnNpDyf1U6jBJXp1kMdEICsDZkXQ68xt+ss8Z+zIAZyMnAZBi7BOiOCYsZaBoD7Z4AfA6mzgde62/aKWNHZsAMVMCArmEXgiUqsG2TZqAhA+2cAExFjf4AfMtKw6b1QTNgBtqMAc0E6DZBP4inzRquXcNt5wTgaEj3rTTteuY5bjNgBhoxoFuYj2z0hY+ZgdwMpDwIKHcsZewtT+Ftyii4bBIDmpb8SZIFK7c7A4u1ewXaKP4diPU3wP83pY0arR1DbdcE4EDIHqcdCW/TmBcibsFiBsxA9QxoZnYkWKd6V/bQzQy04xKARqOrdnOjue5mwAx0PAO6u8m3NXd8M7e2gu2YAGzXWsrs3QyYATPQFAa8zNkUmrvXSTsuAWyS2Fzvon8jGA1a8R+6EsNPUtemSd9rnEShlUsycDXlHyup0+7FNbDSfx7VPyBLuUV5U/T3BhYzUAkD7ZYAzAsLsycwcQa6e4EXEmy0s+qXCN4JQDu3YPvFfhIhX9B+YWeJeAas/AJ8LWhtLvRGgFHAYgayM6BMtZ0k5f/ZH09FtwXd2vm3Uzs7VjPQCQw8TyW2AicmVCblmpfg1qrdwEC7JQDzBxvlCfQ8lfaZz3wY5M9qZiDKgM+5z3zme5D3VJDA6DUv6M5q3cRAuyUAmlKLyNkoae2/2+W5bifA9W86A8803WP9HL5DSOcGw5oxqGc1MzAkA+2WAOhRmRG5P6LUgTr3UKc3O7BerlI9GXiDsP5ez9CaHtW/gh4nD+pZzQwMyUC7JQDDhqxR4wIe/f+PF/FwVmOKfNQMZGfgDCy+l91qexrULEBE2m2jdqSO1mkRA+2WALSIpo5yO5LaPN1RNXJl6siA1rz1xE6LGTADNWXACUBNG6bCsLQPYEPg/QAVktzlpp/tOcd8x02Xnwiufr0ZcAJQ7/apKrq7MbwUOBN4l3ZVLHefXZ1LmvbXufW37qu+a2wG2osBry+1V3vljFZTtHrU6G5geTAT8D9YggRLaQY+QkO7/W8Br5TWtoIZMAMtYcAJQEtor5VTXbAvrVVEDsYMmAEzYAYqZ8BLAJVTbAdmwAyYATNgBurHgBOA+rWJIzIDZsAMmAEzUDkDTgAqp9gOzIAZMANmwAzUjwEnAPVrE0dkBsyAGTADZqByBpwAVE6xHZgBM2AGzIAZqB8DTgDq1yaOyAyYATNgBsxA5Qw4AaicYjswA2bADJgBM1A/BpwA1K9NHJEZMANmwAyYgcoZcAJQOcV2YAbMgBkwA2agfgw4AahfmzgiM2AGzIAZMAOVM+AEoHKK7cAMmAEzYAbMQP0YcAJQvzZxRGbADJgBM2AGKmfACUDlFNuBGTADZsAMmIH6MeAEoH5t4ojMgBkwA2bADFTOgBOAyim2AzNgBsyAGTAD9WPACUD92sQRmQEzYAbMgBmonAEnAJVTbAdmwAyYATNgBurHgBOA+rWJIzIDZsAMmAEzUDkDTgAqp9gOzIAZMANmwAzUjwEnAPVrE0dkBsyAGTADZqByBpwAVE6xHZgBM2AGzIAZqB8D49UvJEdkBsyAGTADPQzoGj11Pzbe4vP7/Y75oxkozYATgNKUWcEMmAEz0DQGvoonYSB5gy8+BK+DV/phFj5bzMCADDgBGJAaf2EGzIAZKM3AlGgsAOYD8/e8ztvzykt2mbzHomYJhme3boMdzYATgI5uXlfODJiBChlQp7skWKoP5uL9OKCdRfX5CrgNjAKWDmXACUCHNqyrZQbMQHYG5sDiymAlsALQyL4TRUnN2T0Ve47XO8Dt4JaeV+8/gIhOECcAndCKroMZMANVMDA9RtcGqwF1+iNAt8mMVHjDHqju2oB4A7imB//i9SNgaUMGnADkazRN+02Vz1wlll7D6n8rsfxpo1qb9Pn1aV58pH4MaAPdmJ6wFuV1PbA++AIYBiz/z8CkvF23BzqqGYLLwMXgavAOsLQJA75ApzWU+NsObA+WBnXnU7uF7wKng1PAByCnLIexPcCaYIqchm3LDFTIQO/vYmZ8eCNdOaI1Q6Drn6DZgSuBkoE/g5eBpUMZUAeiqZ+y2DqBjzMD/hTf5gk+B1KdjS/UmZatf13K30PswweqXMnjSnyOAXWpm+NwW/gcaO058B7XAyUCm4EJgaWGDPhJgLFG0VS/1sC0W7ZdZXECvxZMm6ECx2Ljuxns2IQZMAOdwcAEVGMjcD54BpwElgfjAEtNGHACEGuIw1GbP6ZaKy3dsvSzxIhWRn/nRBtWNwNmoHMZ0O2SO4KbwL/B90GOgQdmLCkMOAEoz940qHy9vFptNbYhspkSotsvQdeqZsAMdBcDunXyJ2A0+A1o51lUwm9vcQJQvv1WR2X88mq11RhGZNq0F5GJUFolomgdM2AGupqBSai9BlLaR6XnC2i5wP0RJDRTTHh5tnNtnCvvuTqNOYOm9azxTkqGgjRYzQyYgQQGdPeQNgzqmQK6m0D7ByxNYMAJQHmSdR9sp4my8Yjkvo0wEoN1zECnMqDb6l7pwVO8Pgp0333vMb3qbodOkQWpyG+B6qnbiScGlgoZqPt96xVW3aYzMKDdvXqIiu/5z0CmTXQ8A0qYR4FHgH47TwJ16Hp9CbwKXut5fYPXojIZBfXgLf0OteFueqB9PcIMYHYwVw/aYQAzK7H+AuwFDgXaK+DHD0NCbnECkJvR7rL3IdX9E/hqd1XbtTUDgzLwJt/eB/4BNK39IHgYjAb6zeQW+ROUVAwlenCPkoGFwCLgs2AxMB2om2iJ8QSwNzgInAmq4A+z3SlOALqz3XPW+hCMfRl4L0BOVm2rXRjQyPQecEcfaAq7rlPzmnEQbgN9RbMFejbIsmA58AWgWYU6yAiC0NLAPmAv8GdgycCAE4AMJHa5iQeovx4CdGKX8+DqdwcD71FNdfbXgut63utYu8uzVOCKHqguujtoYfBFsBpYFWh5oZWyAM7/BK4Ee4L7gSWBAScACeRZ9RMGfsU7rVkeD6b65KjfmIHOYOAxqqGOR7gJvAM6XcZQQS1hCErulRB8HuiWYWEZoGOtkLVw+neg685IoP0TlgADTgACpAVVXkZPm3yqlCkx3qonbP0O3xpB7AB0gdDGIy8LQIKlNAPTo9Hq6ee/EcN5QJ3+v0C3ixKC23ug9Xi10UZgM6DZgWbfuqe+a1ewJfgeOBPUddmF0DpPTqFKIrwstk6goreRy/rM+c+ARgbqrHj3S6h3UdXdg7H9tKgDlzMDFTKgTuQA8C4o+xvPUf5e/P4AzAMsxRnQrJ+u61qb1ya9HG1R1sY1+J0XWEowMG6Jsi5qBsyAGaiKgSUwrI1pB4IJq3LSwO4rHPs1WAosDg4DDwNLcQZepagGZ+uB2cHuQBsjmymr4UzLFSNBM88f3LWvOAFo37Zz5GagExiYmEocBe4ESzapQhpdXgW+BGYC3wKa8rekM/AMJo4BakvtGTgJvAWaIXo0+Y+Blip0i6NlCAacAAxBkL82A2agMgZ0D7ou1hoxDqvMy/8bfoO3Gu3L71rgAvA+sFTDwF2Y3QnMApRk6Y6hZohmcpTQjQTNOK9w057iBKA9281Rm4F2ZkAX5R+Au8GiTajIE/hQkqEnzKkjug9YmsfA67hS4qVR+QbgelC1aAOyZgN0u2b0f51UHWPL7TsBaHkTOAAz0FUMaI34BnAoqPoukQfxoX8uMzfQtLRmACytY+C/uNZdFasAPV9Amwa1HFOlrIhx3TL4lSqdtKttJwDt2nKO2wy0HwPaJKbNYbr4Vyl6QIzu/FkYnAY+AJZ6MXAr4awPtFfgPKDkoCqZHMNnAz3PQPsELD0MOAHwqWAGzEDVDOie7ZHgEjAtqEpGYVhT/FpWqLpTwYUlAwP3YkPJWm+bZTA5oAntR1DiMc+AJbrsCycAXdbgrq4ZaDID2mV/PdB6bFXXGz3bXh3/vEBrzWNAJ4lGrVP3QSdubNO+DCUCq4K/gqpkCQxr78lmVTloJ7vKzC1mwAyYgSoY+BxGLwKzVWEcm3pgkG4hPBy00/r+NMSrDYnDgbgR5gDaH6HvpgBTgqnAOGAgUaLzOhAPL/XgRV5fAM+D0eAxMApoI2Q7LIVcR5zLAN2i+TMgjnKL+NUM0cFgJPgIdKU4AejKZnelzUDlDHwNDycD3edfhZyP0b3A41UYz2RTHc1iQLel6VWjzwXAJCCHaCZAMwOSmf/3MuBfJQtKAjTS/ifQ1LteHwIfgjqJOmR10NokuC/YG+Reu1didQBYGGwL3gJdJ04Auq7JXWEzUCkDurAeBnThrkIeweiu4IoqjCfY1LV0abAyUEcvzAUGG8HzddNEycKIHqzXx+u7vNeUuNbGb+551SxCHeRtglAnfRrQTM+GILdoKWBusDF4PLfxuttzAlD3FnJ8ZqB9GJiQUE8HW1QQ8nvYPAIouVCnVQfRaH71HqzCq0b87SYaWX+xBxppSx4E14LLe17VEbdSHsX5RmAT8EswE8gpmqHRvoP1wZ05DdfdlhOAureQ4zMD7cGA1q4vBitUEK5GqNuBf1Vgu4xJdZbrgA3AGqCqvQ2YbqkosRF2AUq2bgJKBi4Co0CrRP6vB5oN0LR9TpkBY0p6vgyuyGm4zrbGrXNwjs0MmIG2YGAEUWoKOXfn/z42fwSWAa3q/DVIWhucBp4FF4LtQad2/lRtLJmIT0p2fgE0Er8d7AlmB62QV3C6HVgXPAFyymQYuwTkTi5yxpjVlhOArHTamBnoOgYWpMYaIc6fuebq8D8HDgXN3qSm6+KKQNPNTwONftUpTAm6Wcah8l8APwePg5vB14E6zmaL2mRR8IfMjsfH3qlgv8x2a2nOCUAtm8VBmYG2YGBJorwB5BwNf4S9E8DngXapN1Omwtn3wMNA9doZTA8sn2ZAyYD2DvwGPAV+BZSwNVNexdkWQEnImxkdq27aa3JERpu1NOUEoJbN4qDMQO0ZWJ4ItWaas4PU7vONwK5Aa8/NkgVwpKRDU8pHgjmBpTgD2vz4LaANdHcB3QKqkXSz5Lc4Wgpor0hO2RtjRwMlBB0pTgA6slldKTNQKQMa+V0Gck6J6+L9eXApaIbooq4d/PJ3P9CGt8mAJY0BdcRngdFgJOh9TgFvKxU9z0Dn5bGZveyGvZNAR/aVHVmpzCeAzZkBM/D/DGjkr13Sk///oeR3mj7WxXtUsqWhDajj3xT8E1wN1gcdO8Kjbq2SmXD8YzAKHA6mAVWLbhVVh60lgZwzSN/Enh4x3XH9ZcdViEaymAEzUA0DvSP/XCNlXaS3B1pr18W7alkbB38FFwA9Ac5SPQNaHtgXPAZGgpyzRphrKFoSUKL6eMNvYweVVGhTaEcli04AYieDtcxAtzGwNBXWtH+ukf9z2FoVnAaqFt2eeCPQzvFmb1Srum7tYl+JgGYEHgXaYT8xqFK0pKS2vjmjE+1z6KiNgU4AMp4dNmUGOpSBBanXn4Eu4jlE0+/LgNtyGBvExmf5Tp2+Ov/czygYxG0lX72B1Vf64O1KvFRvVEsB2mH/ANi8YncvYn91cE5GP3tha/+M9lpqaryWerdzM2AG6s6AHvhyJZguU6BXYEcXfnVoVcmkGNZoc3fQzN3oZerzPIXvB9q89gx4ATwLdLz3vW5zG0xUN02pC1P1YFpeR4C5+mAO3teNh+HEdC7YFaid/gaqEC0tfQ08An6UycFB2HkN5N5wmCm84macABTnyiXNQLcxoE7/KqAkIIeciRGtpX6Qw9gANjbk+HFAnV4d5B2CuBNoSvpBoE5fo9+XQKqIR41yhcFkGF+qDTUjojsteqFkodWyAgGInxPBD8DrILd8hMH9wSPgZJCj3zsaO0rUcs4uYK595BRCFbFlsXVCFXUBKetP5XNONY0MxhCJu1k6P6VOOWQejBwP9EN7HzQrfvupP9e/4HyocgOVOvyLa3DOqWO/FOwDlgMTgLrK3AS2JTgK3Ada/TsaTQzrgypFCaKSshx1fRc7K1QZbJ1tOwHIcxLlOBFTbeRIADSNp+m21Fis33kc7lvhhWxcbO8B3mjhuafR/f5gMaB42lVGEPhO4BLwJmjVb1Gj6hlAVbIqhnOdL0r45q8q0DrbdQLQuh9I7h9magKwJydq7phsr/05/S/nxXcrvIjNgu2rW3DufYjP68BuYDjoRJmQSq0BfgVeAc3+PT6Hz/VAVfIFDKvzzlGvR7BTZcJSFQdJdp0A5Dl5cpyAqTZSEoAFOYu0Fpkag/U7i0N1/jsnXWEGV96Ar7UG28zzRtPkmumaHnSTTERltwB/Bkp+msW5ziEtKU4MqhDN2Gj/RI763IodJU1tJe08XdVWRHdwsHtTtxybajqYoq6rmi7c3wLa2JVb1BmoU/gjmC638Qb23ubY6UAPllkY9G7+4m3XiNa6zwUakc8O9Ju/H1Qt2jPybXAnWLQCZ3/H5prg1Qy2l8XGcRnsNNWEE4Cm0t2RznRRsJiBvgx8hw/abZ1bFsGgnuSnTqHKDYWK+z9gVzAr2A7cAiz/u2XxSIhQW6wLrmsCKQvj43awdQW+/obNtUCOuw++iR0lvm0jTgDapqlqGeikRNV1a1+1bIn6BLUfofyygnA2x6Y6f3U8Vcp9GP8aWBCcAHKMDjHTcaJp88uBNtR9DvwBjAFViWZ+zgCa/cl9Z4XOq3XAmyBVjsWAZgPaQpwAlG+mHJliea/VakTrpKleixnoZeAnvBFyikb6B4DfA3UCVck9GN4MaKr5bFBlZ4b5jpK7qY32CMwHlDTpFuCqRLM/mnXQBtCccivGNgUfJBpVcnI+mDnRTu3VTyHCyOaJlGmcOjwHQJuPIvWus86XE862JzuQjzq3VV1jOznhHBpIdSK+UGdcZZ21DrweqHpJARddI3NR03OBBghVtZ2uO9rEl1u2wmCOuK/BTkcPsLs1AdC0d657SKv6cZSx+zb1mRJERRl/GX8u23l8aSo490bQmbB5e4Xn1gvY3gkMA5ZqGFgGszeDqn7zmrlcu4LQ984Us5bDOla6NQFQgx4Iqjqpm233J4ln6Aj0tUu42XHbXz041yaqyUFO0cjucVBFG2t6+igwNbA0hwFNrT8EqmhPTdnvWEE1dLdHaryKrW32A5TlsJsTAK3z3JjhBEk9wVL1NcKaqGzDNyi/HcdyTJul1sf66RetMhyOpt1zr8V+EZuvgTJxFC17BXYXAJbmM6B75A8GSsCKtleZchqU5RTNDF0GysTQqOxj2JgqZ2B1sdXNCYDaYDKgda5Gjd4Oxy4k9ilALvkqhqq6cLcDn90Wo5aOtPs7p6yMsSqW17STfztgaT0DixOCZo2q+L38HLs593JoafSBDLFqH0stJfe6XS0rWVFQumVEO19/CbYDWu+aEdRZniM43fJyOrg2c6A6ya8GO4N1wAigrN9SLwb0m88xZa/7ne/KWLU1sXURmCSjTZn6C9gBaLbC0noG7iWEpcE+4ACQ8xqxJ/a0R2sXoBnJVNGAZkNwB0hZMvoK+rozQIOujpFunwHomIZ0RbqKASWsqaOvX2RmbH3svZMhrr71egt7u4KcI0LMWTIysCC2NCDp22453p+BTU3h5xL9T4TURyA/h43pcgVUBztOAOrQCo7BDBRnQI+zHQNSLrLXo59z5lAbxN5LjKl/fdSpzAcs9WdgAkLUI3T7t2Hq599iM2fy96MMMf4eGx0jTgA6pildkS5gQFOt94OUC+vz6Ofc9LcR9rRTOiWm/rq/wV7OaWXMWZrAwJb40G19/dsz5bMSi1wyLoauBCnxSHezXAG12o4TgFa3gP2bgeIMHETRlIuXZg7WKu5uyJK6PeptkBJTX13NIuw8pFcXqDMDukPjX6Bvu6a+PzxjhWfA1lOJ8T2DvjYXtr04AWj7JnQFuoSBRahn6jT7YRm5mh9bL4LUi3uv/tPY0u2DlvZnQJv4fgd62zbH6/cz0rIStlL3A+ScmchYtXKmnACU48ulzUArGNDU5W0g5UJ6J/q51v1nwtajifH0rYvqlnNZAnOWFjOgtfuDQd92TnmvOwJ0x1YuOQRDKfEogVgyVzCtsuMEoFXM268ZKM7ANyiacrHS7vyFi7sbtKRuP7wbpMTTV/dP2Jp4UI/+sp0Z2IHgc+0R0Xmca5ZIybCS4r7nYtn32qiq5LxtxQlA2zadA+8SBtThas2x7MWpb/ndM3E1Pnb0JL6+tlPen4Ut2bR0NgPaKJprr8gL2Jo3E11aVnsXpJzDO2aKpSVmnAC0hHY7NQOFGTiUkikXqGvRzzVKOTYxlr710BpqrrgwZak5A9owmmvPyIPYmiJTfVP/aZDuqskVS6YqFTfjBKA4Vy5pBprNwHAcpoycpDtPpqC1/tq3A095f1CmmGymvRhYiHD1MJ2Uc6dXV0+czPGMACWhqftrcm6uJZzmiROA5nFtT2agLAPnoNB7wYu87lfW4QDldWtXrvu79xzAhw93BwOLUs1cMwG5zm/FlLJPQYn27O3YfE4A2rHVHHM3MLAMldTO50jHL51/gBzr65NiJ9d93Qdgy2IG9M+EXgLRc7tXbww21s5E5xGJ8ZyWKY6mmnEC0FS67cwMFGbgRkr2XujKvurCqAQih5yJkbL+G5U/JkcwttExDOj8zDGrpDX4mTOwokT3MdDo3C1yTL85JTZtJU4A2qq5HGyXMLAq9Sxy0RmozKmZeNopMY7e+M7ATo712kzVspmaMLACcbwJes+T6OsV2Mhxfq2fGMsl6LeVOAFoq+ZysF3CQMroX6OqHCOiBbGj+66jF+VevT9iQ/dcW8xAIwZ0i6BGz73nS/Q1162ulyfEoiW7JUHbiBOAtmkqB9olDKxCPaMXQentm4GncbFxa2IcikWJzETAYgYGY+D7fJlyzkv3XaDNfKmyMAZSNgQq4W0bcQLQNk3lQLuEgRuoZ/Ri+Ai6E2bgSaOpaAy9eqOxMUOGWGyiOxg4jWr2njvR179jI8fG1xMTYtEswBKgLcQJQFs0k4PsEgZSR/9fycDTnNh4A0QvwtLT0sHSwGIGijKgjvs6kHLeSfeHRR0OUm56vnsVRGPRMwqaJl5faxrVdmQGKmVg/wTrGv2cm6Av1XGABgWT6UOC7ILuXxP0O0FVyygzAXGpxzlrZmYSoN3mum9c/0xG+zXeA2+BZ4ESp24VTbtvDu4ASkKj8iMUzwf/jhpA7wVwBNBTOCOifQ3aQ/NARLmZOp4BaCbb9mUGBmZgMb6Kjjikt+7Apgt/o+eap8Qg3RMKe+uMguqsNgUHAd0yqX0Pj4H3QVkun0dH/2jpYnAM+CZYCuRY1sFMW4jqq6SoLHd9y9+AvpLZFFHipvboa7fM+5NSnDdL1wlAs5i2HzMwOAPR36IuSup0UmVWDLwGylzk+pe9Cf0ca7CpdalKXx3xauBw8BfwMujPQRWflUzcC34LtgGaWehk+R6VS+VRyVOqpPyfAM3yaCmh1hK96GydUKvog0U0PWQxA53IgC4Umv6NXvTUKaXKqRiI+pee1kznSA2ihvrzE9Me4HLwFkjhKJeuNpppyedIsCbotKRLo/crQApfGr1PBVJkEpS1NBONY/8U583QdQLQDJbtwwwMzsAP+Dp6kbltcNOFvtXyw5iEGBT7dqBTZDYqshf4G4i2SzP1XiTOE8EKIHXqGxO1EM1yPAdSePx5hpoo+YvG8Ay6E2aIoTITTgAqo9aGzUAhBjR6ewJELzIbFPIyeKGrEvwrbq1Zt7tMTAV2ANeD1GQo2pY59B4n/sPBXKDdZR0qoNmOKC/aSzB/IgmaBdCmwGgMWyf6r1TdCUCl9Nq4GRiSgS0oEb24aF04dcS3doJ/xa2p1hlBu8rsBK4OU6PoaDvUUU9JzB+BlodSzxFMtExOwHMKv3/KEPmBCTHk2J8zaBV8G+Cg9BT6cgVKbQeWATOAYaCOomxYF9w7wGngBpBbtBlsJ7AG0JruRMBSHQMaYUTlZyjq4hgVnedHRJV79Hbm9blEG61QXxanmt7dBHTiNXRc6rVhD/TfHI8DpwONittJtDymNpo5GPR66K0IUjpiJSF7g4lBWVkehQXAg2UVm1G+22cAJoXk34OUDLOVuucTu+4xziW7YEi7V1tZJ/suxv/TtNMEiQ3/jcS21m+n3WRpAk7dYNau5+ho6r4TSD1vmt3mW+IwhfPrMwR8UkIM2qxZS+nmBEA/AmWFKSdWHXRvpQ45Nppo01Md6uMYirXD/rRXimg08xSI8q0d8bOnBNBkXf2TlktBtL6dpPcYPOwA2mnm48rEtlsd/RTRXoIxIHIeaNa2lklXNycAKes6kZOgSh2tYabI4ijryWRVxmjb+fh9l7bSUlWK7IpySpsckOK8iboj8HUe0PJZSn07Ufc/cKLp9XaQeQjyHRBtBw2UUiVls+yXU51Xod+tCYCm/t8A0ZOpbnqatk+55/UPHcRF3dqminjOoL1SRKMRTQdHY3sc3ch6aErMZXUV30jgJa2h21kd24Kg7qKkM3rOSm/txApuluC/qf8foGg9uzUB0OaYlBOpjrrRDFO3ob3ZgXzUsY1yxaRNTSnydZRTYtGdC3UWPZr3MZBSx27TfR++tFY9BairKKl7EkTb5prEiula+XTQv2Yvpkz031B93IZHfXAwBjSd1GkyX7BCs6CnGRFLezDwEGHelBDqOOhqv0dU5FszRnWU4QSlDX4XgBHAUpwBdW7fA/8G0cFEcW+xkupED4mpfqy1Gn+XSNDXPyw6Nag/EXobB3UHVXMCMCg9Db+sc5bbMOACB6N18vlTgNwaFfktsWgEFJW1UFwgqoze3iDFf4LrAVWV1Gh3+z+B6lcXeY9AtM5+N7gBaASq/Qh/7nl/J6//AK+AushMBKIET5i+LkH1iUOz1o/2+Vz2rZKcFDkZ5f8GDehuhuwyXnaLNthNDGhKSxeqCbup0m1aV23UPCMx9t0S9K9G944E/SpUR2D0N0Cju1bJWzjWQ5nU0QsPg1HgGVA0WVICPxzMCRYDnwNLgVlBK+TLOF0ZfBsoaamLfEAgB4LTgwFtjt5+4Img/ij0bgaRZTido9OBF0EtpFv3AIyEff0wOwk/TTij/tRhXHRSu/atizZrpcj8KGv00tdmmfeRi15KvIPpjsOXGvW/AcrUIUdZdUI3AHUkmlIeBqqSmTG8NTgbvAByxF/WhhIAdVx1EfF9Hyhbj97yhyZWROddr62yrzsk+s6q7gQg3pBlG77q8ikJwPIJJ3TV9bL9/z9HUy8eOkeifKrDq4tMTSAXgmhdInraJHcJ0AbISjZzYXcoUce3DDgK9M4uROoS0XkCnyuAusiXCCRSD+lo1jNl5lzJkM6HiH+dt7URJwCxRow0fNU6KQmATsiUzqHqutn+Zz7zLm2UcqunOo8nQZTLNdCtg3yBIB4D0XqU1bsDX7uAaUGdRO25FjgTaHNc2XpFymvm44dgXNBqUQz/AZF6SGejxApEZ01fx++Eib7HUq9DY4wVkD+0JQP7EvUhILrBpS0r3UZBX0GsrybEuzq6swb11QleHdTNpaYpf23gugmMAFXKBxj/PdBoWwnHL8FLoE4yhmCuBFuDOcD+QLMCVYpGzbpGyO+MVToqYFvXqeMLlBuoyDcH+qLgcZ0fEZkcpZUiigPpqFEsZiCVAWXFuoho9+/uYE2gDkMXXkvrGUidOtw2oQqtfpa5Zj400l0/oQ5FVN+k0AngOPBUEYUByszO8cXBImA4mA3MBDRY0/KB/GjjoPAc0KbBB4Fu8dRdAR+CMqK9AeqYjwDa5LYvWBhUJatj+F6wJWjl0tBp+D8YqFMtK2ujoHZ5sqxiT3nNAChRHD+gr/M4dT/PJ26dAHxCReVvDsLD0RV70QaTwyr2MZj5f/Ll13sK6OSebLDC/q4UA9+mtC5YZWUMCpeVVepTXp3Oxn0+l3mrDuqPZRQyl12gx/98me32Nfc2HzTKVweqzrSsaAf/ekBJ8xpAiXNUlBzcCK4F6mT+DYqK1qXPAmcDdc4/BlXxNhO2rwa7gRNBK+Q1nJ4Odg04H4aOODoyoCuVV8FNYFV9KCk6V75bUqeS4qdgVSO/stg6IZozA/4UnzLbXDISQ2XrrPL75QpgEDu7B2P76SA2/VU9GFBHGjnvdKFJkW+iHPErnVaeV+vgXxfaaOxD6anDPBaoMysrGs2vC84HVa7B3459JY7TgLKiweF24HEwFBcp3ysBiIyEUUsWJThaDojE/9dE79FrtWIdnuj7E3WdiBYzYAbqzcAwwlsxGOKlQb1etW1735R81YXqNyV1chXfG0Oqt2YvqhCNXhcDGok9W8LBBJTdBTwI/gw2AxOBquQLGD4ejAa/ALOAoqKlhNPAguAgoESlCtkJo9eA6aswPoTNh/j+iiHKDPT15/hiroG+LHA85Xe5cgH7hYo4AShEkwuZgZYysDjepwpGkDL9r3XO5YJ+r0fvP0HdqJo6U80SajpeSVNueRSDm4A1wQMljOs6uz1Qh3MCmBc0UybF2R5A8R8HpgZFRUscPwYLgQuKKpUsp+RWI+pFS+rlKH5q0Mg46KXMLD+C/v1B3ysH9T6l5gTgU5T4gBmoHQOrBCPS6PS+oK7UNI2uC11ETo4oJegoQdIO860SbAykqtHwT8DC4OKBCg1wXJ3azeC3YPgAZZp1WLeQac1bMxDbgjJtO4ryXwJrg9Egt4zA4E1gtdyGh7CnvRJvDFFmoK9TEgDZ1MxHRFaKKDXScQLQiBUfMwP1YmDlYDjXovdRUFdqSgAi8hpKF0YUgzqaqVDnoZFkbtHO+mWB9vC8W8K4ZiB+AO4C0q+TzEAwpwEtZcwEyoiSrM+CX4GUc6uRzyk4eBn4aqMvKzqmpY0/Bm1rZm7WoK7UrgvqzoneHEHdsdScAIxFhz+YgdoxoFHaF4NR/SWoJzWtV68e1Nf69ntB3bJqGpXfChYpqzhE+Q/4/kDweaBOvIyoU9Xo7lAwfhnFJpfVaPseUHbU/To6O/foPcprTtF5p7sRvpfT6BC2zhni+4G+1m9TMyJRuQHF/waVVwjqjaXmBGAsOvzBDNSOgXmIKLr+f21CbZZHN3KPtFyWnSaPhrkiihr5zx41MIDewxxX0jUSvA/KiDYH3gFWLqPUwrJKVjSq3y0Qg0awGgWfGdAdTEUd65HgKNCMPupq/LwIIpKSALyCw3sjTtFRYposzSA3OUgbMANdzIB2G0fkKZRGRRR7dNYN6r6L3uVB3TJqG1NYHVeZDW1F7P+OQkuCO4sU7ldmFT7fDObod7zuH4cR4NHgMKDOt4xo/XybHkTX0gfytztfqD2qnkXRbM/5AwUxxPHV+X68IcoM9nV0GSB6XRgrFicAY9HhD2agdgwsFYzo9qBer1p0/V9T32/2Gqno9SvYPQ9MlNG+Yt4WbAUiHZlGglr6mAy0q+xH4FrbL5sEqL6aBdC5erc+ZJQtsaXOWRsYq5TonpWpCGqZhMBuC+oujp4StyRxApBEn5XNQOUMtCIB0AhWt31F5KKIUgmd7SmrziZl1NXf3b85oCnVM/p/UfCzlktU74kLlq9zsR0JTjMBEfkPSsuBX0eUB9HZkO+0Ua9KfjVzo9mriKwUUerRicw0SXVSsGCPjfCLE4AwdVY0A5UzoN+npqMjkjIDsGzEITr/BZcGdYuo7UyhU0DyyKePs0t4vzR4sM+xMm91EVbnlHM2ooz/Ksrui1FNv0dEeya+1YP3IgYG0FmL41XOsOhugFsG8D3UYe0XicpoFJ8LKicvAzgBCDJvNTPQBAbmxodujSorY1D4W1mlPuWjG4z+hY0X+tjJ+XZPjJ0AItPTjeJQsjISbAxeBxFR21wMpoko11zn58S3RkKMmgVYBTydYKO/quxdCabs/0Wmz1q+iogS5pS+NDoLsFgk2L46KUH3teP3ZsAM5GcgOsWnqdi3E8LRiDgimkatQvbDqDqkXJ2/1vvV8R8IPgIRUSyajZgvojyEjpITJXBHAk3JrwkWAEoIlwBqny3AwUBLD6+C3KK+4Uwwc4JhrW9rlJoyG9XfvZYY1FFP1f+LDJ+jCYBiWTjBfzQB0DmRJDnX0ZICsbIZMAOfYmD+Tx0pduAfxYo1LDWMo0s2/Gbog1UkAN/D7WFDuy5c4mlKrg/uKazRuOB2HP5S46/CR9XpHw801f38EFbUafyhp8wEvK4Ovgy2BLmWI2bElnbhrwaiidIz6K4KzgKbghyipEJ3migxeiOHwR4b4v9lEJnR0TLAP3vslH2JnovJCYBnAMo2lcubgeYxMF/Q1d+DelLTSGbSoH7uBGAX4vhZMJZGav/ioKZroxfcXpsaFWtGIpf8BUMrg6XAqWCozp8iY4nW3S8D24O5gZKI90AOWQUjOyQa0vq6kpNfJNrpq74MH/4EJul7MPG9Zl6uC9rQzExUHggqzoHexEHdj9WcAKSwZ10zUC0DrZgB+HywSqPQeyKo20hNnY46Mk215xBN7y4PRmcwps5/6gx2XsDG1kCj9xsy2JMJzXB8B+jcuR7kkJ9gZNpEQ+pcvwd2BdqjkkNWxMgfQa4ZD8V0l/4EZNGATq/KY7x5t/dDiVf139FBwsdunACUYNtFzUCTGYgmAA8lxBlNAHKO/r9K/L8GuTp/TT+vC14DqaL1d02zp4pG/drjodiqkMcxqqn7fYFmCFJkOpQPSTHQR/cE3mspINLh9THzydvVeXc+mOCTI2lv7g2qL4JetD9VQhT9zSYtA0QDDnJkNTNgBgoyoBHmDAXL9i32IR80oojK4kHFO4N6/dXUOZwOhvX/IvhZswjbgg+C+v3VNBpOTUxOw4YSkpdAlaJR90/B+uDtREc7oD97oo1e9Ut4sw54o/dA4ut66P8ejJdoR+rRBGAydOdM8B9dBkjxGc5YEuppVTNgBgowoPW9iDyOUkpnN1fEKTrRC1hfd7rt7ByQ40IuuwcDTYerI8whGv2vkmhI6+Dbg9RReZkwrqbw2uD1Mkr9ymqEvXe/Yykfr0d5VfBiipE+upvw/hQwTp9jkbfPovRMRBGdzwb1pPbvoG5SUuYZgCDrVjMDFTMwS9D+f4J6UpscTB/UT00AtAHuApBjKvcj7OwBDgA5Za9EY+ehn7MTLRPOTRRWJ6np5qh8A8Xo+dHI510cXAk81ejLwLFt0NGMR6pEZwFS1uOVuEfECUCENeuYgZozEE0AUqb/5wxyopFlykV8XvQvA0pAUkWjfXVUR6ca6qev5ZiN+x0r8/F2CmspItdsRBnfvWWv5c0Pez8EXidG52sBvcFU7udLbc5MOW/72leCtWffA4H30QQg+vtRiE8E4pSKE4AgcVYzA3VmYNZgcE8H9aSWMv3/UdCvbqm7AqiDTRV1rl8Hv0011EBfHd/4DY4XOaQNb9uBd4oUrrjMEdhXshWVraOKg+iN4ruVwaMghxyJka0SDN0X1HUCECTOambADIzNQHQGIGUknpIAjB19sU9TUkydUdRvXy/q/HcAp/U9mPF9ysj3MOKIrvFmrMLHppSofRdEnxOwJLoLf2wp75/RmFsF5EgCxsGOkkDte4hIdDQ+IuKsR0f1j4huz9TMTEjGDWlZyQyYgaoZiM4ApCQA0RHMgwEyJkTnYrB4QLe/Sm/nf3r/LzJ91iyFOr6IjEIpx7p0xPdAOo/wxXEDfVng+PoFykSK5EwCNFujPRdLBwKJJgDD8RXtU99G96VArFIJ78vItds2GHdXqWkDkdYmqxSNqFop0+B8O7AGmANMBCwxBqIzAK1YAijrUyO0U8HKMWrG0qq685czjSQVc0SORen9iGLFOpqV+DaIjB5XRa+qpKY3CbgOH3OBFJkM5UvBsuDREoaUROu8GreEjorqeqdnJjyvDwGRnkb0ZUW3DIu30uIEoDRlYQV1jkKnyleo2AlAJ6OldQy8nOB6hqDucyX1DqS8zpdU0XT2zqCqkX9vfCv0vin5+jrlTymp06zir+DofBBZ09emvQlAVYmNOrPVwE1gNpAiOqf/BJYDrxY0pHqpM56pYPm+xVISgOhvN3zNLZvh9K2o35uBXgZ25M3vQPhE7DXk12QGdGGPSnQGqcyIRx3Oj6IB9tPbh8+/7nesio+fDxrVFLSSgLpKNDmZhArlWLoZjJdRfKmZxDLn1kD2FuQLJTvjD1SgwfHoMkBkBN/rPvrbDV93nQD0Uu/XKAP6cR0PolOkUb/W+zQD73EoZad51QnAisR3MshxrhyCnSNB1TIxDnSOR+TKiFITdW7E1wtBfwsE9cqoaW+Jll+KjtwHs60ZhRMHK9Dvuyf7fS76UTMAUfEMQJQ567WMgR/iuUxm3bJAu8BxdATRS00kAdA0fJFOZF7KXQi0+S9VjsXA/qlGCurPSblhBcv2LTaGD3/pe6CG79V2twXjmj+oV1btHhTWB2+VVWxQ/usc+36D440ORTfkOQFoxKaPdSQD2kOyQUfWrD0r9UZC2NrAFOmcNWr5YAi/2vvyJ5AyPdrrQuv9u/d+aMKrEoCIaPQaHdFF/EV1bg0qzhfUi6jdgtImIMeeg8Ow86UCQWhXfkR0rkfltaCilmRC4iWAEG1W6mFgZl6nMBu1YeDdhEgio3+5G2rWQdeYP4AcHcbl2PkG0Mi1WaJzPCKPRZRaoPPPoM+UkW7E5dUobQdS217n4xlgMTCYRBMAJdJR0RJeRCaIKEnHCUB55lLWWMt7a45G9GQPn3jNqVbXeYleQETUVEG2PhxCbye+1/prqtyFgc3BUP5S/fTXjyZGo/obqunnF4Nx5Xhsc1nX56CwT1mlBuW1r+O3YLC9KK24JkZ/v+ElWCcADc6OIQ6NGuL7dvw6Olp5msoONf3bjny0a8zRC4jqG72gD9Uhfy8DmY9gQ+vAb2awVdZElJccu9fLxhop/1JECZ1Wzfwdie+jgzH3VVuSD6v0PdDvfXSgF1lG63UdXeIID8ScAPRSX/z1Gop2UqenzUpXFa/+WCX1I7l+rCP+0EoGUhIAPfgkIoMlANr4N1fEaB8dbTBcBzzX51gz30annMOjsmZWDl/RfSMaRbdKlFRqWSlV1hrEQHQGICUBiP5+nQAM0pC5v1LGrOmjTpEzqMizCZU5IkHXqvVhYLCOfLAoB9MbPphige80ItoA/KdA2aqKKEGOSPiiHHGWoDNZUDc6Qg66G0tNyeo2QJsDU2Sw87MVCYBnAFJas4m6++HroSb6q8rVoxjeO9G4ZkROTLRh9TwMpMzoDdaRDxbdYHrRC1qvP3WiS/d+aNFr9PazVk2Rl6Upuvcj2kGWjW+g8rPwxdwDfVnw+GDn52D7AwYzP9jvYTA9fRf1GZ2l8ibAoVpkgO+183l18LcBvm+Hw38nSG3Oiq4B9q3jd/lwfN8Dft8SBoYleI2OdAfTe4B4whennrpovXezhHqlqkbX8hdMddwk/XmCfqKbB4PuxlLTHQiXg8ijevsauq/vh37vo1P5KYlRdNlosESmX7XG/pgyYhjbUvd9eoIqLwO0y/l2MNiFkK9rIZo6+yv4Nvg8GAVyiLLe74DlwYWgFZu1cNv1kvJ7jo5cJhqEda3f3zjI90W+Up3OAisUKVxBmejy2CIVxFKFyYWCRnX9a4VMgtNLwfyJznUtvGgQG61IAKLLRuEEYLxBCPBXQzOgzYAn9UCjL2Wk0RMH1UpFG0y0kSp6oS8SnNbketflpuV99BaqIr46uczsVO76QAWjFxC5ip4XQ7Xxj7F9LUhJTpRk/BEowbwfNFOi+w80SlU7tqqjLMpRNLEaXdRBxnLqr34PNPBKFSWVDw1iJHodT9kb0fQZACcAg5wBJb8aQ/mnSup0cnEtLeRYXuhkjgaqW3QGJbqhS3FUlQDcgO2fgB/ISYJMja6mfZcDzfydqQNXe0S43Ri940BdRaNp8RmRf0WUEnV+if4GiTakrqRutyHsRO9yCvaefgAAOR9JREFUSFkCiCbw7w9RlwG/TsnKBzTqL8yAGUhiILrxLNJJ9QYavXAV2US2P07O63WU8DoHulcCzS41S7SH4R9BZ18O6jVLbSMcaXYlIvdElBJ0DkX3mwn6vaoalKwHXu09MMBr9JG+0d+Rwph8gFiGOuwEYCiG/L0ZaCMGdBHRGmVZSUkAdEGMXEjGR08jycFEddkW3DFYoYLfLUw5zQQ0c5f9TQVj61/sixwY3v9gjT5vF4xFezseCepG1PZB6QcRxX46WgbdFBRZ1okmmSkJQJFkul+VPv4YnTFMWpdrFIiPmQEzkM6ARp2RWQAlACm3EunCHpGh9gHIptZGNeIcBVJFG1gvAdFp2rL+by6r0FNeM6w5Oq6g+0HVluDbNQYtMfCX2tOhc7QZshNOtISUKor3G+DGgoamK1iuf7GUBKDI76i/P31+pdHBIse8BFCEJZcxA81nIJLVazQevYiohs8Hq1l0ulSbUNcHrwX99FVbiQ/ng+i6aV9bQ71Xhxe9sG+H7ghQNxlJQNFk8ZomVeZr+DkhIc6+YR7EB238KyrRGYBnizpoUC7623UC0IBMHzID7czA68Hgpw/qSS2aAAwv4fM+yn4ZRDcd9nW1Lh/OBMP6HqzgvTr/q4J2laDkGMEG3TdUW4ejGzb8ZuiDH1Dk4qGLJZfYCAungRyD1N9h50BQRmYuU7hPWW0ajUrRRLq/fScA/RnxZzPQ5gxotByRGSJKPTpRn3OV9Hk15XcpqTNQ8c354gxQdRLw+4ECKHB8C8poNFsH0TrzLxMCUSL0YoJ+EVXt9P8DyHGX2k3Y+Toos2QxEeUjCYCS2mdAVCI+5csJQJRx65mBmjIQnUpsxQxA2QRAlJ8Myo7KBmqqr/JF1UmARr3RPRKK+wQwQm9aKJryPxWMSIhB+lWKOv9cSzu6VVEzCdr8V0Y0ozVuGYWesur8dTt4VJwARJmznhnoMAaiI4lZEnho1gxAb4gjeXNS74fE16qTAHUipyXEOCW6unshZYYmwf3HqlqK2DjByGh09UCmqkTLErk6/8extTaIjI5HoBeRlOl/nR+TBJwq4Xg+oPexSiTLifqynhkwA8UZiM4AaPQSlYeDinMF9aT2baDHR+cQJQFngmE5jDWwcRTH3m1wvOihBSio5Y/oWm9RP43K/ZCD+zT6osSxYymbY+9GI5fq/M8DOTZ1aolCnf9TICLR8zklAYiO/nWdCLeJE4DI6WEdM1A9A9EZgJQE4IFgteYM6klNIxitj9+gDxnkK9g4G+ToSPqHozY5pf/Bkp8XpbzqOl9JvWhxraOr4z4kaqBHT3U/MdHGQOqb8UWuzv8tbK0PHhzIWYHjCxUo06jIk40OFjwW/d2mJB2hdY6C9XExM2AGEhiIzgDMkeDzEXTfD+hPhk6KX42qNwJ/D/hupKKNgVqzj0ypNrLX99jBfHi974HA+0XQuRNsEtAtozIrhf8CvlNGaYCySiDeHuC7lMM7oHwuyJGwfYAd3WFyB0gRJWkR0bJDVOYOKqYkHU4AgqRbzQxUzcCjQQcjgnpS01Tif4L6nw/q9arp2QDrgGi9e+30vsrWlUC73nPKcxhTEpAqU2DgAnAuGAFyyjCM7Qq0CW7FDIbvxcavM9jpb2JPDvwGKN5U+S8GlExon0WqfDZo4B9BPam1YtkhIdz/TYV9hIWy2DrB65kBf4pPIwKLGWgnBsYnWI1oyv6+VF4biqLyBxQjPn8SddhPbwSfR4NIDI107sHWjCCnaLQqu438RY69g62fgTlBiuic2QY8ACJxNNIZg60c/30PM2OJkqhG/iLH1PnvNJb1+IfZg3EphpRk86Kg3z3iVU3TPCUYsBOANN6t3T0MaDQeuSB+IYGiA4M+/5Lgs7/qvBx4OhhHI77+ja3oCKt/bL2fNUrU0kUjf9FjY7B3DVAnPhwUkYkotCo4Bmg3eNT3QHqHYzOnaLT/SzCQv8jx3TMGuHEwtkcSY9BsTaTu66X4HS9F2bpmwAxUysDDWJ8n4GFBdO4I6ElFo8eIfA6lcYFGQqmixGd1cB2YIdUY+tpwdxvYCNwOcsg/MfJ9cHQOYz02xN9qPdAhJUF3Ae1mfwm8DDT7oOWD2cECQImIkoAqROfQARkNa6/IOWD9jDb3w1bONlguGNu9QT2pqU11jkZEyW1L5BS8RjKWrROi9RJAAnlWbTsGtHs78hv7aUJNtQM64lM6SjxyymIYU8cXjae/njaxbZozQGxFr0n9Y6vbZ+36V5KRS2bB0N0gZz1H5gquj51bgzH+qI+Nsm+16TDCi2agNKMSFmWcFjNgBurJgGYAIqILSlQ0A6BONyJLR5QG0fk7360FtEEwh0yMEd1ups1nuWRHDKnT6CR5h8poKvyJTJXSLIVmXpbMZE9mjgAj9Saj6PyIxpgyAxD9ver6MCal/k4AUtizrhmoloH7guajFzG500jklqBfTdvnFk2Brw1ezWRY17yfg5PABBlsqrPUlPY/MtiqgwndBprjVrreumzIm5tBztmEI7Gn5ZfcogR2wqBRbQqNihKkiDwYUeqr4wSgLxt+bwbqxUB0VKF189kSqqILdkQ0Wq/imqLR42rgxUhQA+ho5H490NR0qryCAdVd+wLaWdT5bwH+nKESOg9GgovBFCCXHIyhvXMZ62dnzX6fi358koLapxGVpYKKDwT1sqidgpXIusXWCd7PDPrcPMGnVc1AKxnQw0UivzNteIvKsihGfErnC1GnBfS0x0AX2mhsjfS0c35lkEOmwoiSp0Z+6n7sDeLWTEsOmRwjF4Lcdc65IbFRPf8WjPnURsYKHlOipCWuCFcpv/GPw6siWy9YbxczA2agAAPRqUXtyo/K3Si+HVReJ6hXRE0jnlWBRly5ZHoMXQl2zmBQyxQaRf4ug61mmhiNsxXBFRmcLoyNO8EmGWz1mlDnuCc4qPdABa8zYXPxoN2/BPWkpqQ2OkOihCVJnAAk0WdlM1A5A9EEYPmEyDQV/Neg/rpBvaJquu1pJTCqqEKBchNQ5pdAGwSnLlB+sCJKnLYCewDxWHe5nAC1ZyR6nvWt34580Hkzf9+Die91W+ku4KhEO0Opa/ZjnKEKNfheyUlKArB0A5tFDj1HoVybNIv4+1QZLwF8ihIfMAPZGdgQi5HpQXVE6tiiotFWxO8Y9GaIOi2hNztlow9PGaxeo7D7xRJxDFZ0Ub78OxjMX6u+05T/riDS6aE2lihpUvKUuy5KoLYey1N1H/4YjD9138evg35z7NP4zHjV8dk1lueipl8FywBd+Oo6q6Ifp7JGZehnA91CklsmxOCXwDpgBJgIWNIYmCSoPjF6Wga4NaivC8z+AV2d/0pafhPQLaOi0c8KQJvMNH2dS4Zj6HqgBOgwMAZERXcGfB5oNuCHQGvjdZBLCGI3MCpDMJppOguIt5yiBEXXkqtyGh3AlvZurDXAd0MdvmaoAkN8v8oQ3w/0tZbpWiqn4D2S8W2dEHWdNgEOox6HA2WpER5aqaOYdStNzgRQF+NH25CLVrZD1b6/T3tERSNDrbVHYrwp6jSgpySzitGn6q1keZFATI1UZubgieBdEOE0h84d+F4Z5BAlpr8ASpByxNbXxjPY1LJEs2RbHPX1X+b9eglBzp7gd90Ev1lUTwkGv3WC97okALo4/j5Y/zInV9VlL6IOOWYslD2/1wF8VM13s+2njp5OCLap1m3nBs0SncPHgir41Xn9IzA+yCGzYkTJ90uginj721RbaJ1/VZBLNOOixzX395Xj84PYnTNXoAXtXBasi5K5yQr6aFRsm6DfD9GbopHBZh7r5gTgu8GGy/EDyW1jr8STZnr0X+4gPnLz20p779Au0SUEnRZrJLTrgTLQZNkHf+rwquBcm+S0pJJLNHPxVXApUDvljvl+bO4PRoBcoqny48EYkDte2dNy1bSgmTITzqKzuFp+SpFTUY7weGeK01y63ZoATAiBLwQbLtLYVeu8Ql1SOgktg1Qdo+3HOdZ+jKho1BtN7h5FVzNlzZZNcaj14yrOGXV8uu7NCHKKRpEbg6PAX0FkmUAj8nPALiD3CFozLN8Ez4EqeJVNze62Ys/Q9xPqtAW6UdFv42kQ4fPnUaf99XKuAfe33amfV6Ji03VQ5ZTVrwY0EonIlyNK1mkaA1qeuTzo7QP0/gy2CuirE9Jv5fqAborKhSg/DLSrewTIKeoIdwCbgYPAcUAcpcqbGNBosndEOYz34m8+oI3FSji0075XXuWNkhx1yEq0HgGvgSrkixjV8kpVa/JKqvYDPwPNFnXC3wg6VZtFr5lyuRTQvpCI3BBRyq2jTDiSvWydEIiyxIjPzRN89lfdLRhDJO5m6SgLjohmQ6qacm1W3Tvdj0aGKbIZylGOTktxnKirpSldKKOxF9ETt7qeqcPuNFmUCl0Eqvx9K5FZt4XErYLvIu3cqMzvEuMeGfSt9f++yWBSGMpoLeUYyEZ+ObeVlp4maF0JgLJoS30ZmIfQPpsQ3mXoapkoIluipDXWVoiW6VYHv6rQubg9A/wLqK6dcD1dkHqcC+4BG4Oqft8PYXsZoPOrVaLlkqhouSVF1gsq34Fe9Pf4KZedcMJ+qlI+0DQGXsdTVVOPTatEFzjaJKGO76CrmbeIKEH8bkQxk46m53cGmuZ9O5PNRmYW4KA6hH+CHcHEoN1keQL+A1AdNGNaZd+gZZovgAdBq2QuHEd/Fy+jm3KHzezoawkgIlkTpiobOVI567QfAyk/hParbXtGvGli2L9J0N8J3ckT9HOoarlyaXB/DmOD2FiI704CT4DDwWygzjIBwWkJ4y5wE9B+niqXM3RL5XeAlpU0/d9K2QPn0bpegK7uHIiKeI7OrGhPTjZxApCNyq41dFTX1rx9Kr4YoWq6OioaFd4WVJ4aPY3AWy33EcDnwalNCGRafOwLRoErgTrZlPvFUc8m6niWAyeAp8EZIDoaRbWwaL/EsuD4whrVFVT7bJ9g/tcJulLdIqj/JHp/D+o2VHMC0JAWHyzBgDqGo0uUd9HWMPC1RLcnJ+jvjq5uKWy1vE0AOwB1yNrFXbVohLkmUCf7LDgLaK+AOqBmyng4WwEcCtQR3wK0/t2sOM7Bl5IM7Suog2gWYtJgILeipxmTqMyJohLRiGj6XxsSayGnEEWj3ZFDHdOPLypnojiU/Ubfbx512EBvZDCGRnHV5dhPG9SzzCFd6I7tQF7q0j454tCFPzrtqHNBF0xN20Zj2UpGaiRzEcv1IFqfFL0P8Xs7OBCsDaYDOWUCjH0OaP/D+SCl3VLq+SK+vwLqJNrwnMJHdPTey8F+vIlyGt042Ov7U6/KDC1mIJWBMRjQZi9t7tkHrAZ0EbLUh4F5CEUbr9TxROQtlM4G6lQicgBK54IPIsoV6Oj++VXAt8FPQHREiGppUcKsthB65XHeaGT5MNB7YRTQRltx/wZQ4iCZAkwIpgQzgxFgeM/r4rwuClo943IxMehceRbUSfYiGPEWkSdR0jUuKuOguF1Q+RX0rg7qDqjmBGBAarJ/cTwWT8tudWyDyra/N/ahpn66Hm+CLk6zgamAJS8D82FOHXFENPsWTQDk7zjwLRBZOpwXPXUImimqi2gkpt+lplY1o7kyaJWoAxfaXV6iAt8F0XO0yvrPgHFN/0flRBRTEtgvoq/fb0QuQill42HE56A6+sHoB1QWughF5UwUy/pT+TosAWjqp2rZHQcRfn5adWC2n40BjSIeApF21ihiksRIzgv6VrwvgLomheJ1J6AOLMJtt+vogUHq9GcCdZWUZcq3qdR0iRWL9pk6t9ZM9N1QPZLJNzTkg2bADDSFAV0Mzgp6Uue7RVC3V+1Q3iiGiOgC2oxEOBKb6vQroBGaXscASzEG7qXYSuCroG5T/r010C2amoGKipIb7WmIyuQoRgeiSpyvjToeTM8JwGDs+DszUE8GlABEO2GNclNEF/s/JxjQ9PDwBP2qVTUDoI5CO7VvrtpZm9sXV7qb4HPgpprX5Sjiiy55a+9F6iypZr4nC3J0AXq9+z+CJhqrOQFozIuPmoE6M6ANbLcGA1wavSWCur1qh/S+CbxOhI5mEeou9xDgikCj2v/UPdgmx/cO/n4BNFuidfG6z5ZsQIxrgqichmLKOaDlpV2jztE7NUF3UFUnAIPS4y/NQG0Z0CxAVL4TVezRu4PXaxJsqFNdK0G/WaqaZTkHLAA0fZvSCaDe9vI+Nfg1mAdos/HLoO6iPS9HJwT5LroHJehLdXWwYNDGP9H7a1B3SDUnAENS5AJmoJYMnEtUujhFRB3wTBHFPjopswAaEWmdPTol2ieMprzVBjdtflwY7AhGg24SdfxqL3X8ugvkadAucjCBzpUQ7EnoPpGgL9WU0f9vEn0Pqu4EYFB6/KUZqC0D2tGvJCAiE6L07YhiH50beH95n89l345A4bCySi0u/wH+TwbqUDYEKbMgqNdenifCnwJ1/DuD1I4QE00V7U3YLcGjnr9weIK+VOcH6wdtvIfe2UHdQmpOAArR5EJmoJYMHJ8QlS7omh5NkT1RVqcYFSUhy0eVW6inNe9LwRpAmwXPBLpYd4rcTUW2BXOAfUG7dfyE/PGDyDR6HqYPQTkGveeCur1q+/Am2s9q89+LvYaqeI0GVkUstmkGzEA5Bu6i+O3lVD4pPS3vvvnJp9ibB1E7Iab6sZauP7pIT5xgo9WqaoNtgDpL3eFwG9DegXaTZwhYa+XaJKqR8xmgnZOag4h/MRAV7W/4WVS5R282XrdKsJHy2yrk1glAIZpcyAzUloGUWQCNTrQrP0UORPmFBAOaIk3ZT5DgOquqpsuPA8sBTZnvD+4DdZZXCe40sCaYHewB7gTtLqtQgb0TK7Ef+uInRTRDNkHQgDb+3RrULazmBKAwVS5oBmrJwHlE9WwwslnQS50F0EXygKD/XjV1PJv2fuiA10epg5KaRcDMQHcQaJngJdBK0dKFpvd/CrR8MSPYHlwN9F0nyFRU4jSQ0rep89XMVIrMhPK3EgwcnaBbWHW8wiVd0AyYgToyoB3a2pimEWdEvo+S9N+NKPfoSH8nEJ1yHQfdU8DfwSOgk0TJmZI0QevRSwBNsy/Z815JQnSUiOqg8jjf3gP+1oObeX0NdKroPDoNaDkmKh+iuCP4b9RAj94PeI3usXkK3fMT/RdSdwJQiCYXMgO1ZuCXRLcXiKylz4qeOu+UEYdGj9ptfR3QRTgiGrmpk9QUekoyEvHdLB3xpD0DQq+o818YzAlmB8N7XtUu4mRCMCUYH0wBxM074E3wAXgFaKPak0Cb9UYDdfz/Aq2ecSCEpsq+eNso0eMx6CsRTRElIEoioqK1f7VtreUUotNml7LYOqFWmkYr60/lNQWXS0ZiKBKD1pSqlt1xEIlNU4KW9mbgWMKPtL10XgDqZFJFF65oDL16v04NwvpdycAa1Fqj997zKPKq5GmyDOxp+SDiXzqaoZk6QwyFTKSskxRy4EJmwAw0hYGf4UXLARGZDiUtBaTKPhh4ONHIN9HfNtGG1buLgRFU92ygJZYU2Q1lzaykyCIob5dg4Hh0NavTFHEC0BSa7cQMVM6Apn9PT/Cii5+mnVPkLZS3A5rqTpGTUF4lxYB1u4YBLZP8GSiJTZE/oHxRioEe3SN5jSYiSj6OyhBDYRNOAApT5YJmoPYM/IQINQ0aEW1YOiyi2E/nFj7/vN+xsh+17q2L8WfLKrp8VzGg/RMXgoUSa609Eyk79nvdr8ObtXo/BF61l+fFgF5YxQlAmDormoHaMaDbz85JiEr7c76YoN+regBv/tX7Ifg6JXqXA22ospiB/gyMw4GTQepMkRLmr4FXQYpoQ71G/1F5G8XUxLm0bycApSmzghmoNQOHEN0HwQh1UdUaZHQKs9fte7zZBkTj6LUzK28uA03bFNXr2K+1Z+AIItQ5lioHY0CzVqmyGwZSZiL0u3s+NYiy+k4AyjLm8mag3gw8RHhaQ4/K4ijqtsBUuQcDOTYW6ha5P4LILY6pdbB+PRn4MWHtlSG0m7BxaAY7s2NjZIIdPXZYy3dNFycATafcDs1A5QwchIfXE7xoFmGWBP1e1aN4o93ZqbICBrTRa9JUQ9Zvewb2pAYjM9TiFWxo6j91w6pC0S24k+lNULT3RvE0XZwANJ1yOzQDlTOg+/pTRhTaWa0pyRyi2/ruzWBIa71XAD0Mx9KdDOxOtVPW2XtZ+y9vtgNP9B5IeN0A3Y0T9B9HV8/PaIk4AWgJ7XZqBipnQKPv0QleNkH3Swn6vara3KQLZI7dzctj51qg/2Ro6S4GtJykc1r7VFJFD2W7JNUI+lMC7dxPkR+h3LInXzoBSGk665qB+jKgi8oBieHpv9tNk2hD6hrlfBXkmG5dCjtXAScBkNAFog5fTypNmdHqS9NpfNAGwhxyDEZmSzB0J7o5lsjCIYwX1rRiWQZ2QGHVskoly89Rsnzu4sMwuDbQ/bDDwUTA0joGlODr8aLRUdNM6Gp68isgVa7GgEZeOS6+S2LnOrA+GA0sncnA+FTrV0DXzhyiTX857vdXLOuBbfUmKFqG+DbQa1vKKUSti0tZbJ1Q2zMD/hTf5gk++6uO5EDZOte9vDLsVNFF+R+g7nV1fOXbKOU32/e8UiJyesZz5BlsLdPXgd93DAPa66GZnly/10ewNV0mdjT79FRibEpsWi4aIVjMQCoDWpu9EfjJbalM1lNfSwEjMoSmi/k3wJUZbMmEZiiuAzlmKGTPUg8GZieMm8EamcJ5DTvarJdjH4qS2FNAyl0yiuOHoOXiBKDlTdD2AUxFDS4Ak7Z9TVyBgRjQZqczgJZ4UuUDDHwZ3J1qqEdfy0y/AwcBXZwt7c3ASoSvtfFcg4l3sLUpuB/kkF0wslGiIS2FvZRoI4u6E4AsNHa1kT2o/QxdzUB3VH4FqqlONoe8gRGtoT6Ywxg21PHvD/4AJgeW9mRA15JrwIyZwn8PO+r8r81kT0nJkYm2bkD/t4k2sqk7AchGZdcayrm/omtJbJOK70uc62aK9TnsrA4ezWRPZnTb4j1gaX2wtA0DStr0Pyx+AXJtTO+daboiEwvak3AeSNnY/Db6WgKrzcY/JwC0hiXMgP4b1/xhbSu2GwO6XpwF5swUuDZSrQxGgVwyN4ZuASNBjiULzFgqZEDJ2t1gy4w+xmBrG3BpJpuaYdK6f+q1Tvf8P5wppixmnACUp1HTSp0m0TpNDBH6cVi6h4GpqervQcpIqC9bT/BhVfBI34OJ7zWK/DG4EqRs1koMw+qDMKDkTMs2StbmHaRc2a/U+W8NdI7mkn0wlPpQrNuwcWyugHLZcQJQnskny6vUXmN0MELtrn0zqGu19mVAo7aTM4b/GLZ0J4luI80pq2Hs72DznEZtK5mBhbBwIzgIKFnLJer8dwDn5DKIndXBoYn2tBHx60DxdYycQk0+CkDZWVTORDHiM+cFYFZi0BpOJI666qRM6V7UYVzUtY3qGJcez5pTdEfJzaCKul6O3blzBmtbpRnQkuGPgWYcc7fxW9jcEOSUBTD2CkiNVXcOdJx0awKghtRu49SToi76FyeemSt3EBd1aZN2iUMjmg0Sz5/+6pNwQJ11FRy8jV2tw6ojsjSXgRVxdx+ool1fwO4ymaujhwZpvT413j9ioyOXSbs5AZiNRn0mw8mRenKl6uuHMwKkym8wkBqL9duTQ93St1TqCdRPXx201nCrOicewPYq/Xz6YzUMDMfsuaCqtnwU26mb8/rXfEIOaIkiNeansKFEoiOlmxMANehi4HGQepK0Sl97GXJduHXBPqONuWhVG3SK32dp+9zT6+Ni86iKzyntEl8cWPIzMBkmDwKadanqPNfdAzOBnKLzLkfyqdkx7R/oWOn2BEANqx3Rh4OnQVUneW67ulgfAaYBuWVjDN4KOm2PRO426ER7D9Hu0+c+obC3NaiyE9G5qgt+7lEkJrtStISzF3geVHme6/5+PT8gtxyHwRxxH5I7sCrspaxNKAHYIRDUNuhoM19EpLdVQHELdP4Q0CuqoqxxONAGwYmKKjW5nDbeaEpqFNBFr0pRcjEnUIJkqT8DCxOiRtsp1wPV8k6wGnhDHzLKkti6EOg3VpV8iGFdXw4Ej1flpIPt6pbgb4D9wMwV1lPXrsPASKBRdk75EcYOzmBQ/8RoHVD1dTZDqHETngGIc2dNM1A3BjRdm2PkcwN2NArMLVpL/QvIEeNgNt7HxzlgWWAZmgG1ywGg6hG/2kz/REcdaxWyC0bVYQ92bhT57jFsTFtFgHWz6QSgbi3ieMxAnAHNYl0EilzkhipzNXaqmAkbD7s/zxTjUHXQ938FmnHUHhfL2Axo1uiXQLffFeEytczt+JkDVCE7YjRH5/8OdpaqIsA62nQCUMdWcUxmIM6ANm7pwTmpF2vp/wlU1XF+CdsaDeaIs4iNZ/A1EswFulkmpfLbgVtAEd5ylTkWf1WdSztge0ym+myHna4RJwBd09SuaBcxMIK6vgByXLwvw47WhqsQ7f6+FOSIs4wNjUR3A1Wuc2O+NqJZlzWBrvevgjJcpZbVeahkryrZHsO5Ov/DqwqyrnadANS1ZRyXGUhjYCXUtRaeegGX/rVAMwtViUZwr4EcsZaxoU2DfwHfADOATpIJqcwa4FcgVzJYhluVPRdUyeuu2M8x7a9YzwNaQusqcQLQVc3tynYZAztR37IX7YHK34qtqSrkbzi21RkP5L/q4+pI7gVHgrVBFZsgMVupzI11bYTTrMqboGrOBrL/NL43AVXKDzA+kP+yxzUjVNUsV5UcJNt2ApBMoQ2YgVoz8FOiK3tBHKi8OshZKqztONj+DngdDBRDs46/SwzXgf3BekC3B9dJxicY3Vr5XaCR9pOgWdwM5uc04qjy1mGdIznP6UexNyPoSnEC0JXN7kp3EQO6YJ4EBrtol/nucWwtVDF/Wps/FYwBZWKruuzzxHMVUAf0FbA4mA5UKZrKnx9oVmJvcAa4B7wHqq5vGfvqSBVjlaJNhGeBMnENVvZZbM1bZcDNsK0NHhYzYAbMQCMGdAHcGUwBtmxUoOSxOSh/M9gI3FRSt2jxZyi4PdAtaseAZUEdRE9J1Lq60Fd069ho8BR4ouf9G7xqX4P2Yeg2O0HvdUwd2cRAyZmWVcYH0wIlE3oVZgNzAs24qFxd5RUCOxQcD5SUVCXiSQ+SWiWTg1exo4TlP5nstaUZzwC0ZbM5aDNQmgF1Mn8Cg42IynynTk/311ct6vzkpy5T3GU46uSy6ux/AaYBVYsSoftALj6VjC1fddDtYN8JQDu0kmM0A3kY0KjzepDrQio7R4BhoGqZFAcHAo3ccsZvW+X41GbJc8FcoBmiEX/Ouxg0C7NuMwJvBx9OANqhlRyjGcjHgJYC7gQ5Oz49K2DKfCEOaklTwfuDZj5EKCdX7WpLHf8VYBnQLNGG0A9ALs40a7Fxs4JvBz9OANqhlRyjGcjLgNaa/wFyXVhl5yGwGGiW6LkEewFt5MpZD9sam0+NmM8EzWxbzVT9NnO7qvPfEFj6MOAEoA8ZfmsGuogBrd3eDnJ2eG9j7+tN5lCdhUaKj4Ocdel2W9rEeBTQps9mygI4y52c6pbO9ZtZiXbx5QSgXVrKcZqB/AxoFH0NyN3ZnY5Nrdk3U7QPYQNwCfgQ5K5Tt9jTZssfgCrv5cd8Q9mao0o8cnKtzape829I9/+eDR0hWw0VFU0nRXxuHnVoPTNgBgZkQPeZXwQiv8nBdLQk8IUBvVb7hR7acwDwrECxdtXMze/AWkCJVLNlShzq+QaDnU+R73TL5crAMgADngEYgBgfNgNdxICeJXIaiFxkB9PRBq6RQPZbIePiVKO/C4A6ucFi7bbvtKnvBrAD0MbQVskqOK4iUdPekCVaVal28esEoF1aynGagWoZGAfzx4AqOsI7sLtQteEPaX0SSmwCNNJ8CVRRz7rbHEO9/wp+BOYErRTt3dBzBBRTbt4eweY8wDIEA04AhiDIX5uBLmPgx9RXo8PcF2VtxNK0vJ6C12rRjMRqQE+vewLkrmud7CnZOQdsDWYAdRBxryfwVcHTPdiduQ6VbIcYnAC0Qys5RjPQXAa2xJ2ellbFBfqf2G3mveRFmNPO82+A04FGj1XUu1k2tdRxK9Djeb8IWrGmj9uGokccnwqqSDDFr/ayaGOrpSADTgAKEuViZqDLGFiS+o4GVXRcY7B7Mpge1FFmIagtwHFAU+avgyp4SLWpPRb3AnG5I9Cad6v2W+B6QNFejK+D50BqnQfS/wm25cdSggEnACXIclEz0GUMzEh9bwYDXXRTj7+M7V1BHTstwhpL5uDTmmB3cBK4ATwPUjkooq+O8zagnfoHg+3BckD7Guoumu3J/eTJvpxpaWnbupNQZXzt8OOpsv62bQbMQDUMqONZFZwAvlGBi6mxqVG2Rq/7gstAXUWzIcJV/QLUbZSayZgJKGHSe70Kql//5yHolrfekapG8K8BzTC80ud977FRHHsUvAnaTWYn4EPA1mCcioJ/CrubAy15WAIMeAYgQJpVzEAXMqBO+n3Qd/SV+70u5P4vbe19ck1D+JqO116E3OdHX3vXY19JV9eLZwDSTwHdB7sh+AJQ5l5neYHg7gCXgFcrCFSjk5XAmmA2oBGOxQyIAY2A566QimWxfSPQffsHAW0YtLQHA7qG7gb0/xn0vipREnA40B0lY6py0i12PQPwmc/sRGO3433BLxP3tzOfqEti727QN9P2e/PRinNAF/fzwWLAUl8GtMzxY6DrUdXnyYv42ABYMjHQ7QnAkfBY9Ulbtf1jM50Lq2LnrQ7go2q+bb+5vxndMnYx8NIAJNRINFN6GNB+hWb8JrT3YhZgychANycAX4HHZpy4zfCxbeI5oR9zO86CNINb+6jP70RLX1sAL3sm/uAT1DUjcyrQ7vtm/Dbewc8eoKqNhJhubxm3vcNvSfR6OIbWkTpF9NCPCRIqox3Y2rxjMQN1ZmBpgvs9eBj8EPiJb5DQBBkfH5uAa4GeO7AdaMbeIO0BUZsfBZRsWBow4ASgASlDHFqO74cPUaadvp6VYFcMBqzzZ8ugrtXMQCsY0G9Xt5g9DrRPYA3g6yAkZJZ5sKeB0mhwIVgFNEN0t8mB4HPAG0GHYNzTYUMQ1ODrTtxYtDj1vKZBXYc6NAMFfDvNUCz5+zoyoJHpZj14gtezwVngX8ASY0Cb+jYFXwMrg2ZPvevJi18HbkNIKCLOfIuwNHaZacf+2BGfpgvWospbdoIhWc0MlGZgdjS+DzRivKfn/Xy8WoZmYDKKaE/UJeBZ8Bug0X4zO389N2BPoNlZd/6QUFQ8A1CUqf8v18wT+/+9VvsuWqdnCEvra1H9amtl62agPAOaDRP0QBp1JheBP4K/Aa8lQwKiZUPdUrcRWAU0Y00fNw3lDxzdC2gWx1KSAScAJQlz8bEYeINPd4HPj3XUH8xAZzCwCNUQ9gd6dv9V4MqeV33uFpmYiupWytXA6mBJ0Oqk/x/EsBu4HliCDDgBCBJntU8YOIF3p33yyW/MQGcyoP0uW/VAMwEPgJvBTT14nNdOkSmpyDJgWaANwnqdCNRBdMvxSPAr8CGwJDDgBCCBPKt+zMCZ/NWFcXXzYQa6hAGNfhfqwY49ddZy2N1ASwV6vQe0w7S0OvtFe7AEr18Aqlvd9ofpQWNHg5+B14AlAwNOADKQ2OUm9LS1zcFFYKUu58LV714GZqbq6/egl4XXefMg0GyB8AjQTIHQzCUEjd5nA3ODeYA2OM4LFgQjQJ3lA4I7GRwMtMnQkpEBJwAZyexiU69Qd91PvRPYA8wJLGag2xnQXTJL96A/F9q5rkTgxR6oc9M/69K+GiUOelUZjXz7yqt8kF2N0LX5bhIwAZi6B9P0vE7Pq+5uUGISvcsH1ZaJOv6zgTp+JU6WChhwAlABqQOY1Ml88QDf5Tq8Loa2y2WspB39YI/rgUYYcwBdlCxmoGoGZsXBLkCj2nYRddwagVvGZuBdPv4WaKp/FLBUyIATgArJ7WdatxSd1+9Y7o+6ENZBHiIIwWIGmsXAsTjaEHwPLN8sp/aTjQHNeGhj3y+Ap/qz0Tq4obpt9Bg8Wn9rBsyAGWjMgPaiaIZtBbAUOBN4lzgk1Fw0vb8vGA72Ae78IaFZ4gSgWUzbjxkwA81i4G842gZoKeoooFvHLPVhQLdRXgnWA2qjnwLtI7I0mQEnAE0m3O7MgBloGgOP4WlPoKWxL4PLwBhgaQ0DT+L2MDA/WBuoPTRzY2kRA94D0CLi7dYMmIGmMfAens7vgXbFbw52AIsCS7UMiPurwRlAtwp7WQYS6iKeAahLSzgOM2AGmsGAHthzDFgMaLPgCUAjU0s+Bt7H1J/B9mAmsAHQBmh3/pBQJ/EMQJ1aw7GYATPQTAZuwZnwHaCNgxuDjYCe/28px4Bu37sGqKO/BOh5BZaaM+AEoOYN5PDMgBmonAFtSrurBz/idW6gZEC3FS4HfJ2EhAbyMMeu6MF1vL7doIwP1ZgBn9g1bhyHZgbMQEsY0K1pP+/BpLx+EawIVgJLgwlAN4pu0bsJ3AjU8SsBsLQxA04A2rjxHLoZMAOVM/AWHq7qgZzpX+MuC5QMbAI+CzpV9HCeC4A6/JvBf4ClgxhwAtBBjemqmAEzUDkD7+Dh2h48xetJlXtsnQP9AyNt5LN0KAO+C6BDG9bVMgNmwAyYATMwGAOeARiMHX9nBsyAGcjPgGYNRoJpgf5TnzBDn89aZhgGpgAS7UPov++g98l52n2vWQk9UKf3Pwu+1Of987yfHWgK32IGxmLACcBYdPiDGTADZqByBj7AgzbUNeu59/oXwRYz8CkGvATwKUp8wAyYATNgBsxA5zPgBKDz29g1NANmwAyYATPwKQacAHyKEh8wA2bADJgBM9D5DDgB6Pw2dg3NgBkwA2bADHyKAScAn6LEB8yAGTADZsAMdD4DTgA6v41dQzNgBsyAGTADn2LACcCnKPEBM2AGzIAZMAOdz4ATgM5vY9fQDJgBM2AGzMCnGHAC8ClKfMAMmAEzYAbMQOcz4ASg89vYNTQDZsAMmAEz8CkG/CjgT1FS2YGNsTyiMuv/M1yHf026BKGsCWYD/Z9f/r8o/dcM1IuB5wjndvAX8F69QnM0ZqA6BpwAVMdtf8tLc0DoVJmPiv0KrNKpFXS9Op6BJ6jhHuCCjq+pK2gGYMBLAD4NcjCgxEYjKHf+Odi0jVYxoP+adx7Yt1UB2K8ZaCYDTgCayXZn+tJ/GrsYTN2Z1XOtuoyBcajvYWDdLqu3q9uFDDgB6MJGz1zlvbE3c2abNmcGWsmAkoCfA71azEDHMuAEoGObtikV0wXya03xZCdmoLkMLIC7pZrr0t7MQHMZcALQXL47zduMVEjrphYz0IkMOAHoxFZ1nT5hwAnAJ1QUfvNh4ZLtU/CDYKhTBPWsZgbagYGp2iFIx2gGogw4ASjP3DPlVWqv8XQwQt0//VFQ12pmoO4MPFv3AB2fGUhhwAlAefauK69Se41onV6jZvfWvnYO0AzEGLgxpmYtM9AeDDgBKN9Oj6JydXm12mroIvdAQnR6+I/FDHQaA5dTocc6rVKujxnoy4ATgL5sFH+/O0XfKF68tiXfJrLvJEb3W/RvSbRhdTNQJwZeJxg9EdBiBjqaAScAsea9H7VNgabA21WUwHwJ/COxAtoUKS7uTLRjdTNQBwZeIYhNwL/rEIxjMANVMuAEIM7uNaguCc4F0V30ce9xTcWqx50qdk1z5pDnMbIS2B+8lMOgbZiBJjOgfwJ0NtDv4tom+7Y7M9ASBvzPgNJo136ALcGUQPcMTwvqLOqc/wZerSDId7B5CDgciItZgc8vSLDUnoEXiFC/i9drH6kDNAMZGfAFOg+ZWgrwqOF/XI7h5a95aLUVM2AGzIAZqIoBLwFUxaztmgEzYAbMgBmoMQNOAGrcOA7NDJgBM2AGzEBVDDgBqIpZ2zUDZsAMmAEzUGMGnADUuHEcmhkwA2bADJiBqhhwAlAVs7ZrBsyAGTADZqDGDDgBqHHjODQzYAbMgBkwA1Ux4ASgKmZt1wyYATNgBsxAjRlwAlDjxnFoZsAMmAEzYAaqYsAJQFXM2q4ZMANmwAyYgRoz4ASgxo3j0MyAGTADZsAMVMWAE4CqmP2/9u411LKyjAM4MmUlZoL1Ic0oJyoMQlPsRhhlJZJYgRYFNRBJDFQfCrr5oasQUVFEFETRdDUoNJSScqCiDCqmki6OZNEFC4yxtDHTcfo/cPYwhnPOzLvW2nutvX4vPOx99jnPu573tz6sZ5+99lrmJUCAAAECIxbQAIx45yiNAAECBAgMJaABGErWvAQIECBAYMQCGoAR7xylESBAgACBoQQ0AEPJmpcAAQIECIxYQAMw4p2jNAIECBAgMJSABmAoWfMSIECAAIERC2gARrxzlEaAAAECBIYS0AAMJWteAgQIECAwYgENwIh3jtIIECBAgMBQAhqAoWTNS4AAAQIERiygARjxzlEaAQIECBAYSkADMJSseQkQIECAwIgFNAAj3jlKI0CAAAECQwloAIaSNS8BAgQIEBixgAZgxDtHaQQIECBAYCgBDcBQsuYlQIAAAQIjFtAAjHjnKI0AAQIECAwloAEYSta8BAgQIEBgxAIagBHvHKURIECAAIGhBDQAQ8malwABAgQIjFhAAzDinaM0AgQIECAwlMDUGoCDjRDbGvOkESBAgACBtRSYWgPw78a9cHpjnjQCBAgQILCWAlNrAPY17oVLGvOkESBAgACBtRSYWgNwS+NeeE7yXtmYK40AAQIECKydwNQagJs67IHPJVcT0AFQKgECBAisj8BDJraUPan3n4lHNdR9QnK+lnhT4urEnxP3JwwCBAi0CJzTkiSHwFgEptYAHAjcdxJd3sk/N/kVBgECBAgQmK3A1D4CqB21a7Z7y8IJECBAgEBPAlNsAK7P2m/uaf2mIUCAAAECsxSYYgNQHwNcOcu9ZdEECBAgQKAngSk2ALX0LyVu7MnANAQIECBAYHYCU20A6uz9NyT2z26PWTABAgQIEOhBYKoNQC3914mdPRiYggABAgQIzE5gyg1A7awvJN5TTwwCBAgQIEDg6AWm3gDUSt+beMfRL9lfEiBAgAABAuvQANRe/FBiR8I5AUEwCBAgQIDAVgLr0gDUOuvjgPMSvh1QGgYBAgQIENhEYJ0agFpmnRhYl/l9XWJvwiBAgAABAgQeRGDdGoBa4sHErsSZiZcm6gZAdQMhgwABAgQIENgQ6HIzoHsaFY9vzDvWtLpi4HUbsS2PZyeentieeHTipES9bhAgQKBF4IwkuSNgi5ycUQh0aQDualxBy618Gzd1KK2agZ9txKEXPSFAgEAHgcuT+5kO+VIJrFSgy0cAdzZWXu/ADQIECBAgQGCFAl0agL821v2MxjxpBAgQIECAQE8CXRqA1lvynpvaT+6pftMQIECAAAECDQKraADqvINLG2qVQoAAAQIECPQk0KUBuD013NpYx1uS5wz8RjxpBAgQIECgq0CXBqC2vbuxgKclry7WYxAgQIAAAQIrEOjaANzQoeb3JffEDvlSCRAgQIAAgUaBrg3Atdlu6/UATkvuFxNda2hcujQCBAgQIDBfga4H3zr4X9OB72XJrdv5GgQIECBAgMASBbo2AFXq5zvW++7kvz/RRy0dS5FOgAABAgTmIdDHQbfOA/hpB67jkntF4hsJ5wR0gJRKgAABAgSOVqCPBqC2deXRbnCTv6uPA36XqOtrd7lHwSab8CsCBAgQIECgBPpqAOo8gBt7IK0TA+vmGr9IvD6xihsHZbMGAQIECBBYb4G+3mkfDNPORH0U0MecdZ2AzyY+vTHnnjzuTfwr0fqtg6QaBAgQ6E3ArYB7ozTRKgT6OFgv6q537R9PvHXxQg+PVd+zN6KH6UxBgAABAgQIlEBfHwEsNN+ZJz9Z/OCRAAECBAgQGKdA3w3AvVnmaxJ3jHO5qiJAgAABAgRKoO8GoOasGwRdlNhfPxgECBAgQIDA+ASGaABqlfWNgPpPwIH6wSBAgAABAgTGJTBUA1CrvDrxisTd9YNBgAABAgQIjEdgyAagVvmtxIWJffWDQYAAAQIECIxDYOgGoFb5g8RZiT4uFFTzGQQIECBAgEBHgWU0AFXinxLPT3wkcV/CIECAAAECBFYosKwGoJb438TbEucmfpQwCBAgQIAAgRUJLLMBWCzxl3nyvMTLE13uIriYzyMBAgQIECBwjAKraACqxLp3QH1L4LzEBYkvJ1w3IAgGAQJrL3DyklfYur17llynzS1ZoM97AbSWfkMSKx6ZqAsIvTDxgsT2hEGAAIF1E6i7ni5zPK5xY3XzNWONBcbQACx478yTqzaiXjsl8dSNODWP1SC4PXAQDAIERiHw2FRxcUMlpzfkdEl5fGOyBqARThoBAgQIrLfAk7K8+jizJZ64RJrdjTV+cIk12tQKBFZ1DsAKlmqTBAgQ6FXgD5mtvt3UMi5pSWrIqf+k1knXLeOWliQ50xHQAExnX6mUAIFxCRxIOXsbS6p7pRzXmHssaa/KH7d+1PubY9mQvyVAgAABAnMS+FQW2/IRQOVcOjDUiZn/tsb66pyshw5cn+kJECBAgMBkBS5L5a0NQP2L/eEDrvwDHWr79oB1mZoAAQIECExeoL5j/59EaxPw9eQO8VHAizPvvR3q2plcgwABAgQIENhE4Jv5XWsDUHlXbDJ3y6/OTNIdidaaqnF4TMuG5RAgQIAAgTkJ1GXNWw+2i7yPZY7Wk/UOt74gP/yjYz11G3eDAAECBAgQ2EJgW35f3wZYHMxbH7+bOc7YYltH+vXD8ot3Jbr8239R9/lH2ojXCRAgQIAAgQcKXJ4fFwfQLo91/f1PJE574PRH/KkO/K9N/DHRZbuL3B9nHmMmAkOcfDITOsskQIDAIYHj8+xXiacceqXbkzog191Sr0nclLgt8bfESYm6BPETEhcmXpKoy6T3MWqb5yd+2Mdk5iBAgAABAnMReFEWungnPcXHr8xlR1knAQIECBDoW+CrmXCKB//bU/epfWOYjwABAgQIzEWg7lh6a2JqTcDQVyWcy/63TgIECBCYscAzs/b9iak0AR+d8b6ydAIECBAg0KvAxZntvsTYm4BrU2N9jdEgQIAAAQIEehJ4Y+a5PzHWJmB3ajuhp7WahgABAgQIEDhM4NV53sfFefpuIq5LXY84rE5PCRAgQIAAgZ4FLsp8+xJ9H8Rb5/tkanGr3553sukIECBAgMCDCWzPi3sSrQftPvLuyvZ3JAwCBAgQIEBgiQJ1s5+3J7rcPri1Efh+tvvkJa7VpggQIECAAIH/E6gD8VWJZZwgeHO2c1nCZd+DYBAgQIAAgTEInJUidiXuTrS+sz9SXt1HYEeij1sMZxqDAAECBAgQ6FvglEz45sT3EnU3wCMd1Ld6vd7tfzhxTsIgsKWAfwttSeQPCBAgsDSButvfsxJ1ED87UbcFrqjXF6OahL8n/pL4beLniXrH//uEQeCoBf4HRl5RghSP+IAAAAAASUVORK5CYII=;" vertex="1" parent="1">
          <mxGeometry x="591" y="-1022" width="52" height="52" as="geometry" />
        </mxCell>
        <mxCell id="izE_Z0ZMzIlTIWPwhQTC-3" value="" style="shape=image;verticalLabelPosition=bottom;labelBackgroundColor=default;verticalAlign=top;aspect=fixed;imageAspect=0;image=data:image/png,iVBORw0KGgoAAAANSUhEUgAAAgAAAAIACAYAAAD0eNT6AAAAAXNSR0IArs4c6QAAAERlWElmTU0AKgAAAAgAAYdpAAQAAAABAAAAGgAAAAAAA6ABAAMAAAABAAEAAKACAAQAAAABAAACAKADAAQAAAABAAACAAAAAAAL+LWFAABAAElEQVR4Ae2dB9wdRdX/g4TQm/SahA6C9CIihCYogtKRLiKoYAEVFCwRy4tU0T+iKL0LiIDkVRAI0kGK9J6HFjqB0BLa+//9Qhb3udl77+6c2d2Z3d/5fM7z3Lt35sw539ndmZ2dnZ1uiEQERKAogemQYQT0Y1N1afxfELrw1P8z4f8s0BmhlAnQd6EvQZ+BPgV9Eno39C7oQ1D+3gaZDUHODJ0e+gp0ElQiAiJQAwGeyCQiIAK9CXwEP68JHQVdD7ou9KNQX8JG8FboNdBrp+pb+B+rLAPHyWjZqboc/rNzNCe0UxgnOwLPQdkRenjq/+QzO00SERCBEgioA1ACVJlsBIGhiOLT0C9At4TyCr8qeQMF/R16EfRS6ERoyDIrnCOjTaGbQBeH+pKXYYidggehHC35N/R26GtQiQiIgAiIgAh4I7ACLB0J5VD9/wWgr8OHk6G8og5JePHA0ZCToOygVMnqPZR3H/R06DehZMNbLhIREAEREAERKEyAV6686n4fWmVjVqSsO+DbjlDeP69LeDuEPtwLLeJ72WnfgT/kcwx0CyjnGkhEQAREQAREoCuBz+CX26BlN1A+7fP++B5QNsZVCa/4t4FyGN5nLGXZYofgOuho6Kegw6ASERABERABERiyFhhcDS2rAarCLu+Fb1RBXS6JMq6MnBVvpYyB7gddGCoRAREQARFoGYG5EO8JUN5HrqKRrqKM8xFLGZMUeavhQCgnJVYRR1VlsO6vh34HOhIqEQEREAERaDiBrRHfeGhVDU2V5fBxuT081t98sDUWWmUMdZXFW0CHQPm4okQEREAERKBBBDhD/ERoXQ1MleVegDiznrcvUp2rIPEAtEq/QynrTsTNJwvmgUpEQAREQAQiJvAx+M5HxkJpYKrw41HEu4ZjnXGiH++XV+FnyGVMAoNzoVwLosrJlihOIgIiIAIiYCXAk/cEaMgNTVm+sQHbtSDAnZGes+fL8ilWu0+ByeHQJaASERABERCBwAlwGJfr68fa6Pjwm2sa/DBnPe2FdE2aGOmDX6cN8uFaEVzxUKuoAoJEBERABEIj8GM41HnybvP348GjV4O1FX5ve2ep6P7xHzDbAzoMKhEBERABEQiAAIdqi57M25D+d+CS1QngXIE3xcx5n3ka7H4A/ShUIgJREcg6IUQVgJwVgRSB0fj8k9T3sj/y+XguP3srlBMNx0GfhPKRvFehvKqmcFnaeaFcgGY49OPQlaHrQOeGViXsBHAhnET4qB9frrN4sqHk/+xovQLlGwCHQrkmQ1OuoLkvnAw9BjoAlYhA8ATUAQi+ilrn4AyIeFEor6j4+N6MU//zKjVpPCbi83go78kmsi8+/D75UuJ/vpnuL1DeC+ZiMpw05yqcXb4ilMsRc42CtaBlH5OcE/CLqeUwBk6ULENYN3y+/p/QG6B8m98ANOkU4eMUmR1/l4Yuk/qffK6yczTFGQ9/3oaNP0HJeLwHezIhAiIgAo0jwIaOJ/pdoL+GXg0dgLKB4JViP52ENLzqvhj6B2jefP3sZv3Oqzt2LtaBlimcZf5zKBuOLD98bOPEQDLnSIAPe502HoXdQ6CLQK3CUZP1oQdAz4KyE0H/O8sM8Ts7rEdDOcoiEQEREIHWE+BQOJ8zPwn6DDTEE3fapxfhYx33d2dEuftA2Zim/fH1eTLsslPjyx7tDEC/DOXQfpnCRY42gh4EPR/6NNRnHL5tvQb/fgbl7Q6JCIiACLSKAIe5ecI+A8qrIt8n2DLs0U9eibOxqVOGofBvQzmnoIw4fdjkyAuvdHm7pi5ZHgXvD70IOgHqIy7fNl6GXxwZqZMTipeIgAiIQPkEZkYR34A+BvV9Mi3T3j/g75LQkITDyOdAy4zbxfaz8Gm9kEDBl+mha0PZ2F4J5T15l9jKyjMAf7aFSkRABESgcQRmRUTfhz4HLeskWoZdXvV/BRqy8PZJKFe4d8CXxUKGNdU3TiTcA8q5Inz6oIx9x8XmFfBlBahEBERABKInwEl9nFz2JNTlhFhnngfgM2fjxyAj4eRt0Dp53YryY7ynPTv83hH6Z2gI7zvg6AQfG5wTKhEBERCBKAl8DF7fAK2zUXIt+yr4zavEmISjLH+FusZsyfcflBtj499Zv7xFtR10DLTMJ0jysOatlD2hZT8CiiIkIiACIuCHACf4HQgNaWg1zwk3SXMufOdEuxiF97rPgCaxVPGfT0VwBKJpsigC+iG0rKcu8tbNv+DD0k2Dq3hEQASaR2ABhMSr57wnt9DSnQffy35krexap/8XVVQHfP5+87IDqtk+r8A3hLJjVdcTK3w8k09+sHMtEQEREIHgCKwJj56Ehtao5/WHw76xN/7JTsE1Ay6voC5OSgpsyX/eFuJk1rrWGbgWZWs0oCU7m8IUgVgIcKJfrEP+7CDwHjYngzVJOCfgFmjeDlDRdBz6j22ehK/65S2iPaDcb4pys6bXaICvWpQdERABM4H9YIFDwdYTW135X4HvTbyHzYpdCPoEtAy2XA2x7cLbA5tCuU5E1ceARgPavvcpfhGomQCHQ8toXKq0+cWaGZZd/FoowPfCNy/B5mxlOx6Z/Y/D3wuhVXYEuKQwR98kIiACIlApAc70r7KhLqOs31dKrL7Cvuu5rn5TXyjBl7w6POR8kjL21242/4jy+AijRAREQARKJ8CrjiqvdHji4xyD+6FjoVdAebXF/3xM6jHoZGi3E2TW9rOQfgZoG4Szx2+CZnFw2bZKG6AZY/wk8o+FuvB1yXMXyloOKhEBERCB0ghsDMu+h5SzTnh3opxfQbeGLg7tJ2zkloVySP//QR+BZtnlc927Q3n/tk2yKoL1sbjNQJugeYiVcwRuhmbti7638ZbAbh58lgkREAERmIYAF0d5Hur7xJXYexC2D4EOh/qQJWGEoxUHQPeC8lFFdhTaKlznIGHt+v9PbYVniJudTTbM46Gu3Ivk4+OZs0AlIiACIuCFAIfLb4AWORHlTXs97G4BbdtVOUKuVDh0n7dOuqVjR0riRmAOZDsSWsUIWiwvZnIjqVwiIAKVEuBwfLdGwXX7w7C5VaVRqDDeK3atL+b7hBCaCfBe/eVQSz3kyfsMyljb7K0MiIAItJoAh8593D9OTlq09UsoV6yTVEvgpyguqQeX/x+t1t1Gl7YNohtnrI9+dcjJs5wXIxEBERCBwgSGIYf1qjF9knoK9jhDWlIPAd5qSddHkc988qPNcyjKqDGup3A8lGyL1EWRtLTNjp9usQGCRAREID+Bg5C0yMmmV9rrYGvB/EUrZQkElobNXnXU67fXS/BHJj8gsCH+PQbtxd/6GyeBzvxBcforAiIgAr0JcLh3AtR64mH+S6E6+QBCzcI6da1PrgAoKY9AFaMBt8J9dcLLq0NZFoHGEDgKkbg2Ful8fD0tnyKQ1E9AHYD666CfBxshQZmjAQ/B/vB+Tuh3ERCB9hLgVQInEKUbcpfPY2FjJqgkDALqAIRRD/284GjA6VCXYy5PnidhWysH9qsF/S4CLSVwGOLOcyLplYar7s3dUn6hhq0OQKg1k+3XXtjMVwD3Os5cf+OiXqtlF6utIiACbSXAK3brin8cPdDJJbw9SB2A8Oqkn0crIsF9UNeGvlc+vg57/X4O6HcREIH2ENgTofY6aeT57eD24IoqUnUAoqquD52dFZ/KuiXwJmx/9sOS9EEERKDVBK5A9Hka+W5p/o38Q1tNMNzg1QEIt27yeFbWLQEuT7xdHgeURgREoLkE5kNo70C7Ne55to9qLp7oI1MHIPoqHLIyQngcmudYLJKGnQAtzR3//qEIRMCZwNeRs8hJozPtJc4lK2MVBNQBqIJy+WUsgiI40tZ5/Fm/T4LNTct3XyWIgAiESGAMnLKcRNYJMSj59CEBdQA+RBH9B07WPQtqOV6z8vKpgw2ip6MAREAEChHgfftXoVknhTzbbilUmhLXQUAdgDqol1cm1/cfDeV6/3mO0bxpeB5YCyoRARFoCYG1EWfeE0RWur1bwinmMNUBiLn2uvu+G37i8H3Wcem6jUs/c76BRAREoAUEDkKMricLTiCapwWMYg9RHYDYa7C7/xvhp9egrsdwVr7nYE8rBnZnrl9EoDEEzkAkWSeBPNuubgyFZgeiDkCz65ejeLxyz3PM5k0zDvYWaDY2RZcQ+EjyQf9bR2B5Q8TXGfIqqwiIgB8CN8PMp6BP+zE3xcoI/P0blIsRSURABBpIgJOJLMOHWkksjp1CIwBx1JPVy5Ew8Ag071V+nnQXwJ4uEK01o/wiECCBheBTnpNAVhrOQNb9/wArNcMldQAyoDR0E9cKuA+adcy6bvtVQ1kpLBFoNYGVEL3rSYEThSRxEFAHII568uXlvDB0F9T12M7K9xVfzsmOCIhAGAQ4gzjrYM+z7e4wQpAXOQioA5ADUsOSzI94fI4E8IkfrRbYsJ0kCUf3eBIS7frPhsFVXnTNqHwiIAKlE3geJWwGHfBU0gywcz5Ujwd6AhqSGXUAQqqN6nzhsqKu8hYyzp1SVzvKJwIiUA6BJ2F2E+h4T+bnhB1OCtSTAZ6AyowI1Engiyg8z3B/njQcIuRjSLdB/ww9DLoTdCmopF4CugVQL/+6S+ejvhwRyHMc50lzZt0BqXwREAE7gR1gIs8Bb03DKxB2CvaGanERQKhY1AGoGHiAxa0Cn16GWo/lJP9XA4xRLomACBQg8HWkTQ7oqv6/hzKvh7LsuaA+ZWYYmw/KWxOW2xs+fQrBljoAIdRC/T5wsSBf7w6gnTXqD0keiIAIFCEwBxLvCy3jveJFOxFvwo/Tobw6ySu8D/lZ6MHQs6B3QjkhkbcgOsufjG0PQy+H/ga6K3RpaNtEHYC21Xj3eHkM+HqL4GOwxc62RAREIHACXLTnZ9BXoJ0NZd3feUIaA10PmiVc4ewA6D+hWQ19Uf/Hwc5x0A2hXA2x6aIOQNNruFh8o5G86DHTLf2lsNWGY6gYYaUuTGBG5Fgfugt0WyhfSakdCxCMMhvy/xw6EdrtIA5p+1/gJ6/SWfefhvIEw9sGZfn4CGx/H8rFU5oq6gA0tWbd4uKxxYl8vo6pg9zcaGUusueI53ZQtnW8LcO2r7XCK9Njoa9BO3fIAWzjZJPpoZJiBLijcZb/U9BOrqF/51U+G+Yq/eT+dziUcwiaJuoANK1G7fGw0fkX1McxxvkAH7e71GgLQxEd5z09Du1kznPP0VAep60SLkU7AO0E0vn970jDe7+SfAQWQzIOl3dy1Pf+THiL5JvQJnU61QFAhUqmIcCLL86R8XFeuAN2hk1TgjaQANuuf0D7cR6HNGwTWyGLIMqnof2gJL/fjLTqBPTfNXZCkgkFuCZ89X/wvsgTWlMORnUA+h83bU2xAgLPGn11OR/wVqNkMAG2WWy78vJkm7jwYBPN/HZhASgJPM5c16zT7P2Bve8/ODBN2Or/tAcpn1JowvPO6gBkHzPa+gGBnfHPx/H/DuysLagfEuATVzdCi7L984cWGvphGcTl+ijK9cg7e0O5uIY1PzL6up9XdGdtQ/r/B76cUxGrqAMQa81V5/fvUJSPY/kB2OF6HG0XtlFsq1yYsm1cqskA+UiXC5gkz7XIz9ntkiFDlgSEcdCEjf6Xw+L7Ee9s6gBEXHkVuc5JgbdCfZw/+Ihtm4VtE9soC0vOQ2qsHI/ILHCY9zpo2zsBy4NBkXkUVuZtzj8JrBeHxijqAMRYa9X7PAJFvgy1Hud8bHdDaBtlFgR9FdTKsNJO1Ecqrik+EmGVT8LApVACb6Nw8s5YaCsmjARQwbxC2icAP+SCCJRFYACGd4ey8bII25M/Qtu2HDfbosugPjo/M8BOZVJ1B+ApT5GNgp1LoG2757QoYv47lPf+JdUR2Ki6olSSCNRC4G8o9SgPJfPW5Pc82InFBNsgtkWjPDn8hCc7QZr5BLyyDpGk818Oe23pBPApiHs880uz7Pz8IMo6DXoodCfoGlAuljM9NBE+6sIDfn3ovtAToHdD34d22ov5+3jEE6PoFkCMtVafzxzt4vFrPVbfgI3h9YVRWclse9gGWXml869Zmfc1FXSTZ2BcaKHpQ04cqflfz9zSOx0/T4byKmAPqPX2wgKwwWFz64SYTh/r+s75FjGKOgAx1lq9Pq+K4t+GWo+1C+oNo/TSh6EE3oq2ckrnvwX2Yn7qKBf0tZDqLc/gxsAee69NlR8hsPSO4vPzY7D9HShHGHzL4TDo09dutl5FOS9AeeXRLY1l+1WwG6OoAxBjrdXvs6/zzab1h1KKB2xr2OZYzimdedkmcpS1FbIzouSM0U4Ilu/sjbFX1jTh/ed3oRY2WXkfhU3WQ3pIH1+9yeqwxAVCssq2bHsTNs+HfhXKq5XOyaCzYtsS0C9COSFpHNRSHvMeCI1R1AGIsdbq95mTtXk1aj1u7oaNss4vdVEq48qfbSHPxa2SPRCt705A00YC+LjjOKj1QEznfx32eMVfZmeJw1jXe/Z7APb2h3LeQRHh7ZPPQXkVn+aQ9/OLyMeGNEZRByDGWgvD5+Xhho+R2r3CCMeLF5yh/1do3nNHnnScL7WPF+8iNPIl+Oy7E3AZbDbldsDxiCXPTpQ3zZWwNxJatmyDAvL61C8dh/V/APXRYdkQdnjLo1+Zye88ODkBMlZRByDWmgvD7wPhRnIsuP7nk1+do3RhRFfMCzb+F0FdOWTl4/mFI5mtFvYQfXcC+L4BVljM8gk474sLd7TDoFUMx/Hq/y5o1g5fdBuHEHkl4lO4VOcJUDLp5Q8nQsV+cKoDgEqUOBPg6NnN0F7HSZ7fDnH2IIyMPG+e44FDmhXPP18PI7z6vdgbLvQ7Iafh5fl8AWzyXlaMwkbU1xA6h/G2rhDC5igrT/30S8PXGpf57odRsH9Dhq/cD/8B5RyG2EUdgNhrsH7/14IL1gsRTtKdr/5QnDxg438WtN/5qsjvPMfs5+RNgzN9BbH57gRwsliMnYDt4HeRHapbWh54o6BVio/ZsbxVUdVtHN4SIW/eh2NHaWFoU0QdgKbUZL1x/AnFdzvH5N1+VL0hOJXOxv9MD7GnGbGN29/JmxZk4osQfHcCzoPNmDoBHHZ7AJreaVw+88p/FLRKWRCFWWf+3wsbZV75V8mj7rLUAai7BppR/vwIYwLU5TyU5OFcngUiwsHG/wxjzEns6f8HRcSgFle/XQL0c2GTFRqDfAFOpncYl88cstu2hmCtdfcmfF6xBr+bWqQ6AE2t2erj+haKdDkXpfMcXb3bTiXyIuw0D/GmY+fng528aWGmA0qAfypssmJDFx/3/n9WU5C8b9+50xf5/uOa/G5qseoANLVmq49rBhT5ELTI8dyZlqOSod9i4/yrPxjj7Iyb3/kkk6QAgQORNgukZdvJsBlyJ2BNDzFfBRt1jHZwAZ5JBv+fRt6ZoBJ/BNQB8MdSloYM2R4QLOdf5j02YJBs/E/wEGMno9ifgqityr5bQmWcBJuhdgJ+a4yX99mWgNYhG6HQzh2/yPfv1OF0w8tUB6DhFVxxeGwgb4IWOa470/IcNW/FfucpjrH9Dtrpr/X7D/MUrjTdCXyvhErhrFZWeEjCIbYXoJYdrs4JJpZ6moy4QzwphLR/uPiiDoALNeXpRWB9/Gg5RzHvT3oVUMNvbAuOh1rj6sz/oxpiaWSRo0uonBNhM6ROwBbGGJ9A/jqH0C2Py1wG3yX+CagD4J+pLNpfhMMLnVBWB2QbYB157Wz4+f0n2lH8EjgM5rJAW7YdB5uhdAKsPdC615O2TF7kpE+JfwLqAPhnKotDhqwNCJbzLvPuFwjIX3mIpZPFEYHE1jg3OLu9E7b1eyiTUh41xMYedZ1X/9zRnjT4vx4NSLwTUAfAO1IZnEpgDP5bzr0839UxWTldgYcbY8iK/8h0Afrsn8AvSqi0Y/y7Wcji0saYQuhxWp4AmK8QLSXOS0AdgLyklK4oAR+jANsULdRj+l/CVlYDbtkWyzoHHjHWY4rLSloqKivvofWEMqXU3YzxfKxG31k0e/JZTPNsex95P0IjEu8E1AHwjlQGUwSsowBXpmxV+ZEz8/Ocm4qkiXGp4yqZey+LQ/dFKqhf2vdgb5R3L/MZtMTyYL4iSk01M6z349vt94mletZu4+oAtLv+y45+AxTQ7bjOs52d/+XLdrLD/sb4znN9Hv/ypgnlNnJHqM3+ysl7nMSXt5LypLuxJmTXGOIIZdjpTccYHq6JeRuKVQegDbVcb4w3o/g859ZuaTgDv0q5BYV188Vle0gTyavkGERZZTzCsUQNkT1v2Cm3rcHfrCJdFwi5IMuYtnkhoA6AF4wy0oMA36Tp0nAmeV5F/qpe/sVze1Kuj/+hPUreo5qa+xM7AT6Xb9yxYlSzoDwOhbnukItU7G+34g50jGGHbga13UxAHQAzQhnoQ4DzfziK53r+Yr59+5Th6+edjX6mY2Sbw7ZHEgABVgR7Y+kKcv38tYrjWc7gN3vPoQg7Mk9Bi3C/A+k1AbC8GlQHoDy2svxfAnymv8hx35mWo4dViNXPxG9d+VdRWwXL8DUSsH3Bcq3JOSkl2bGK/r/TWrjn/OvC3ls545mAdMt6Ll/mBhNQB2AwD30rh8AcMDsRWvT8lU6/QjmuDbL6RaOP9PdkqC5aBmEN5ws7AX+Apnesop9HVhzO5w3+Xlqxr3mK+yQSje8T00P4fcU8xpTGREAdABM+ZS5A4HdIW/Rcm05/RIGyXJMuafTxVORX4+9Kv6J8rKDToemdK+/nqoai0igsvdJz0oYC+jwbfDkE+h9owp6P3nDG8DegM0Il5RNQB6B8xirhAwLs0CfHust/XjQMrQDmLY5+sk1R419BBfkoghNTzoIW2RHrWgdgr4J+pmPiWw1Dl2FwkCv9VXFwh86iav/UAaiaeLvLG4vw0+enop+3qADfRiij6KRrtiVsUyQREWCFnQ3NuxMeWlNslg7AaTX5rGLjIKAOQBz11BQvd0Ugec+3WelOrwhEkZUA2Yao8a+oYnwX8xEY/Bn0HWjWDsdtXMCm6pn/KPJDsdwCCHEOwIeB6UPtBDj6UvRqJzlOBmr3Xg7ERmBmOMzJvck+VPT/ROSljSrk6yik1+Jlb+P3n0I5r0wSOYFl4D9XbLofykp/HXo7lC8WWhhap3wBhRc9UJL019XpuMqOgsB4x/3rmiiik5OhETjRcX9LzmlbVxgQz/2/hPJxZLYJbBvug/4ayhe0SUSgdAIboIRk5y/6nzurRAR6ETgFPxbdr5j+B72M6jcR6EJgXWx32d+SPKFObO4SrjaLgI3AUsie7PxF/7PHOoOteOVuOIFVEV/Rl59wKHb+hnNReOUReACmi57LkvS8Ep+lPNdkWQTCIsB7Xq73aXnQrB5WOPImQALHwKfkBJvn/1cDjEEuxUNgNFzNs591S8O1USQi0AoCuyHKoldo6QOHk1kkItCLAGcxc4Z1er/J+syOKCc+SUTAQmAFZM7av/Jui+HxZgsf5RWBKYvh8IUSeQ+KbulOFUsRyEmAj5w+Bc3al+7F9iqew87pqpJFTuBu+J+1n+XZ9gzy8gkuiQg0ksCCiOpWaJ6DoV8aHmgSEchLgKMBG0C/BeXV/v5Q3kbS406AIPFG4Eew1O/c1ev3tb15IkMiEBCBxeHLQ9BeO3+R3zgRUCICIiACIRGwvOWU57+fhxSMfBEBHwQ4438AWqSB75f2DR+OyYYIiIAIeCbwIOz1O391+/02z77InAjUSoCLTjwB7bbDu24P7ZXAtUJW4SIgAsEQOAqeuJ7XODF63mAiaagjmmhRTcXyUb+LoIuVUNyYEmzKpAiIgAhYCVxqMMC2aUNDfmUVgSAIcEdm4+/aE+6Vj/f/OadAIgIiIAKhERgKh16C9jqH9frt96EFJH/cCXBn4DD4otA2rV53EOLttZNbfuNMbokIiIAIhErgbDjmeo57ONSgSvCLbSLbRraRbCsbI3yc43zoa9BkR3gLny+D7ghtcmdgJcQ3CZrE7fM/33IoEQEREIGQCewF5yznveEhB2f0jW0f20Dexk23E2wr2Way7YxW2IvhG/j6VT7fVjYauhC0STIMwdwB7Rd/0d/vh83NmgRKsYiACDSWwAhEVvQcl06/SwPJsK0bDWXbl4416/OxSBPliADv32QF1G3bu0jPSSObQJsgvof+XwAULtrS5BGTJtS7YhABERhM4BF87Xbe77f9+MGmov62Orw/Hfo2tF/c6d9Pji3qHQoGmA6Wn/lo297QWN8K9VH4PgHaGZfr9zNhay6oRAREQARiI/AHOOx67uMoaszCNoxtGds0VwbMtx00GrkPnlqCTfK+DDt8lnTJaCL/wNGj8S+JwfJ/MuzsF1nsclcEREAE0gR2whfX8yBHhmdPG4vkM9sstl1sw1xjT+djmxqFrAgv0477+MxFIf4G/QyUj9WFLMPhXHpCh2v8XOFvg5ADlW8iIAIikIMAH1V2PQ8yXyy3hdk2sY1iW8U2yxJzVl6+ZTF44aSNLOd9beP9pIOh8wRK4ggP8fPKnzuSRAREQASaQOBJBOHaBhwSOIA54N8+0HsNMeZhwycGgpevwcM8wVjTvI5yeG/p4wER4QS9Z6GW2N5H/i8EFJNcEQEREAErgfNgwPW8yEfiQhS2PWyD2Ba5xlYkHzsZwcu28LBIUD7SXoMyt4fWPUN+Ow+x/wY2JCIgAiLQJALfRjCu53qO+oYibGPY1rDNcY3HNd9WoUDo5ceC+LGM+x95oD2Fsr8KHdrLwRJ/GwPbefzsluZu5J+pRP9kWgREQATqILAOCu123uu3naOic9bhdKpMNvxfh7KN6edvGb+zTZ0PGoVcBi/LgJDX5lUon4/iVSl83MM6+W9UlQ6rLBEQARGoiADPj5zRn/cc3plu/Yr8zCqG883GQjt9qvL7pVmOhbqN90beqhnYWJRf5S2BzY3xcuaoRAREQASaSsDyePg3a4LCNuRf0Cob+86y3kT5H6spfudid0bOd6CdwVT5nfedqpIjUZAlttWqclTliIAIiEANBM5Cma7nyBNq8JdFfsfgs2us6XxsQ3eiIzHKp+H0OGg6oCo/j0fZVa0bcLshzthXu0LokogIrApf94AeCN0NujRUIgJlE/geCnA9/48t27kM+9Nj2zNQV5+t+cah7FjWQMjA98GmGfFvXygnuFmBuORf4wM3Sv3LSYd8dt/FP+ZhL1MiAmUT4FMqD0Cz9tObsH2Dsh2Q/VYT4EvMsva9PNuerYGcZeJinpi6pWFbyTaTbWejZHVEczq06MsQuoHKs523IsoWLvuYx5duaZYo20HZbzUBjoIdD+22/yXbOdNYndFW7yqlBj88xz6Y7ItZ/+cu1btpje9u9Dcrhm7beOxdCuUV/3TQRssiiO5nUPbqugHxtX1PlFG2WCYAPle2c7LfegI81oocT7wtIBEB3wTYsL0OLbIvptN+wrdDfeztZfA17Xevz2wDeXyyTWydDEPEu0BvhPaCZPlt4wqofsPg/yUV+Kci2kuAs4eLPn71MvJU/Rhte2uoXZFb5kpV3THdFFVjaXt65WWbx7aPbaAEBDgLnssqvgHtBa7Ib7TF50/LlsNQQBG/0mn5xiiJCJRF4EQYTu9veT9/tyyHZLfVBM523B+53/6wYnIzozzLiEXnscZ1Yv4MXbfiOLoWx3uDoQh7hpz4sDiUL/sZgFrldBjgM5Rly0yGAl405FVWEehH4LP9EnT53TVfF3PaLAJTCDxk4DDckNclK9ey4aOLVhmAAbZpHObfAXoDVNKHwPT4fSvo5dD3oZ29qX7fxyPPfNAq5DcopJ8/3X7fuwoHVUYrCXB40eXY4b46rpXEFHTZBL6EArqdC/tt/0fZzmXYnx/bnnHwmccd2y62YWzLJAYCyyIvG9lXof12Ev7+ApTPOlclf0RBefzKSqMOQFW11L5yeB8/a5/Ls+2l9uFSxBUQ4JysPPtfVho+wlqH8Ok1jtRm+dS5jW0U2yq2WRLPBGaDPb5u+B5oJ/jk+8X4jbcRqhTOXUjKL/r/gCodVVmtIqAOQKuqO4pgl4KXRc+RSfoqbud2gzgcP1zSw3e2SWyb2EZFI0Oj8fQDRzkhg0tCUtkr2wy6GJQ7yMPQMdAHoVULRxxcZQ7XjMonAiIgApEReBL+cnjcZf4ZJ+XxrYC8yq5aHkeBHM5fDvoZKFfP5GONjIe3Jm6DRiexdQDSgAk8FOiWiXxahjVdq/osAiLQZAKTERwvmBZwDJL35OvoACTu8jZEXbciEh+8/XfphXkrvEGGLCMAKzeIg0IRAREQgX4EnuuXoMfvrh2HHibb+5M6AH7q/mmDGQ4pzWrIr6wiIAIiEBOB5w3OcgRA4omAOgB+QPJtfpyH4CK8DaNnrl3IKY8IiECMBNQBCKTW1AHwUxG8J/WowdR2hrzKKgIiIAIxEbB0AOaNKdDQfVUHwF8NWSYkbgE35vHniiyJgAiIQLAELJOmZw82qggdUwfAX6XdZDDFOQAHGvIrqwiIgAjEQmCiwVE9Nm2A15lVHYBOIu7fL0ZW13kALHV/KBdukYiACIhAkwm8ZghOIwAGeJ1Z1QHoJOL+fRyyWm4DsGfLToBEBERABJpMQB2AQGpXHQC/FXGh0dwexvzKLgIiIAKhE1AHIJAaUgfAb0XcbjS3BPIvaLSh7CIgAiIQMgEu6e4qXA5Y4omAOgCeQMLMTNCjPZir6hXGHlyVCREQAREoTODtwjn+myHm5ev/G0Ugn9QB8FcRh8PUih7MveHBhkyIgAiIQKgE3jE4NoMhr7J2EFAHoAOI49dPI983HfOms72CLwPpDQ3+vAFi+yP0XijfpcAXbJwP3R6q/RIQJCLQUALvGuLSCIABnrL6J8B7UnwC4P886In+3QvO4tzwKHlkshszLq2styTaq46PlXZj3G/7S/biZUEEMgksg6399r9uv9fxuvfMILRRBEjgJ9BuO2uR7W/BzkgabLDMhdjugebhwgZo+QazqCI0dQCqoKwyihJYAhnynAOy0liWXC/qp9KLQE8Cw/Hrm9CsHbXoti/1LKkZP15QkBVvCwxrRui1RKEOQC3YVWgfAnwDatHzY5L+oT629bMIVEbgXJSU7JiW/0dU5nF9Ba3jyGq/+lyOvmR1AKKvwkYGsAqicj1f3tdIIgoqOgIcnn4P6rojJ/l4VdyGSW//z5HVDcgncSOgDoAbN+Uql4DrxQDPmXeV61q7rLeh4SmrRg+FYSu//8DGbtD3y3IyILtrOvrCfFbOjkUrmwiIQAkEZjTYtDxBYCi2mVl1YnWr16WQbSe3rB/mmoRPu0A5+a8NMr9jkHzsZz7HvMomAiIQHgEumuYqljUEXMtsbD51ANyq9gBkm94t64e5Dsanez/81vwPltW/9ArQ5u8firA9BCwdAE66lngioA5AcZB87n/n4tkG5bge3347aEvzv1heAMJ72RIREIFmELB0ACzvEWgGPY9RZK2qNCvsc2U73nvloi3sJHCYmkPWFP5Phq0n43PSI+PQTFI5vE+TnPA5UW4ilMJ73a9O+fTBnwmpz1wFj5M8Qpdt4CCfZ3cVMuAIQgyxusaYlS/ZH7J+67eNiwLd3C+RfhcBEYiCQNs7ANOhltJtCNvZRObEh+TCnCOfyUjz7PictNez4XOyJPIs+JzMqeDFacKW//md7cxz0NugV0CTthsf/2uQn+nUt6A/hM4DrVPYSUgmxrHzwE4EhR0MdjQY0D3Q86DWN/DBRCGxPq9/Okq7tVCJzUj8lCGM1ZD3TEN+ZRUBEQiHABsmV3nDNWNJ+VaH3R2gfA/MAlA2zGygKWy8k9uXbNTZuNcpL6Dw0dAToIMuQOkoG1NujE0vhM9VTRJjBVse/WPnZXFoG4UdS9d96842AvMQ80cNzLkSo0QEyiDwIxh1PRccW4ZDDjY5qfkiQxyu8fvIx4upZGRhSuhHRxpIAuMR+L/olEjK/bOXkVObr2K3N7JbttyqbaR1dQAaWa3RB3U8IkjO3UX/fz+A6NnWPGqIoWjMZaT/n4Qjhy7ejTwYAroROqhXg+++haMNlsrgUHZbZSkEbmF3eFvBGeJWB8AAT1lLI3ABLLueC6y3YK1BsY25yeC/a9y+83E0ennCOK4BwSRwdmVAJQnXpOfchKSsov/ZQWm7DABAUW5JerJPT5xpO8s88asDkIeS0lRN4F8oMDmui/7fompnO8rbzeB70VjLTn8sJyZs2hFgzF85RF+WcLJHMqHDpYxzXDI1LM9YQzxkf6ghv7KKgAiEQYBzqVzlWdeMnvKV2cZ4cjG3mSltPx/PKrunUZV9PpbITk0ZwickXOPgxMGFy3AqMps7GhiSPYet2BGT5COgEYB8nJSqWgITUZzruXSRal0dVBqH/7mgmavvoeV7jY2lZYW2QXQC+MJhep70yhBLw3M9HBpfhlOR2bwE/nIo31WGIuO50Lofp3H1X/lEoO0E+Ajg7I4Q2IDyUba6ZG4UzMf8miKT2QF4pCnRIA7uIGU9J7qWgdNYQ94mZX0LwXACkEU4mfBi6EwWI8orAiJQC4EFDaW+jLx1XrBy0Tu2MU2RR9gBGNOUaBDHY1A2Mr6FIwtLG4xeZ8jbtKwneghoA9j4K3RWD7a6meBw38ZQPi5zNvRk6MHQlaASERABNwKWDsBzbkV6y8UOwOPerNVv6DK6MB+0KfMAflUS0yVhlz0/F+X9/2RlqJLci87sFY4sO/nfBjtLlBA9G/77evjIA4fPAocumgMQeg21z789EHLncZz3+1UB4DrK4H/eOKtIx3kY8yY8d2lAUAzI0rtMWGT938jAZ1yWwZZvG2Xg2XlwvAJbX4VyNMsq88PAmdDOMrK+v4h0oY8GqANg3SOU3zeBX8Bg1vGUZ9vpvp1xsMdzBOcx5fE35DR7dsb+TWyIdUGg9+H7dp0BefzOxSdcK5NXu5JpCfwdm1yZZuXjcsHbQzl0X1TYcfwxlPcYs2x32/YU0oe8NoE6AKggSVAELoQ33Y6nftt/GEgkfJqJbU4/f0P8nW38/t04roEf2GBx2DpE57N8egO+7gQtUw6B8ayy82w7oUzHIrbNORWcr5GHYZE0fNri19DPQLl2QDdZBj98GXoelI+PFikjnfYY5A1V1AEItWba69fdCD19/BT5zA5+KLIzHOGcgCL+15mWbfrl0EFPs02HDVnCK6JVoQtDeUXFe9jJ4w/9Xj+IpFNeT8h0FOZjfspQ6OxTPn1gNzlBc/i26KNdfByEvclfQp+Elik/h/FDHQsYjXw/dczb9GzkwivvMoUdgmegE6DcJ3nfi/t3su/ho0lodyEoOxGhCTsALzk69TLyzeOYV9lEIIsAz/O8YHN9gmdl5L0ry3BN2xZHubw43Bb64f30nL7wNgJHESgToWygKa9BeZVOeR36zpRPH3Q2knMML5wmTd3O//xO4e/slFCYj/lp92noHdBpJlGyQc6SZ7Hxf7N+qGjb3KlyOMSadFTmnPqZgdDHBBo+lipJZ8alEFaCJJsAO1abQdfO/tnLVnZiqWUJ99VVoDeXVYDsikBDCIxAHK6NPxvLRwLj8AT8+Sp0PygvKhaA8iqfjTuFn1+Z8umDP7xYCEq6dQDqdjINKv25Lr8sHQD2eCXZBNhL3RF6BzTd6ctOHe7WxeCaOgDh1o88C4MAb7u5Ckd5k6tbVxtl5UuusnmlHZVwSEbSn8CM/ZN0TZEM23RN0PIfHkf8u0KTYa8YcaiOY6w1+Vw1gWUNBT5kyKusXQioA9AFTMfm5D5Mx+ZcXy2jB7kKaECiMYjhS1AOmcUo98botHwWgYoJfMxQ3oOGvMrahYA6AF3AdGx+u+N7ka/JBMgiedqY9kwEfVCEgd8Hnx+L0G+5LAJVE7DM9VEHoITaUgcgH1TLffzkqYd8JbU71VEI/2vQqiZ3+qB9uA8jsiECDSfAZbtXMMSoDoABXres6gB0IzN4Ox85dBXODJXkJ/B7JOXEwLfyZ6kt5V9Q8hm1la6CRSAeAqvBVcuk8//EE2o8nqoDkK+uLB0Ay8SXfN41LxXXd1gHGnKvn43/Ls1Dr4hEoBQCPJ5dZRwyPu+aWfm6E1AHoDub9C+WxzvUAUiTzP+ZC36sAT0tf5ZKUnJdh69Dt4NOqqREFSIC8RNY0xDCrYa8yioCZgIjYYEz1F31o2YP2m1gI4R/v4G/a7115rsEPiwRUVVwv+uMIe931xUEI8IjVyskwMd98+57nekOrNBPFSUC0xDgcsiToZ07Zt7vW01jsdoNXI55JegmUK4FHeOjicPg97egT0HzcveV7t8ok+xiE3UAYquxZvq7IMKyHIvrNROLooqJwF2GnfjYmgLlylsnQrmue/oA5Ipaf4auCI1NuCgTl98se0SATyL8A7opNFZRByDWmmuW37wASp9/inzmGiwxXrA0qwYVzZBTDDtx1TNYV4OvbODZiPU62DiqwcY0VuF9xd9AOUejV5x5f+N641yW+EfQxaGxizoAsddgM/w/GmHkPQY7093eDASKInYC+xt2YjYswysAwDLOhbK8zgOp1/fdK/Ct7CKWQwFfh54J5ZA936rVK2b+xvvc10OPg+4GXQjaJFEHoEm1GW8s98D1fsdit99/H2/Y8rxJBPjGt247aZ7th5YIg4ts/BLKZ+fz+NKZho1l0xo/hDTlLYB8CoPzHngPf+Opnz+G/7NBmy7qADS9hsOPb1G42Hm+KfJ9r/BDlIdtIMBHJl+EFtl502kfLAnShrD7qMGvxMcjSvJPZusjoA5AfexV8gcE2IAn5xiX/ysIpAiEQuB8487sczYrr/qPhxYd7u92EJbVQQml7trohzoAbaz1sGI+D+50O+f0284nfqYLKxx502YCvE/cb6ft9fulnuBxdv9dRl86/XwP9vi4oKQ5BNQBaE5dxhgJH5/mPJvOc03e7yfFGLR8bi6BuREa3wyYdwfuTMer9VWNeLZH/okGHzp9Sn9vw31xI/6osqsDEFV1Nc7ZtRFR+vxS9POOjSOigKInwHfXF92R0+n/4kiAQ2E/gfoa8k/7xM+vOPqlbOESUAcg3Lppg2c/RpCd55m8399F3nnaAEkxxkWAV+B5d+Ju6YquKseh+VM8lNvNH27/K1TSLALqADSrPmOL5gY43Ouc0+u3m2MLVv62gwBXorPc1+JOzwl3M+XExXSXQXsdLD5+2zynP0oWDwF1AOKpq6Z5ujgCsoxWHtY0IIqnOQR+hVCsje5Pc+Bg4/+/Hsrq5+vFOXxRkvgIqAMQX501xePvIpB+551ev3+yKSAUR7kEhsI8n9GvUri4hWUyIHd8rnG9fg+nh+G3v0N7HSQ+frsFZczVww/9FC8BdQDirbvYPb8VAbienzgfief1kIVtTug+hszP5NsGyP1H6JNQDjNxwsjD0F9DR0CrkNNRiOsOnuTjGvYLZDjLCX9nebCflJP1nx2Y30BngUqaSUAdgGbWa+hRLQUHs845ebddGGiAI+AXX+zGtoYXcGx72AaxLdoAKimRABe+2Qd6F7TXjjQZvx8ALVv4LD53gl6+5PntKtjg1X5ajsSXPHld03BOwXLpAvW5kQTUAWhktQYf1KHw0PXcxHy7Bxjhd+AT25ZecbFtYhvFtkriicDSsHMMdAK0F/zO30YjfdlyMgroLNflOx8NTIaTdvVkM8uPB2D7c1BJOwioA9COeg4tyrvhUNb5J8+2t5B3zsAC+lnBeNhWsc3iSIjEgQDvr2wB5QQ4rlCXZ8fpTMPhmQ2hZQrnArwO7Szb5fupsMNFgt7wZC/tw8uweTC0c6QBmyQNJqAOQIMrN9DQlodf6XNP0c+hDf9vjHjYlhSNg+nZdrENY1tW9Tw1FBmfzA2XOdTyKNQFeGeeGytAcIgnX+l7GY3/+bCrBTUq2BECLEIdgAArpeEuHYb4Os/DRb7vGBgftiFF/O+W9hHYYdvGNk7SQYD3o4+D+rqaTlfCyI6yfH/lugB8rj9dZgifJ8KnPaGS9hJQB6C9dV9H5NOj0AGo6/mP5/+Q7p+PMMTSjcEk2OQE8lWgrRaubrc99ApoN1g+tm9dAeVPoAw+ieDDXx82uIoW505I2k1AHYB213/V0W+JAi3nr7OrdrhPedsZ4+nH4t+wzwmPbAtbIwsj0tHQ8dB+gHz8/mWUU4Vw0ocPf602joIfyYTCKuJWGeESUAcg3Lppomd8ushy/vpCYFC+YownLwu2hT+BLhRY/F7d+RSsnQu1LqCTF2qS7vNeo+hujLcCboMm5Vb9n48k7t3dPf3SQgLqALSw0msKeQmU6zphm+dKLv7DlU9Dkm3gTJXncbaN50DXCwmC1RcOwd8JrRJkUhZnb1bZq1oS5XFHTsqv6v9klMmdVSICaQLqAKRp6HOZBKzLo59apnOOthdBPtcnAKzn/jtQdmgjIoUwcoW5C6BWEJb8/yzksZ/EfM6+yvkALKuqUQ4/hGSlKgLqAFRFut3lcPTzeajlXL1JoAivMsZlYcK8f4ZGt1orn3m8tGZwHBJfE1qHHIhCrRWfN/9+dQSoMqMgoA5AFNUUvZO7IoK856usdA8jP9uMEGVtOMW2JMvvqrZdjPJD5ZNZZ/vWDIzDNvtnelbdxt9WwIBlSESgGwF1ALqR0XafBK6DMUtjyAumkOWbcK6uWwEJV05IjEL4IpvHoYnjVf9/CWV/MQBS7LGdViKH22GbQ28SEehGQB2AbmS03ReBNWDIco5/E/m5n4Yuu8BBrqhqidWSdwBls20NXjjsbgnUNe8zKPen0LkDIsTH8c6BusbULR+HpFYJKE65EiYBdQDCrJcmeXURgul2nsqz/ZSIYPB4YhvDtiZPbL7TrBoDq90rhvNvlLcPNLRHSJK64upYJ0F97gzHJsb1XwR6EFAHoAcc/WQmsBIsWIfG1zJ7Ub2BYSiyikXsOtuMnasPtXiJ+yJLp+O+v3PY6E/QKHpE8JNDN4dDfXCYCDvzQSUi0I+AOgD9COl3CwHr6CYv3mIXtkFsi9gm+Ti/97IRxTov1uUgewHgS4K+C+WJLUbZC05bF0I6IsbA5XMtBNQBqAV7KwpdBlHyEeRe5+t+v0XRoOWsTR5rbJvYRvWL2/X3z+b0pdZkc6J0LkzjGmRnPg4xXQHlkAvvqccuYxBAZ4x5v/OAGxk7APlfGQF1ACpD3bqCTkbEec9bWekmIH90z7fnqGVO/t4E+meotYOU5sYLx7mgUch58DLtvMtnrqjHe91NeqkNdw7u+C48mOefUIkI5CWgDkBeUkpXhMBwJLaOZB5dpMBI07LtYhvGtsz1nJ/kY5sajSwBTydCE+eL/L8b+TiPIKTXQsIdL8L7RUVYdKYlF4kI5CWgDkBeUkpXhMDvkLjz3FTkOzsPixcpMPK0bMt47mbbVoRTkvZV5Itu5HdzOP1WzoD5WNv50FHQJgt3gqRSXf6PaDIcxeadgDoA3pG23iAb7rzn9W7nuFNbTHEUYmdbxzavG5/0dk4u/DQ0SlkNXnPBmnRA6c/P4refQReBtkF+gyDT8Rf5/HQbAClGrwTUAfCKU8ZA4ExokfNWZ1rO6fqYSE5p89j2sQ3sZJR8vw2/lfqkGx9PK1t433tD6BbQpaYW9jj+Xw79B5TDQW2RqxAoWbjIX5BpW5eMkeWZA/5+AspO4RvQe6D3QiXFCbAD8FLxbFNycNWzeRzzKlszCayOsG6B8pzuKpcg4+ddMzcwH9cU2AzKq/wRUDb+D0Mvg46FssMkaQiBAcSR9O6K/v9eQxh0C2Mx/HAGdBK0kw0PiN2hkmIENAJQjJdS9yZwNX7uPDaLfGdjxqWDJSLQOgLTIWLL45F8tKSpwisCTnTpdzLhTFj2mCX5CKgDkI+TUvUnsBWS9Ds++/1+af9ilEIEmklgPoTV7wDp9fuyDcTCZZJ/DuWVQa/Y07+d1kAOZYWkDkBZZNtldyjCvR+aPg6LfuYxzlsIEhFoJQE+E1r0oEmnn7Vh1Lioxd8dmXymYSzKCkcdgLLItsvutxFu+lzk8vnidiFTtCIwmMBK+Opy4DCP60SuwR6E821uuMJ1wF15jA0nlKA9UQcg6OqJwjlOxp0IdT1Wme896MpQiQi0lsCaiNz1IPpPg6ixUeLjLa4smI9LbM4JlfQmoA5Abz76tT8BH6u6ntK/GKUQgWYT4OxX10bvmoag4WNldxg4pPmt2hAmZYahDkCZdJtvm4+npY85l89vwMaizUcVZ4SW5znjjLg+r/kEgKtY8rqW6TsfJxJdAF3Fk2E+VSERAREoh8CMMHucB9PHwMZTHuzIhAhETWApeO/Sg2aeK6OO/APnf2uIv5MbZxQv0AAmZYegEYCyCTfX/k8RWudxV/T7c7Axe3MRKTIRyE+AE9+KHkBJet4zj1m+BOeTWHz8b9KciDLrVR2AMuk21zZH6axv++Nx/rXmIlJkIlCcAF/s4NIAxjyEthJizlrdz4VDkufLxdG3Moc6AK2sdlPQXGiLHezkWHP9fy9s8LafJGACbaqgmVAP60IXh/KxlAHojVDOKK9KnkFBSzgUtjDycCjtNYe8dWbhHJMTobyf6Ev+BUOn+TImOyIgAoMI/BjfPj5oS/Ev7DR8HVrlubW4lx/kYBvIdmEElOerJ6A3QHnRImkAAQ69HwVl49nZm30J2w6FsnNQhbgufEO/+YKc2OQbcLiTueU71w6YPzYINfqrEYAa4UdYNB9VfgdqOUaZ9/QIYp8ZPv4IyjagM162FUdCuViZJGICy8F3vkims4I7v/MNVwtVECdnxHaWnff7QRX457OIxWBsoiHeTi7nw9ZsPh1sgS11AFpQyZ5C5EXQfdDO467o95dhI/ROOs/1t+aIlW0H2xBJhARWgM/PQvPuwNwh2CssU/aC8bz+dKa7vEzHSrB9qiHWdOwcRjwYOh1UUoyAOgDFeLU5ta+ndEKf+DcLKpkjielzTK/PbEPYlkgiIrAMfH0a2qtis37jkFCZwh0pq9w8295G3nnLdM6j7SVhy8dQImPexqNfbTOlDkDbatwt3q2RjY/W5jkP9UpzM2zwPnrIMhrO9Yoh67fnkEedgJBrNeUbG//x0KyK7LeNw1czpGz5/sir2Beg/fzo9vvXfTtUkr0/GWJMYmcHYvuS/GuLWXUA2lLT7nEOR1ae95LjzvU/j9fV3N2oJOcwlDIB6hIj2xS2LZKACfCNe3xkzqWCkzzrlxzfhQb/eI8u9KHw4fCRV+4JT9f/+8CGxEZAHQAbv6bn5sXODVDXYzSd75cRwNrQGCvbFrYxkgAJDIdP46DpndLlM+/TlylfgnEXv5I8W5bpnAfbPBEkvrr+P9mDHzIxZIg6ANoLehE4HD+6HqPpfHfBjs9HfXv5bPltbw/xPgkbvMUpCYjASPjyODS9U7p+/krJcXGGLCe2ufrHgy3U+2z0a8AQG5ncDS17MiaKaIWoA9CKanYKcnPk4nooruehJB9H+1Z18qD6TPt6iJdxs61hmyMJgMAI+DAATXZI6/9Pw1bZchUKsPi5T9kOOtrn7RNLXO8jP21I/BBQB8APx6ZZWQQBPQ+1HKtJ3tERwfmsp5gZ+wB0BFRSI4HFUfZj0GRntP5/E7ZmqSCe3Y0+v4r8i1bgZ9EiTjTGdUbRApW+JwF1AHriaeWPXPnuX1DruZL5+WpvziOIRbiOyFtQH7HTBtsetkGSGgiwAXwE6qsyaee4iuJgJ4ONuMX3y5E/pFsB08Efy1UFZxGPgEr8EVAHwB/Lplj6HwRiOe8keblU7koRQjneU/wJhwHYGwGVVEiAQ1gPQ5NK8PF/APbmgVYlllUBk3hHV+VsjnKWR5rEL5f/5+YoQ0mKEVAHoBivpqf+DAL0cd+fx/f+kcKaD34/DnU5R3XLw7aIbZKkAgILo4wHod0qw2U7n4NdYEGoiQAAK49JREFUuQLf00Vw6OgdqIu/SZ73kX+XtNEaP3PyZOKXy/+1a/S9qUWrA9DUmi0eF0dMLWuQpI/pvxQvPqgcPNf7WPsgzYRtEtsmSYkEOIP+XmgavPXzK7C3Vok+9zJ9modYJsMGJ7fULafDAde64K0ciX8C6gD4ZxqjRd73vxbqenym8w3AztzQ2GVVBJD1IqB0rEU/qxNQ4l7Bxv8eaNFK6ZWe9+HrvPIcgfJ5L62Xj3l+o43PQ+uUh1B4Hl+z0hxdp+MNLlsdgAZXboHQfN33fxtlfqJAuaEnXQ0O+h4JeAA2Fwo98Nj8430bPh+e1Xi4bnsd9tYPAMSxnuJ6F3a+UVM806Ncnhxc62LDmvxuerHqADS9hvvHtwGS+Lrvz5dyNU3WQUDWCdmd5z12AhZsGqi64mHjfxe0E7LlOxt/HhghCN85/QzUEk8670mwNWvFgfH+YtqHIp85j2GOiv1tS3HqALSlprPjnBObB6BFjsduaf8XdkJ66gjueBOOakyEdovdZfv9sKdOgLGKeK+pyKsb81TUG7A5yuiX7+w7wWAe3/OmuQ/2qpzX8EmD/4/6hil7HxJQB+BDFK38YJmXkz7XcA18Xog1WdZFcL47Af+BzVje4Bpc3fLK+FZoeke0fmbjH+pw8yWeY+WwH9/xzUagbNkNBbjWzaVlO9di++oAtLfytzMck+ljmU8qfaolGHkh85onbgnDO2Fvnpbw8xYmG/9boAlEH//Z+G/kzUP/htjDHg/1EWvaxgTYPBTK4UDfsiwMngh9C5ous8jnU3w7JXsfElAH4EMUrfqwMKJ9EVrkOOyW9vutIjdkyHqI13cn4A7YVCcg547EhupmaLcd0mX7m7C3cc7y60y2CQrnZD6XGPvlmQi7x0HXgXLSnquMQMZvQ6+DcpShX7n9fv81bEjKIaAOQDlcQ7Y6HZz7O7TfcZfn98tgp6n3/XvVIUc8OE8sD6O8aW6HPR6Pkh4E2PjfBM0LNU+6SbC3RY8yQ/vpQM/xZzHi1cGF0NHQHaBrQ5eBzg/lvIvFoEtAOSS2M/QHUKbnvcAse5Ztv4BNSTkE1AEoh2vIVrlCn+V4TPI+ATttvn+9KeLnhWPCw8f/22CP51dJBgHOXP8X1AfoxMZk2PtcRlmhbzrJM4eER4j/jw29MiL2Tx2AiCvPwXV22n1cub4NO+z8t134ZljL7c2s8+2NsKmnnjr2LDb+Y6FZwFy3sfHfEhqjDIXTF0NdY48p3x9jrKBIfFYHIJKK8uAmh/6vgPo49tt2378X/s3wo+9OwA2wOXuvQtv0G9+MdzXUx46b2GDjv1XkEGeC/1d65pLwCen/mMjrKWT31QEIuXb8+rYnzPk4rjkK+xG/rkVvbXNEwFvJPvgmNq6HvdZ3Atj4X+UZLIevvgBtgsyIIC6CJjtNE/8/0oSKCjQGdQACrRjPbvFe/QtQ6/nhVdgYAZVMS4BvUvTdCeBE6tmmLaodW9j4+77C5Qz6nRqGbwbEczbUenCHmp911tqDoOR9VR2AkgEHYv48+OHj+N4jkHhCdWNrOMYLTB+sExt8SVPrzn8zI+h/egbJhuSL0CYK7+8dDH0Pmuw4TfrP+2wS/wTUAfDPNDSLfMLJx7mAI42S/gS2QRLfnQDeduE8uFYI7y9dAvWx0yY23oE9Ps7WdGEP9BVoEndT/v+q6RVXU3zqANQEvqJi+di0j0dzx8NOmx/5K1pdbGvY5vg8/7JNbMXcC84w9QmuyVf+QDWNDMcWDhv5ZFi3rUcRD0c5JH4JqAPgl2do1o6DQ9Zjly/j4v1tSTECvNXMtsfKP53/e8VciC81e6w+r2BZAbvGh8HsMVfy487i45nf9A5Y5+dPmanIQCcBdQA6iTTn+4oIxcdV6InNQVJ5JLugRJ+dgAmw1+g1AniP3lcjw/vhu0PbLMMR/BVQX0zrtHNOmyuypNjVASgJbABmfTw99TTi4EWZxJ3AjsjqsxOwvbsr4ec8Ci76aGTY+H8p/HAr8XAfT0x91IvFBg+iZSsh1p5C1AFoZl2zkbAca0lezimS2AnsCRNskxKulv+VzoeqetLB3HbWUyDvCzuneLDVBBPzNyEIxMDbGj9tSCwKQwTKIsDHp4/0YPx82LjIgx2ZGDLkVEDghRjnU1iFnfbKpOoOwEvGyNiz+hr0T0Y7TcoeQgeAKy+OgR5tBMvhtE2MNpRdBJpMgI8DDzcG+DLyf9NoQ9kHEzgJX9k2sY2yyIuWzKHn3Q4OEpCLsne1X+gB1uDfeY48XeogycPhrruhnEDERjuZuMIO5QA0Sefy/+GUPXyUGAjoFoABXoBZR8KnN6Eux1U6j26flle5e8M026o07yKfm7KKbSZhrnjEHk4RIExLoPtDJdMSuAqbivJM0v8LeTmJ8E7oo1A+U8yrA9YRv98FvRl6AfQI6FehvELvNXFoNH5P7Lv+Pxc2JHYC6gDYGYZkgcP2rsdUko/H+3QhBdVAX3ih6tIJeAH5Zm0gj0Ehcegp2Rnz/v/WIAv6kibARjwvx850fMmFb1kUBnlLoLOsot8P8u1YC+2pA9CcSl8Xobg0KunjjsflMs1BEnQkbOeK1lcrLnLZ+zwbmt4xu30mwAOgku4ErsJP3fj1275pd7OmX3hroF/Z/X5n3e9h8kKZ1QFozj5wDULpd8z0+/1XzcERRSTfhpd5OwFsE1szMsMZ34dD34F222k5YZBzBiS9CXBIrxvDfts37m3a+dclkbNX3fbzK/mdjwbyiQ+JGwF1ANy4hZZrNTiUHBOu//nMf+tfP1tDxbIN423VbvXG8+T/QNkmtk6WRcTHQO+CcoXAZ6HXQznTdS6opD+B/0WSbjtXv+1b9jfvnOJ3Br86/f4ZbFX9xEoS+Iz4sAWUcyDOhB4P5WzfxaChizoAoddQPv9+gGSdx0TR77vlK0qpSiDAx9/ZprFtYxvHto5tHts+3ZIBBIk7gUuQtejJIEn/Zfdi++acFyl69XwTH/L+/yfsLdi3VH8JOBz3Rejj0Cwf38b2P0Bng4Yq6gCEWjPF/DoFybP2wbzb2PC0Zni5GFqlFoG4CfwR7uc9EXSm45VFmcJJLZ1lWr7zthBvCZQ9GrAyysg7ufJepJ0fGqKoAxBirRT36VRkcT1u3kPe1YsXqRwiIAIxEPgxnHQ9OXA4u0xhQ3011NW/bvluh81toL47AsNhk0w496Bb2Vnbb0D6EO/hqQOAimmA/BAxZO13ebZxQq5EBESgoQT2Qlx5TgRZaXiVW7YMRwGvQrPKt267H3a/B10E6ipDkfHz0DFQXi25+lTm7RS45STqADhhCy7T2vDIZb98DfmqvG0WHDg5JAJNJ7ApAnQ5OTDPhIrg7IBy8j4O4xILr9hvhfIxJzbmnFgzA7RTeJXO4fpPQb8PvRTqa54Cyw9N1AEIrUbc/bkJWYseG4e4F6ecIiACMRBYGk4WPTGk04+sKEg+6pIut+zPfLyGjfujU9VXQ9/Nb3ZwQntyRR0AVEpDhPNS3oR22/86t1+DtBzdkoiACDSYAO+D87GSzhNA3u97V8SGV9+XGPzMG0+d6VasiGXeYtQByEsqjnSbw83Xof328VuQRkP/cdSpvBQBMwE+ItfvpNDt9/PNpec3MDOSXm3wtVsMoWxfKj+KSlKqA1AJ5koL4Yjf36BZ81V4S48jbVy7QiICfQno2dC+iKJI8Et46fpIH08aC0A5ZF6FcDWyK6Cc2NQk4fDsPNBJAQXFDgAfnXQR3jJhPJIwCSwOt0ZBeQuPk/0ehl4J5X4oEQERaBGBrRGr5Sp4q4pZcfEcdgIsPoeW968VM8xTnEYA8lBSGhEQARGImMB88L3os+vpBvTCGmLnMOW50LQfsX7mBMB1amDYr0h1APoR0u8iIAIi0AAC1yIG1wZ0MvLy8biqhbeg+DiepfPiGrPPfKG+ZU0dgKr3aJUnAiIgAjUQ+C7KtDRqP6/B56TITfDhGaP/ltgteY+F33wSI0RRByDEWpFPIiACIuCZAGegWxoyPkpY53PsLJsv17HEUGVedli2g4Ys6gCEXDvyTQREQAQ8ErgHtiyN4A89+uJqaktkfMgYh4VBv7y8XXECtM7OEorPJeoA5MKkRCIgAiIQP4EDEUK/BqzX73ycaJEAMAyDDwdAX4T28rfq3/4Kf5aHxiLqAMRSU/JTBERABIwE5kb+N6CWhvEsow8+s88KY9+CPg61xGTJ+w7KPhu6BjQ2UQcgthqTvyIgAiJgIHAS8loaPD7Stqmh/DKyzgCjn4deBH0baokvb14urPIT6GLQWEUdgFhrTn6LgAiIgAOB1ZEnbyPXLd3TsDGvQ9lVZKFfe0C5hoDPF/zw3j7XUOfTEE1ZpVAdAFSmRAREIJuAlgLO5hL71qsQwIbGIC5G/mSFQaOp0rLzBUO8J8/heSpfA8wlUodDZ4J2E87gfwo6Dno79A4oX+c7AdokYQdASwE3qUYViwiIgAj0IcBV6bpd3RfZ/qM+5YT8M2fp8x0HS0zVEfjPORJcgbAtohGAttS04hQBERCBFAFewRdp7LPScj7ALimb+hgXAXUA4qoveSsCIiACXgisBCvvQbMa9iLb3oKNjb14JCNVE1AHoGriKk8EREAEAiFgfSIg6SjwFaOfDiQmuZGfgDoA+VkppQiIgAg0igDveftaY58jAVW/NrhRlVFDMOoA1ABdRYpALAT0FEAsNeXu57bIeoF79kE5OSfgB9AjBm3Vl1AJsAOgpwBCrZ0hQ/gUy6egfHSXdcWVL2+eqrx9JxEBERABMwF2AJLhfB//z4C92cxeyUDZBDQCUDZhN/u88NoD+iQ063jkuzC2h0pEQAREwExgQVjwdSsgOWE9ApufNHsmA2USUAegTLputnnVn3duzq/dilAuERABERhMgEONvpfR5ep5R0PnHFyUvgVCQB2AQCoi5QZXmkw60Xn+fz+VVx9FQAREwJnAt5Ezz0mnaJrnYfer0KHOniljGQTUASiDqrvNZZGV9/aLHF+cfDvSvUjlFAEREIH/EjgHH4ucgIqkfRS2vwHlW/wk9RNQB6D+Okh78Ht8KXI8JWl/mTaizyIgAiLgSmAWZLwWmpxcyvjPmefHQteGSuojoA5Afew7S+YbLTnL3+V4u63TmL6LgAiIgCsB3rPnScXlZFQ0z2Mo5yjollCuSyCpjoA6ANWx7lfS5khQ9NhJ0jftJVX9WOl3ERCBkgnwtbr3QpOTTBX/ef/zDuiR0FFQrUMBCCWKOgAlwi1o+mSkdz3GXihYlpKLgAiIQF8CiyDFA1DXE5M13/0o+0vQj0Al/gmoA+CfqYvFYcj0MtT1eLnRpVDlEQEREIF+BOZBguuhricnH/m4+hlnSEv8ElAHwC9PV2tbIKPlONEkQFfyyicCItCXwMxI8Reo5SRlzfsqyueJUuKPgDoA/lhaLJ2GzJbjg0sFS0RABESgNAJcoYwrj1lOVNa8XKjoc6VF2D7D6gDUX+czwoVXoK7HxsP1hyAPREAE2kJgOwTKWceuJyxrPi588vG2wC45TnUASgacwzzfoGk5JjT8nwOykoiACPgjMBymboBaTlyWvPehbN6WkNgIqANg4+cj95kwYjkWVvbhhGyIgAiIQBECXNb3p9BJUMsJzDXv94o4q7SZBNQByMRS2UYu/mMZ/ucTOhIREAERqI3A0ih5DNS1IXfNx9UEZ60t6mYUrA5AvfU4CsW77v/Md1i97qt0ERABEfiAwOfxj6v6WU5oRfPuLvgmAuoAmPCZMx8BC0X3+XT6Fc0eyIAIiIAIeCLABU2+DH0Qmj5RlfX5H578bqsZdQDqrXnLSpvMKxEBERCB4Ahw5T4+LVD2+wT4RABfXiRxI6AOgBs3H7lGwoilYzzahxOyIQIiIAJlEvgYjB8OfQZqOeF1y/uZMp1vuG11AOqr4P2Nx8Nq9bmukkVABESgGAE+NcA3np0KfRrarUEvuv042JK4EVAHwI2bj1yWibPj4cB0PpyQDREQARGogwCfHtgbegb0RWjRhj9Jr0ehAM9R1AFwBGfMxttWvH2V7MNF/59kLF/ZRUAERCAYAt+GJ0VPgun0SwQTSVyOqANQT31tadzft6nHbZXaNgJ6DWvbaryeeK2z+T9dj9sqVQScCFj213dQ4j+dSlUmEShIQB2AgsCU3InA/cj1hFPODzJtZsirrCJQNYENDQVei7wTDfmVVQRyE1AHIDcqJTQSuNyQnydUvq1QIgKhE5gPDq5gcJKTByUiUAkBdQAqwaxCQMByG2BO5NcbArUbxUBgFJy0zOC/LIYg5WMzCKgD0Ix6jCEK3td81+DoBoa8yioCVRGw7KcDcFJPvVRVUypniDoA2gmqIsC3ot1iKGx9Q15lFYGqCFju/19dlZMqRwRIQB0A7QdVErDMbmYHwDK0WmWcKqudBOZH2MsbQr/GkFdZRaAwAXUACiNTBgOBfxnyzoO8XHZYIgKhEhgFxyyd1LGhBia/mklAHYBm1muoUd0Ix942OGe5v2ooVllFIBcBy/45gBIez1WKEomAJwLqAHgCKTO5CLyJVP/OlTI70XrZm7VVBIIgsK7Bi7GGvMoqAk4E1AFwwqZMBgKW2wBrG8pVVhEokwDX/1/RUMBYQ15lFQEnAuoAOGFTJgMBSwdgJMpdwFC2sopAWQRWh2G+EdNVxrpmVD4RcCWgDoArOeVzJXA9Mr7nmhn51jTkVVYRKIuAZb8cgFO6/19WzchuVwLqAHRFox9KIsB1zu822F7LkFdZRaAsApb98qaynJJdEehFQB2AXnT0W1kELAsCaR5AWbUiuxYClv3ScjxYfFbelhNQB6DlO0BN4d9qKJdXWpZnrQ1FK6sIZBLgC4BGZP6Sb6M6APk4KZVnAuoAeAYqc7kIWE54c6GEJXOVokQiUA0By/A/349xZzVuqhQRGExAHYDBPPStGgL3opg3DEWtbMirrCLgmwCfAHCV+5DRciy4lqt8IqB3AWgfqIUAnwK4zVCyOgAGeMrqnYDlVdU3e/dGBkUgJwGNAOQEpWTeCVjmAagD4L06ZNBAYCVDXsvKmIZilVUE9DZA7QP1EbDc91QHoL56U8mDCcyCr5Y5KeoADOapbxUS0AhAhbBV1CACdw36VuzL4kg+d7EsSi0CpRDgGyqnd7TMCYCcAyARgVoIqANQC3YVCgIPQF3fDMjHAC3DrqoAEfBFwLL+/yNwYpIvR2RHBIoSUAegKDGl90WAjT87Aa6yvGtG5RMBjwQsEwAtK2J6DEGm2kpAHYC21nwYcVtuAywXRgjyouUELCMA97ScncKvmYA6ADVXQMuLt3QAlm05O4UfBgFLR1QdgDDqsLVeqAPQ2qoPIvD7DV6oA2CAp6xeCMwMKwsbLOkWgAGestoJqANgZygL7gQedM86Ze31mQz5lVUErAT4+J/rOfQt5H3M6oDyi4CFgOvOaylTeUUgITAOH95JvhT8z3136YJ5lFwEfBJYymDsUeTlipgSEaiNgDoAtaFXwSDA56AtV0FLiKII1EjA0gF9uEa/VbQITCGgDoB2hLoJWG4DjKzbeZXfagKWEQCuASARgVoJqANQK34VDgIPGSioA2CAp6xmApYOgGXky+y4DIgACagDoP2gbgIDBgdGGPIqqwhYCYwwGNAIgAGesvohoA6AH46y4k5gwD3rEI0AGOApq4nAdMi9iMGCOgAGeMrqh4A6AH44yoo7AT4J4CrDXTMqnwgYCcyH/DM62uCTL0865lU2EfBGQB0AbyhlyJHA4475mG0OKF/HKhGBqgksZihwPPLqEUADQGX1Q0AdAD8cZcWdwBvI+oJ79iELGPIqqwi4EljUNSPysQMgEYHaCagDUHsVyAEQsJwQFxRBEaiBgGUEQMP/NVSYipyWgDoA0zLRluoJPG8oUh0AAzxldSawkHNOW4fXUKyyisBgAuoADOahb/UQUAegHu4q1Z0AJwG6ikYAXMkpn1cC6gB4xSljjgSec8zHbJoDYICnrM4E5nXOOWTIM4a8yioC3gioA+ANpQwZCFhGANQBMIBXVmcC8zvnHDLkRUNeZRUBbwTUAfCGUoYMBCwdAM0BMIBXVmcClhEAdQCcsSujTwJDfRqTLRFwJGC5BcA3sm3iWG46G9/PzqcRuC7B++kfKvzM45GrG7JT47rITNrd2dNfCn6eAel9cC1YbDTJLSNPL0cTpRwVAREQgZIJrAH7/xeIPgs/joVahniRvZBwRcM/QtkwhMJBfpRXF7MW2juUWAREQAQaTGAtxBZag/MSfNq4AuY7oAwuhhRa/PKnnDrh6JJGVio4sFSECIhA2ARmgXuHQd+EhtjgTIJfn4CWJZ+HYS4JG2Ls8qncehmDeuftK4kIiIAItI7AUoj4LmjoDQ3f2+7jfnxnBX8UGyZEEH/o9ROzfxNR/zt27hj6LgIiIAJNJrABgoup8du7hMoYDZsxN17y3V/9cRRMIgIiIAKNJ7AuInwNGlMDclkJtfKfyBjEVF8x+vqLEvYxmRQBERCBYAjwEbeYrvyThoS3AXzKdDDG+QWJff0XC+4DX/a5k8mWCPQjoIWA+hHS774I8Lnyc6Bz+TJYoZ3ZPJdFFsM825S5+An8FiF8PP4wFEEsBNQBiKWm4vfzQISwdqRhWF5XnBXy29ioxWCyyLR728wIn+tBcIRIIgKlE1AHoHTEKgAE5oYeHDGJq0vwfWwJNmUyfgJcE2On+MNQBDEQUAcghlqK38fvIAR2AmIULtxyagmOn1yCTZlsBoEfNSMMRSECItB2AuxkPgGNdaLb70usQD5dECsX+V1u3fFpGYkIiIAIRE1gI3gfa2NxJXwvYxGgpEI5IfKOiPnEWq8x+H1CspPovwiURUC3AMoiK7sJgQ2TDxH9nwxfj4BuDuXnsuQVGF4PyolfXBJYIgIJgVHJB/0XgbIIaLZpWWRlNyFwBT5YXn7Ce/APQ59MDJb4n+9pvxl6AfSpEsvJMr00Nm4HXRUa63yJrLjauG0OBL0SlLP6XYWjFPNC9bSIK0HlEwERqJ0AG1LXIVcuwLNK7RHIAREoTmBOZDkf6rrvM5/mARTnrhwiIAIBEXgLvrieBC0jBwEhkCstJcC3XT4Ndd3/t2wpN4VdEQHNAagIdEuL4RDoTI6xc7GcaxzzKpsIhECAr7m+1uDIPIa8yioCfQmoA9AXkRIYCHDJW1fhyME7rpmVTwQCIcBX/rqK5fhxLVP5WkRAHYAWVbZCFQEREAEREIGEgDoACQn9FwEREAEREIEWEVAHoEWVXUOolmfbh9bgr4oUAd8ELPvxu76dkT0RSBNQByBNQ599E+AkKD7H7yKcQa3904Wc8oREgGsCuMprrhmVTwTyENAJNg8lpXElwMef3nDMzEWqFnDMq2wiEAqBhQ2OvG7Iq6wi0JeAOgB9ESmBkcAEQ/7lDXmVVQRCILCMwQnLsWMoVlnbQkAdgLbUdH1xPmooWiuhGeApa+0E2IG1PMv/SO0RyIFGE1AHoNHVG0RwDxm82MyQV1lFoG4Clv2X7wB4qe4AVH6zCagD0Oz6DSG6+w1OfBJ5lzDkV1YRqJPArobCLceNoVhlbRMBdQDaVNv1xHq9oVhOBNzfkF9ZRaAuAuug4NUNhVuWEDYUq6wiIAIi4I/A9DDF9967vhCFTxFYZlL7i0SWRCA/Ab4G23WfZ77N8xellCIgAiIQLoG/wjXLyfCccEOTZyIwDYFtscWyv/M9GLNNY1UbREAERCBCAjvDZ8sJkXkt91MjRCaXIyXAtSuegVr29wsijV1ui4AIiMA0BGbFFi5qYjkp8q1qq05jWRtEIBwCXL3yBqhlP2fe7cIJSZ6IgAiIgJ3AKTBhPTE+Cxsr2F2RBRHwTmBmWLwMat3Hn4eNmbx7J4MiIAIiUCOBFVE23wtgPUHy2egNaoxDRYtAJ4H5sYGz9q37NvP/pNO4vouACIhAEwj4uELiSfIdKE+Uw5oARTFETYCz9cdDuV9albfJLCsHIrtEBERABMIksAbc4iuCrSfKJD8XS9kGqvUsAEFSKQGOaF0ITfZFH/9/XmkEKkwEREAEKiZwEsrzcbJM23gQNg+BLldxLCquXQTmRbi7Qf8B9XE7K70PPwWbevQPECTVEeBKaxIRqJIAH5N6ADpXSYVyOPYeKF9CxCcH9EY1QJA4EeDTK7NDF4Oyc8mX+5Q12sRHZbXeBSBIqiOgDkB1rFXSfwlwoRQ96/xfHvrUbgJ/Qfg8JiQiUCkBLtMqEYGqCfDe/ZLQlasuWOWJQGAEnoY/n4W+FZhfcqcFBDQC0IJKDjRE3u/ko1OrBOqf3BKBsgmw0d8QenPZBcm+CGQRKOt+VlZZ2iYCaQJ85GkL6JPpjfosAi0hwAmAe0PV+LekwkMMUx2AEGulPT5xwt7noC+2J2RFKgJTnoI5ABzOFgsRqJOAbgHUSV9lJwQ4w/pKqF77mxDR/6YS4JX/t6G/aWqAiiseAuoAxFNXTfd0GQT4N+jSTQ9U8bWWwCRE/hXoma0loMCDIqAOQFDV0Xpn5gCBM6BbtZ6EADSNAG938VG/m5oWmOKJl8D08bouzxtIYDJiOh/Ktf7Xg2r/BARJ9AQ4ssW5LlwASyICIiACItCHwEr4/d/Q9HKp+iweMe0DfHMllw6WiIAIiIAIFCTAp1S2h3JZ35hO/PK13fXFkaw/QPmaYIkIiIAIiICBwEzIux+UQ6hqXMUg1H3gFeyfv4YuDpWIQPAENAkw+CqSgykC3F83ge4J5SJCc0IlIlAngfdQ+LXQc6FnQbnAlUQEoiCgDkAU1SQnMwgMw7aNoBtD14KuDp0VKhGBMgmwwee7LLiC33VQTvDTQlaAIImPgDoA8dWZPM4mwCcGOPS6GHQ49FjoPFAXuQCZOO9A0hwCByKUGRzD+Tny3Qh9HDoAfQMqEQEREAERCJTANfDL9V7xvoHGJLfcCMxl2Be4Dy3oVqxyiUDYBPQugLDrR965E3jYPatWIzSwCzErV5l0ldeQ8VnXzMonAiETUAcg5NqRbxYC6gBY6DUrr6UD8FCzUCgaEfgvAXUA/stCn5pFwHLitjQYzaLYjGgs75ew7EfNoKcoGktAHYDGVm3rA7OcuJcAvaGtJ9gcAJYOnWUkqTkEFUkjCagD0MhqVVAg8AiUj2y5yDBk4pMEkmYQsIwAqAPQjH1AUWQQUAcgA4o2NYIAl2N90hCJ5arRUKyylkDA0gGwjCSVEIpMioA/AuoA+GMpS+ERsFy9WRqN8Ei01yM+wsfXTLuKZR9yLVP5RKASAuoAVIJZhdREwHL1pg5ATZXmuVjLSM4L8GWCZ39kTgSCIaAOQDBVIUdKIGC5erM0HCWEIpOOBCz1aOlAOrqrbCJQHQF1AKpjrZKqJ2A5gVsajuojVYndCFhGciz7Tzd/tF0EgiGgR52CqQo5UgIBywmc7xXgO90lcRPY0OA+nySRiEBjCagD0NiqVWAgMBOUa7m7vPSKo2P7QCXtJTADQud+8H57EShyERABEYiLAF8RzNe08sTt+kIg5RM77gMPQr8GnQUqEQEREAERCJTACPj1d6gabzHwvQ+Mx361DVQiAiIgAiIQEAEO8X8L+jrU94lf9sQ0vQ+cg31sHqhEBERABESgZgKcx3IiNH2S1mfxKHMf4ORAPSVS84Gv4kVABNpNgCu8XQ4t82Qv2+KbtQ88h/1uzXYffoo+dgIus6Njj1n+N4PA9AjjEuhnmxGOooiQwET4vC703gh9l8siMOURF2EQgRgJHAen1fjHWHPN8ZkjUOyEztuckBRJmwhoJcA21XZzYt0LoezXnHAUScQEloDvZ0I1mhpxJbbVdQ6jSkQgJgKcgc2rLj2XHVOtNdvXpRAe3ztxd7PDVHRNI6ARgKbVaPPjOQYh6jGs5tdzbBEeDYfnis1p+dtuAhoBaHf9xxb9KnD4d1ANt8ZWc833dzaEyJUnr2p+qIqwKQQ0AtCUmmxHHLzvr8a/HXUdY5R8dwTfPyERgSgIqAMQRTXJSRDg8OoXRUIEAibApwG2C9g/uSYCgwjobYCDcOhLwAR2gG+zevDvFdi4DHo7lEsHS9pNYBjCHwHdCro01Cp7wgCfCpCIgAiIgAh4InA27GStyFZk269hY05P/shMswjw1tIu0AnQIvtUZ9o3kZ+dCokIiIAIiIAnAk/BTufJtsh3vtJVIgL9CCyPBC9Ci+xbnWk/2a8Q/S4CIiACIpCPwAgk6zzJFvl+Sr5ilEoEphD4HP4W2b86035PHEVABERABPwQWA9mOk+yeb+/i7yL+nFDVlpE4HrEmncf60z3mxZxUqgRE9BTABFXXotct6y1fhM48faBRASKEDi/SOKOtJb9tcOUvopAeQTUASiPrSz7IzC/wdQDhrzK2l4Clv1mvvZiU+QxEVAHIKbaaq+vllnV77UXmyI3EHjbkHdGQ15lFYHKCKgDUBlqFWQgYHlef6ShXGVtL4ElDaG/ZsirrCJQGQF1ACpDrYIMBF4y5P0U8urZfwPAlmblkwCuwscIJSIQPAF1AIKvIjkIAg8ZKHBt9u8a8itr+wisipAtHQDL/to+2opYBERABHoQmAG/cYW1zset8n7n/dyNetjXTyKQEJgbHzgBMO++lZXu84kx/RcBERABEbATuBImsk62ebexA7EnVG8TBARJJoGPY+v90Lz7VFY6TjqdJ9O6NopAYAR0MgysQuROVwLfxy//0/XX/D/cgaRnQfn/1fzZWpNyMiJ9FlrnfWyel/jo5wJQjv6UKZyxzwl/fBnQ1tDpoRb5NzKvaTGgvCIgAiIgAoMJjMDX96FZV13a5p/LI2A9GlrlBEo2+MdAre99qHN/+A78l4iACIiACHgmYL0NUGfDEGvZ41GH63iuxyxzW2AjR2Ri5US/J0EXhEpEQAREQAQ8E9gM9mJuIGL1nfMn1vBcl2lzm+LLO9BY+SR+/yEdlD6LgAiIgAj4I8B7w9dBkxOu/lfH4gFwL+N+PG8xvNCAOn0LMYyASkQgGgJaByCaqpKjIMAG/xtQzrSWVEtgWRT3xRKK3B82m/DynCMRx0AJfGRSBERABEQgReAX+Kyr/+oZXJyqA18fb29AXd6JGLjglEQEREAERKBkAhyK1q2A6jsAj3quV97S4cS5mDtzE+H/8p65yJwIVEJAtwAqwaxCPBPghDE+s81H1STVEZjDc1F8yyOfw49V3oXjO0C5eJBEBKIjoA5AdFUmh6cS4MSxT0MfE5HKCDzjuSQuOvSKZ5tVmWMndFfo36sqUOWIgG8C6gD4Jip7VRIYh8LWh/IerKR8AteWUEQZNktwc5BJvu6XI1DnDdqqLyIgAiIgApUTmAUlngaN+V5y6L5zFcYylrhlQxp67Gn/7oW/y0ElIiACIiACARHgeu4xLyObbmhC+3x6SfXMiYBXQ0OLt9Mf3q74OTTmOQtwXyICIiACzSXA0YCDoM9DO0/i+u7G5EawnBValswHw1xoKMT64aukObo0EioRAREQARGIgACv1HaGjoFylbYQG5fQfeIs9xOgM0PLlrlRAO+ph/DCJ/rA9QkOgS4IlYhAIwlw+E0iAk0nwKvXdaCrQfnM9gLQT0Fnh7rIE8jEpxCaKOyUPAe9BXou9CFolbIKCtsRuio07wqBQ5F2Zair3ICM46CsVzb8HPF4GioRAREQARFoIAE2bq5X4KMbyCPmkFYw1CUf5yvjHQcx85TvLSGgxwBbUtEKcxoClivbpaexpg11EljGUPhjyMtOgEQEWkdAHYDWVbkCnkrgYQMJS4NjKFZZuxCwdMgsHcEu7mizCMRBQB2AOOpJXvonYDnxswOgY8d/nbhatDyXb+kIuvqrfCIQBAGdxIKoBjlRAwFLB4Br4q9Yg88qMpvAetmbc2217Ae5ClAiEQiVgDoAodaM/CqbwAQUYJnJv0XZDsp+LgIcjbHcklEHIBdmJRIBERCBZhH4J8JxfRKAKw4OaxaOKKM53lCHrPt5ooxaTouACIiACJgIHIncrh0A5vupqXRlthLgug5vQ13rcMDqgPKLgAiIgAjESeBzcNu18WA+Pj62aZyhR+81Fwm6H2qpv1Oip6AAREAEREAEnAjwvQFvQi2NyBvI/xmn0pXJlcAiyHgH1FJvzLu9qwPKJwIiIAIiED+B8xGCtSHh2vHHQD8aP46gI+Ck5V2gL0KtdTYRNmaDSkRABERABFpKYDPEbW1MkvxsVH4H3RK6GJQvJJK4E+C7SvjehrWhP4T6fGPgibAnEYFWE9DLgFpd/QoeBHhVeQ+ULwmStIMAO2x8edDd7QhXUYpANgGtA5DNRVvbQ4DD94e1J1xFCgIXQtX4a1doPQGNALR+FxAAEGBH+CbomqLReAKTESFfOczbCRIRaDUBjQC0uvoV/FQCHAXYG/quiDSewK8QoRr/xlezAsxDYPo8iZRGBFpA4DnEyA7xqBbE2tYQ70Lge0DV0WvrHqC4RUAERKALAXaILcsDJ08D6L+/Jyt8sXwFdbtkl3rXZhEQAREQAREYMicY/Afqq+GRnfpZ8r6/VmzUwS0CIiACItCXAJ/hfwSqxjt+BnxXwLZ9a1wJREAEREAERGAqgYXwn4+KqRMQLwMu86zXNk/dofVPBERABEQgP4HZkfQCqDoB8TF4AvW2Vv6qVkoREAEREAERGEyAa2UcALW+NEidiOo6EeehvuYZXI36JgIiIAIiIAJuBJZGtjFQNeThMngU9bO1W/UqlwiIgAiIgAj0JrAhftajgmF1Atjw7w8d1rvq9KsIiIAIiIAI2AmsCBNHQQegGhWonsFr4H4udCuoVjQFBIkIFCWgdwEUJab0IjCYAI+hFaCfhPJdAktBR0LngHJNATVOgGAQNvRvQJ+C8kqfT2ZcC70FOgkqEQERcCTw/wG1raauTNy88gAAAABJRU5ErkJggg==;" vertex="1" parent="1">
          <mxGeometry x="588" y="-944" width="52" height="52" as="geometry" />
        </mxCell>
        <mxCell id="izE_Z0ZMzIlTIWPwhQTC-4" value="" style="shape=image;verticalLabelPosition=bottom;labelBackgroundColor=default;verticalAlign=top;aspect=fixed;imageAspect=0;image=data:image/png,iVBORw0KGgoAAAANSUhEUgAAAgAAAAIACAYAAAD0eNT6AAAAAXNSR0IArs4c6QAAAERlWElmTU0AKgAAAAgAAYdpAAQAAAABAAAAGgAAAAAAA6ABAAMAAAABAAEAAKACAAQAAAABAAACAKADAAQAAAABAAACAAAAAAAL+LWFAABAAElEQVR4Aex9B7gkRfU9YckgIDnuIyNRQJDMI4NEQUBBYEFECT9RFDERxIRiFlGUsAISJShJQHkkyaCS85JzFJYM//85ugOzsxO6+96qru4+9/vOm5nuqhtOVXffrqruN9lkEjEgBsSAGBADYkAMiAExIAbEgBgQA2JADIgBMSAGxIAYEANiQAyIATEgBsSAGBADYkAMiAExIAbEgBgQA2JADIgBMSAGxIAYEANiQAyIATEgBsSAGBADYkAMiAExIAbEgBgQA2JADIgBMSAGxIAYEANiQAyIATEgBsSAGBADYkAMiAExIAbEgBgQA2JADIgBMSAGxIAYEANiQAyIATEgBsSAGBADYkAMiAExIAbEgBgQA2JADIgBMSAGxIAYEANiQAyIATEgBsSAGBADYkAMiAExIAbEgBgQA2JADIgBMSAGxIAYEANiQAyIATEgBsSAGBADYkAMiAExIAbEgBgQA2JADIgBMSAGxIAYEANiQAyIATEgBsSAGBADVWVg8qo67uz3NND3YWBJYDFgDmAmYBQgEQNiQAyIgfoy8BZCewV4CrgHuAv4F/A2UGtpcgIwJ1p2R2AzYA1gOkAiBsSAGBADYoAJwZXAucBpwPNA7aSJCcCqaMUDgc0B3eHXrksrIDEgBsSAKwNvQNvZwOHAv101l6ysSQnA0uD6Z8CGJXMu82JADIgBMVA9Bv4fXP4L8GXg/uq5P6nHU066qXZbpkZE3wP+AHB+XyIGxIAYEANiIC8DvGHmOrHPTqh4NT6ZFFRW6j4CMBotcyrAYX+JGBADYkAMiAEvBq6AIq4je8xLYWw9dU4AVgGZ5wOzxyZV9sSAGBADYqARDDyJKDcF+NRA5WSKynmczeGNUWwE0MU/G18qJQbEgBgQA/kZmBtVeK3hk2SVkzqOAHwUrfB3YIbKtYYcFgNiQAyIgSoy8B84PQz8s0rO1y0B4CK/64BZq9QI8lUMiAExIAYqz8ATiOAjwONViaROUwB8mx8X/OniX5XeJz/FgBgQA/VhYB6EcjJQmafrKuNohj5yBMpsk6GciogBMSAGxIAYCMHAEJS+CfAtgslLXaYAlgXTNwN6s1/yXU4OigExIAZqzcBriG4Z4IHUo6zLFMCvQbQu/qn3NvknBsSAGKg/A/y/Mj+uQph1GAFYF0RfWgWy5aMYEANiQAw0ggG+IZD/YfaWlKOtwxqAo0HwIimTLN/EgBgQA2KgUQzw5noW4MyUo676CABf9ct5Fq+pDGZtNwF/BR4CXgIkYkAMiAExUF8G+OTYQgDf6Le8Y5j8L4LzArX8V8KOPBVW9Q3U5EXbAxdADxcTSsSAGBADYqCZDPAV8pcDHtcU6vh8M2mME/W1Dg31DnQcEMddWREDYkAMiIHEGeCI8veAdwFrIsD/RyMJwMBM0PkWYG2g/QP4JpViQAyIATFQbQaYBFivL3xF8FTVpiFN7zd0aJxz0gxNXokBMSAGxEDJDHAkwGM6YKWS4+hp3mvxXE8DAXcsadTNof8DjTpUXQyIATEgBurJAKcAPKaHrdeqYOxWOQFYwsgKX9V4t1GHqosBMSAGxEB9GbgeoVmf5bdeq4KxW+UEYHYjKxca66u6GBADYkAM1J8BPiFmkTkslUPWrXICwEWAFuH7AyRiQAyIATEgBvoxMK7fzgz7rNeqDCaKFalyAjB9sZDfq/Xce9/0RQyIATEgBsRAdwae6b4589YZMpeMXLDKCYCVKj7eIREDYkAMiAEx0I+B2l4rmpwA9Gtw7RMDYkAMiAExUGsGlADUunkVnBgQA2JADIiB7gwoAejOi7aKATEgBsSAGKg1A6NqHV29guO/bp4HmA94HXgCeBpIQeaGE8TUwGMAfeNLNMoW/pcv/jeuDwBPAvTtTUAiBsSAGBADFWZgBL5zcUZRDFck9pXh51jgWaAz1nux7UcAL3KxZTQM/hTg45Sdfj2FbccAHwZiCy/2/C+RNwOdfr2CbWcCHwMkYkAMiIEsDGyNQp3nkjy/z85iRGXyMTBibJThfOail+aF7GSAd9KDOtt4lOFFb3IgtHAk4jDgNWCQX3zd8nFArMdgPg1bfGRnkF/cPwIsCEjEgBgQA/0YUALQj52S9vEEnuVE36vMcEl+ZzG7AArdDvTyvdf2M1CHw/ChZFooPhfoZb/Xdt6Nc4ogpHwfynvZ77Wd0wIcYZGIATEgBnoxoASgFzMlbh+B7V4n9izbh0v0vZ/p6bDzBiBLDN3K8I47hHB04SSgm80s225EXcYWQr4IpVl86FaGSQATLokYEANioBsDSgC6sVLythHY73ZCz7ptuGT/e5n/tTEuxr9NL+WG7bs6+HW4wX6vqstgx9tG3y7tpVzbxYAYaDwDSgAS7AIj8Cnrxb5bueEEY1oUPnGVejd/82zjfzn0fMJjGuh7yMGvV6FjfsBTikxJdONSCwM9W0W6xEB9GKhtAqD3AKTVSXeFO1M5uLQ4dKzloKelYiN88VgwxymAHVtKHT7ngg6vC/dnHPyRCjEgBsRAZRhQApBWU23m6M4Wjro2d9Tl7ZdXH94YMYZcQOlIoVSJATEgBuwMeJ087Z5IAxlYwpEGjgJ4SRP8mgFk8SVLEjEgBsRAIxhQApBOM88EV6Z3dIdvDfSSOb0UQc8cgNf6BE+/GGLoRxVpQyIGxIAYSIIBJQBJNMN/neACOb44x0te8lIEPS876hoPXVy17yGeftGf/3g4JR1iQAyIgSowoAQgnVbixf8JR3cela5cDPDJAP6vAIkYEANioBEMKAFIq5k9n0f/u2NoTfDrJvD1oiNnUiUGxIAYSJoBJQBpNc+fnNx5HXrOd9JFNX8G3nLSd6aTHqrh2wUf5BcH8fTLwR2pEANiQAyEZUAJQFh+82o/DxWuzVupS/lfYNuzXbYX3cTphN8XrdxW73J8H2n7bf3KYftvW5Wg/tPAUQ56pEIMiAExIAYiMMALCS8ARTEcwcciJlZGpSz/aa9X3PwXwTMXMTygDlfvPwz0sjtoO/8V7zIDbBTZzf9OyCmKQfZ77X8XdXcoYlh1xIAYaAQDtX0TYJVbbwTO9zqpZ9k+nHDwO8E3LgrMEkd7medRZ6mAca0A3Xy6oN1mlu+cPgjx/wlaoc6GL3z9cRZfOst8t6VEn2JADIiBLgwoAehCStmbRuBA58k8z+/hsgMYYJ9vBcxzsb0D5RcboNNjNxOM+4CsXD+Hsht4GB6gg0lAnpEA/s+FfQfo1G4xIAbEgBKABPtA3RMAUs6X+RwNcFFfrwvuM9h3ADAtEEv41rxvAS8AvfziNMavAE4dxBKuadkVeADo5RdHVs4GlgQkYkAMiIFBDNQ2AeD/eK+qjMDxYYPz66LuZYb6MavOBGObAMsCCwC8uD4OXA1cAXi9WAeqcsnUKL0OsBowL8B/ZMQFg/8GLgLGA2UI+/VKwHrA/ADXRPAdC3cD5wNc9CcRA2JADGRhgAkAbxqKyjmo+PGilVWvOwNMAHrd5WXZPtxdrbaKATEgBsSAGHiPgdqOAHDIVCIGxIAYEANiQAw0jAElAA1rcIUrBsSAGBADYoAMKAFQPxADYkAMiAEx0EAGlAA0sNEVshgQA2JADIgBJQDqA2JADIgBMSAGGsiAEoAGNrpCFgNiQAyIATGgBEB9QAyIATEgBsRAAxlQAtDARlfIYkAMiAExIAaUAKgPiAExIAbEgBhoIANKABrY6ApZDIgBMSAGxIASAPUBMSAGxIAYEAMNZEAJQAMbXSGLATEgBsSAGFACoD4gBsSAGBADYqCBDIxqYMytkP+CL2X9G92WD/oUA2JADIiBtBngvzmvpTQ5AZipli2qoMSAGBADYkAMZGBAUwAZSFIRMSAGxIAYEAN1Y0AJQN1aVPGIATEgBsSAGMjAgBKADCSpiBgQA2JADIiBujGgBKBuLap4xIAYEANiQAxkYEAJQAaSVEQMiAExIAbEQN0YUAJQtxZVPGJADIgBMSAGMjCgBCADSSoiBsSAGBADYqBuDCgBqFuLKh4xIAbEgBgQAxkYUAKQgSQVEQNiQAyIATFQNwaUANStRRWPGBADYkAMiIEMDCgByECSiogBMSAGxIAYqBsDSgDq1qKKRwyIATEgBsRABgaUAGQgSUXEgBgQA2JADNSNASUAdWtRxSMGxIAYEANiIAMDTf53wFuCn6sycKQiYkAMiAEx0FwGPobQT6pj+E1OAF5Gg75Qx0ZVTGJADIgBMeDGwHg3TYkp0hRAYg0id8SAGBADYkAMxGBACUAMlmVDDIgBMSAGxEBiDCgBSKxB5I4YEANiQAyIgRgMKAGIwbJsiAExIAbEgBhIjAElAIk1iNwRA2JADIgBMRCDASUAMViWDTEgBsSAGBADiTGgBCCxBpE7YkAMiAExIAZiMKAEIAbLsiEGxIAYEANiIDEGlAAk1iByRwyIATEgBsRADAaUAMRgWTbEgBgQA2JADCTGgBKAxBpE7ogBMSAGxIAYiMGAEoAYLMuGGBADYkAMiIHEGFACkFiDyB0xIAbEgBgQAzEYUAIQg2XZEANiQAyIATGQGANKABJrELkjBsSAGBADYiAGA0oAYrAsG2JADIgBMSAGEmNACUBiDSJ3xIAYEANiQAzEYEAJQAyWZUMMiAExIAbEQGIMKAFIrEHkjhgQA2JADIiBGAwoAYjBsmyIATEgBsSAGEiMASUAiTWI3BEDYkAMiAExEIMBJQAxWJYNMSAGqsbAYnD4e8B1wDPA88ANwBHAIoBEDIiBEhkYge3/Z8Bwib7LtBgQA2kyMBXc+iHwFtDr/PIO9jERmAaQ1J+BrRFir76QZfvZqVI0KlXH5JcYEANiIDIDU8PemcDmA+xy5PQrwDLAVsCbgEQMVI4BTQFUrsnksBgQA4EY+C70Drr4t5veBD9+1L5B38VAlRhQAlCl1pKvYkAMhGJgUSjev4DyfVFn6QL1VEUMlM6AEoDSm0AOiAExkAADe8OHKQv4wTp7FKinKmKgdAaUAJTeBHJADIiBBBhYz+DDNoa6qioGSmNACUBp1MuwGBADCTGwkMGXBVF3cUN9VRUDpTCgBKAU2mVUDIiBxBgoMvzfHsIG7T/0XQxUgQElAFVoJfkoBsRAaAbuNxpQAmAkUNXjM6AEID7nsigGxEB6DFxvdGk91B9l1KHqYiAqA0oAotItY2JADCTKwN+Nfs2M+h8x6lB1MRCVASUAUemWMTEgBhJl4G/w612jb5oGMBKo6nEZUAIQl29ZEwNiIE0GnoVb/za6tqGxvqqLgagMKAGISreMiQExkDADlxh9WxX1ZzTqUHUxEI0BJQDRqJYhMSAGEmeA0wAW4T8TWtuiQHXFQEwGlADEZFu2xIAYSJmBK+Hca0YHtQ7ASKCqx2NACUA8rmVJDIiBtBl4He5dbXRR6wCMBKp6PAaUAMTjWpbEgBjozwCH0D8F/AV4FHgeeAQ4H9gVmBYILdZ1APzPgPOEdjKA/iHo/C5wHcAFkeT+VuAo4MOARAwkxcAIvPl/BgwnFY2cEQPNZmAlhH8H0O+Yvhf7Q8+xrzjAh37+tfbtDB1VEd4EHgxw9KPlf7fPY7B/JqCJsjWC7sZJ1m1nN5G00DGPGBtlOLSD0i8GxEAmBj6NUoMuQK2TLcttnklrsUK8ID4DtOwV+fxDMdPRazFW+po1xttQ1vJPk6IH6GRQCYATkZ5qRqAsa8ftVm7Y0xnpEgNiIDcDk6PGoQBfwNPtGO217RWUXxQIJadBcS/bWbY/hvqMLXU5AA5miae9DKcH1kk9MGf/lAA4E+qhbgRK2jtm3u/DHk5IhxgQA4UYmA61TgfyHret8mcVspqt0h4Gv1r+cS1AyjIXnOMTDy1/83xyFKZK0xzWdqhtAqBFgNauofpiQAzkZYCL5C4Htstbsa38lvg+f9tvz6/W9wHQlw08HQqgazfoLLqochrU/QPwPaAKIx1wU9KNASUA3VjRNjEgBkIxsBwUXwOsbDQwJeqvadTRq/qD2HFfr50Zt6eeAKyXMY5exXjh/wZwBjB9r0LanjYDSgDSbh95JwbqxMBWCOYfwGinoBZx0tNNjfVxwGEonaqb4kS2Lezkx7bQczkwr5M+qYnIgBKAiGTLlBhoMANccMZ5e8935Yc8f1mnARjnqgm3t+fQPf8NMt8fsELC8cq1LgyEPIC6mNMmMSAGGsbAKMT7a+BHgPf5xjpM368pLsXOd/oVyLAv5WmA+zP4n6fI/CjMVylzwZykIgx4H5AVCVtuigExEIGB2WCDQ+l7B7DFi/NVAfS2VL6ILze2fhT83LBgvRjVOGzvLTNA4ZnAV70VS18YBpQAhOFVWsVA0xlYAgRwsd9wICIuhF6+JjikWKcBuNBx5pAOGnSPRd03DPV7VeU15YfAcQBf7SxJmAElAAk3jlwTAxVlYC34zbvzxQL5zwtXjLtMawLA6Y/hQBxY1T4GBd+3KulTfzfs4zTKnH3KaFfJDCgBKLkBZF4M1IyBPRDP34HZA8XFof9dgTsD6W9Xy/8MOL59Q4HvGxSoE6vK92DolIDG1oBujgJ9KKANqW4oAyOIO8/bqzrLDjeUN4UtBkIwwOfyfwp0Hmeev1+Gfr4AKKZcAGOWGO6K6WwBW1Ohzu+NMQ7i5wXoTzkRGkRbbd8EOCjwlPePwLlBHa/f/uGUg5NvYqBCDPCRtz8D/Y43675HoZ//MTC27A+DVt+HYjtdwN5+qPM2YI21V/23oHvfAn6lUEUJQAqt0OHDCH736mxZtg936NNPMSAG8jMwH6rcBGQ55oqW+Sf08zGzMoRvLizqd6ve7mU4XsDmJqjzkkO8rbi7fR4N/aMK+FZmldomAFoDUGa3km0xUG0GPgr3+ajcigHD+BN0cy6ZIwBlyK0w+oTRcFWGv/+KONcEHjLG26/6nth5HpDq0xH9fK/dPiUAtWtSBSQGojCwHayMAHMHssa7Rz5OtgPwaiAbWdTSD65mt8iGqFyVcy0THr7Z7ypLwAPqbjxB/9CActodmIGqdMrANEi9GBADGRngK2QPBE4FpstYJ28xPuY3Bvga8C5QtlgfB+QTEcuWHUQO+8+iLEctTspRJ2/RZVCBo0dr562o8n4MjPJTJU0VY4D/wWuaRHx+HX68logvcqM3A/z3sccDn+xdxLznaWj4OMBH8FKRSxwc4SjAvx30xFLBJGwX4AHgIICJn7fMBoUXAZ8BTvZWLn31ZoDDjxyeK4rhetMzSXRTY8sewKXAK0BR3kLV4+KjC4EdAT5SJkmLAQ7185nuUO1PvRx+HgJSlDvglCV2XuiqKjwmmaBb4u9X913oPgwIkWRArVlquwjQzEyJCkZgu1+nGrRvuETfY5vmIq27gUGcpLL/Zvi6eGySZK8nA1wJ/xAQsn/wefsP9PSg/B2/NMbPFwpxBKWqshocfxII2QdOg/5Q00oW3pUAWNgLVHcEei2dcTiQX6mp5apennwsXJVR9zn4zHlCSbkMbA7z/wFC9oFfQH/qoz5bOHCwHnRUWUbD+VuAkH3hOujnaFNKogQgpdaY4MsIPi0dcTjBmLxdmgMKQ2ftljYYVPce+M+1CpJyGNgfZt8GBrVT0f18Ocxe5YSW2+pMqPEmUDRW1vtBbqvpVSAP5wMWHgbVfRj6l08odCUACTVGy5URfBnUkfrtH24pqvHnz4wc9eMv1r6v1rh9Ug2Ni4OPDNx3OKqwWaoE9PDrKiMnN/TQW7XNHK053MjFoPPHy9C/VSLEKAFIpCHa3RjBj0GdqN/+4XZlNfzO/80deui2H79e+x5BHKkPD9ep+8yKYPjPfLzar5ue+6D/QxUk7RAjL/xHRlz5Xhf5HALhKE63NvbYRr6+kgBZtU0A9B6ABHpXIBe2h14O11Vd5kcAG1U9iIr4vwj8/AcQcq76auhfHbgTqJr8zegwz7frGnWkVP1oOLMp8EIgp8jXEcCxAJ9ikjgzoATAmdCE1O2ekC9WV+oUi5WLUPX5ul0+5hfyzvxU6F8f4LP+VZTr4DRH1SyygaVygnWZFK0C8CmjUMLjn48vc02TRAz8l4ER/LUMMw3XmEc+Qsdnay38pFT3DcSigz9ch+UJlhyHanP2xUOBOshfEISFp3F1IKFLDB/ENl6kLdwMqsupoyW72A69SVMAoRmWflcGeEJP9aUaRQLl8N9ORSqqTl8G2EcOBUIOsY6H/m0n2MFH5cU6DTAEBhauPAuTBvA8Nm0E/GbSXW5bOEV1NbCem0YpqiwDI/B8UMbYb/9wZSPv7/go7H4M6Bd7FffxLXESPwa4SPRsIGRfYD/8iJ/LSWjiFImVMy6eq7Psh+C4gM/KU6/6XHi4T0QCazsCEJFDd1Mj0Nirg2TZPuzuURoKPV5YkoW/MspwrlFiZ2ABqPgnELIN+Y9e5rW7mqSGR4zcnZFkVL5ObQV1oV85/hPYmMLX7a7aapsAxCCvK6PaGIyBzwTTXL7i3ct3ofIezIcILgM+HDCSs6B7beDxgDbKVG2dBuBCyCnLDCCC7T/DBp/2eDigrf2hm9NXdZruDEhXvVSPIBzLHcxwvej4bzRz4a/1bWUWTkPXfRHx6c2AxTsuLzo3ACHb6fvQX/cTMtejWDlcGTqaIPMgyOsBK1/96n8xMJEaAQhMsNT7MLAL1EzloypJLTPDq08k6Vk1nOIISqg5eT5FsCvwDYAn6zoLRwCsMdbtccBe7f0EdgwDIac9vg39ekoIJOSVKfJWUPmkGdjNwTv+W94XAoGv97QKL2KSYgzsUazawFrPogQvaCcMLFmPAk8hDOui1A3rQUWmKF5FqR2A7wHWxKmbQf4XSb74TNIgBkYQKztTUQzXjCvOtxXlolWP2TqfIgglPFCtC4P4TPmioRyssV6+4pfctdra6/N26Fy4xrz1Co0L0Cwcvo76TZzO+jTiZuwW7rrV5ZqDUKIpgFDMSq8bAx6L//4Ab95282hSRXyL2p8m3ZxrC+eXPUY6chmtQeEFEQO585RLoGwN4AFPpRXRZV0IOA3iXKsisXq6eRKUrQtwFMVTRnsqa4ouTQHUo6VnQBjbOYQy1kHHIBXHDSqQYf+uKFP3VdQZaMhVhHdN3tIaUfDWWwV9l8NJrnuwCKdNmigh+k2I/l37tlECUI8m5vyX9R//XAUdd0Wg40rYuMdoh4+ybWLU0bTqjyBg75PkxtDJfjMENE04r32NMegmrQNoUfVJfLkMmLu1wenzYSc9jVKjBKAeze0x/O9xZ56FTV6ExmYpOKDMbgP2a/fEDHBhJ1/O4y3LQCH1ru2tuAL6rNMAyyFG7wthqrRNDscOBP4ITBvAyYsD6JTKhBkYgW+8mBTFcMKx5XFtCQMHLe44Nz9jHqPGsvOi/ltAy36RTw6/zmn0o2nV9zRy3q+dXoPuHRtG6CoOfDaBM17wT3Hgqlf/4/kr5LmgtosAwVtlZQSe9+oQWbYPVzby/zk+Ch/rAxcAWeLtV+aY/6mM+vdcB79PhQ4uQtNIVrammxLFQr4IiHO7hwG822uCkM/ngX7H1qB9sUbeymoPjnBwqmQQD5b9XwocnBKAwAQXUT9i7FTDRYyWXIePDfFd/0cDXEVrOWja664GXbHl4zDY7oPl+7PQdQLAhZAxRzJgrnLC9RMPABa+B9XlS1+a8ojbmUYuH0H9usqyCGwcMKi/WPaPhf7QNwBKAEByajIChywdZzi1gHr4w2fn9wB4p/86YIm5W907oLMMmQpGPZOYVmzjofcsYCdgOkAyKQOjsekWoMVZiM/roH+eSU3XbsvnHXhcsnasTDbZ5oiJQ/Mh+lZL5y+gn6MwoUUJQGiGC+gfQZ1WRyjy+WnU/yrADJ4nq78DRwGbABxeL1OY0a4H8K6WF7Qi8WWt8xXoL0uOgOGsfhYp9yL0c7SkjBGOTk6nwQaOUBwPXAtwKJ4vLzkA4JqI2DITDJ4HFOE1a52HoX/52IFFtreoA4f7RvY5tDkOyb/twEuvfsb1Q3uFDqJNvxKANjJS+ToCR3p1EOv2h6CbF0a+ez6mDMHYocA4wBpDlvpvwg7/gVBZshQMZ/HTowxHOpjwxb4rnQM2DwKeBHrF8Qb2HQ5MDcQU3j39DOjll8d2vv55y5hBlWDLOqVyTgk+hzDJUb3fAR79ppcOPs2yYQjn++hUAtCHnLJ2jcBwr07itZ1DWD8HFgoc5PrQfwHwDuDlexY9ZweOK4v6qyPHzLsHzlF/NItzhjJMbngy5Or4LG3BMpcCvDOPLZ+DQSaDWf3MW479usyRptB8Wi96L8LBskcdrRzNCgUcRc3bN/KUvw/6P2R1tEB9JQAFSAtdZQQG8nQeS1mewLhqfQPHoJgtc0iY0w8W3yx1OU9XtnwWDlhisNS9EbZ3ATznEdeEPvaVd4Eivv0D9bjuI7YwCX0eKOJz1jrHQn/sUY4YPG7vwFsK01RFuVoEFTnClrUfFCnH42LOog4a6ykBMBIYovoIlBbpSNY6N8EuLxq8gBcR3uHtB3CaweqLpf4TsJ/CXceM8IPDxJZYrHXvh322yQxAEeFFjX3Ca2FdWUnAoojhLsDKZ7/6V0E/p0XqJLMhGN4k9It70L6DK0rIGvD7aWPsg7g5BfqnLZEfJQAlkt/L9Ah2DOo4IffnXSfAC91BAIf7QvqVVfcP4Ecqcjwcyep3yHJPwQ8mAtNkJIYXMp64+83vF/WXF8oypgN4MbsMKOp3lnr3QP/iQJ2Eo0lZYu9V5ooKkvEZ+Bx66ujABHhRApBAI3S6MIINvQ6mmNt593o0sESngxN+8+5wT+AJIKZfg2wtOcG/FD7WSowbrl5nm/UaIVkM+/gI0nhgEM+W/WWNBDDuowLHxukGTjvURbiI09LWXJtSxtRPEf4nR6VDAUu8g+q+Av0fB1IQJQAptEKHDyP4PagTxdzPIcBzgQ0m+DkFPjnHfz8Q048sts6a4GNKH1cnyNOd8IltyBMexTq/n6VtOsuUlQQwXo6GsF93+uT1mxe9fYA6CI97Ky+bV4AITpOd4xBrP64eg/6PJMSFEoCEGqPlygi+9OtEZe7jwr7bE/WPj5yVsZIWZvvKOtgb8mJj6Q8c3vWa3y/ix1WwX8Z0ABtsK4CjXEX8zlrnJ9A/JVBl4Rz1q0DWmLuV+3niBCwA//5ljLFb3O3beKzNmxgPSgASaxC6MwK0dxx9H8zHu+BsZ5KXqOwNv9SO3TkocyRgObRL6EWrF8LGzIn2y6xuXYyClv57W1ZDJZT7MGw+YoxvEDdnQv/0JcQ2yKQSgEEMlbB/BDYHdSjtf5+jZ8DXtiW0U16Tn0WF0HecVe0XZY4EzIN2uR4Iyd2/oX9BoKpyABy38pPa3S/bYnvAOroxiJfvw0Zrqo02UxIlACm1xgRfRvA5qFNp/2ST8eUZhwBzTeCtCh+j4SQXVYW+46hi/ygzCeDd2elASN64WHZVoIqyApy2crNLQoHzgnwQwJFDa1y96vP/m6QUM9yZRJQATEJJ+RtG4EKvTtXk7U+Dl9OAzwGLA1UWnoCWAb4AnAO8ADS5bVuxl5kEsE2+A4S8KLwG/Z8EqiZc+Mvjr9VORT5PTCRormn4ozGWQfGTKy6sTV2UACTYQiPwaVAHa8r++8EFH0vbABgF1FWmRGA8YXB0INVFlrH6XJlrAti/dgBCDgszwWA786JaJTkVzlr6AEdAyh4Knw0+XG6MYxAH90B/VW5QlACgsVKTETg0qJPVeT/nS78OLJxaw0T0Z2nYOgzgyaTObd0rtjJHAtjMfAscX57Uyz+P7adAP+9GqyKfgaPWuDnqVZbQ9jjAGkO/+n+F/iot+FQCUFZv7GN3JHAn7deBy9r3OGLmYpml+vDS1F18bvjnwHNAWe1Tht2yk4CFwDdXr4eM/Rror8oaltEOXHwJOsqQj8HoS0DItjwS+qs2SqkEoIze2MfmnNj3MBCyo6ai+23EeS7A57GrduDA5ejCu8VPAX8HQs5Tp9I/6EfZSQDfYHchEJKTB6GfjyNWQe6GkxYuzi8hyP1gk+cai9/96vKlT/uWEJeHSSUAHiw66eDF/1agX2cruu9B6E3lovEifOELUniHJSnGAEdKjgZCzlXn6WvvwJdQiWvZSQDXZ/wSyMNH3rL899ybAanLr+Fg3tjay/Mx2KkjBcmbit8Y/W33vdt3nss2jhRPCDNKAEKwWkBnyIv/n+EPDzrOgR0DvAZ068yht/ECwVXvMwESHwa4qOmbAFcdh26/bvp5QufFcRFgRuAKoFs56zYuDCy73+wFH3i3Z42lV/03ofvjQMpC/3r5n3X7OhECZNLGNRZZfSpSjguUqz5lqQQgQmccZGIOFAj1OtYLoHuaDgdo70DgUaBIx89bZxzscBiuSgue4G6lhO8xJ8ex2vQJ2DoU+CDQLtPjx6VA3j6SpfzV0Msh+TJlQxh/Acjib5EyfHZ8yTIDHGB7Fuy3DqcfNsCGx+6DoKQI/1nrsC/O5eFoyTqUAJTcADHu/HuFyAsyV/aGmnbgHf/uAIfiJHEYYJt+EeDbEbOezPKUux56uQ5hKqCX1H0kgP9v4j4gD295yp7bi9hEtl9jjJ31Q8p8UM5EKg/necqeAN2dN1Uh4wmpWwlASHYH6C7z4t/uGp/N3QjgIywe6wS4Wv0AQHf8IKEk4Z0y77ReAfKc3LqV5fz+mcCaQFapexIwO4i4AujGl3Ub77AXyEp0CeW+Y4yb8XEkIZRwSszaBt3q89z4jVBOl6RXCUBJxKdy8e8Mn8+f/x4osk6A86O/AGYFJGkwMDfcGAsUSey4MI3tuTBQROqeBHBdzVig28XCum3HIoRHqrO2Q8xcSxBKLoZiK/+d9cdD57ahHC5RrxKAEshP9eLfTgV9PBh4Eug8GLr9vhTllgEkaTKwKtzi8H23tuvc9hDKcQRnZsAqdU8CyM/XAI6SdPJo+c057FSFiQ8Xf1ri+3XA4LynZx6Drx8J6G+ZqpUARGa/Chf/dko417U7cB3Q7S7ySmzfEpCkz8AUcJHz9zcDnSdvDsteDuwAeK/ZaEISsA1485huabULh7FTlvPhXMvXIp/3BAzOMwHgsTJ/QF/LVq0EIGILVO3i30nNvNiwBbATsDlQ5wMD4dVa+A4GDsMyIeDz55zTDilNSAJWBIFeT2F8MmRjOOj+InQUufC31xnt4Ec3FRc5+EY/zwb4dE2dRQlApNat+sU/Ek0yU2MGmpAEzIf2uxFov9Dl/c7RmNST62WMMZITPoEUQr4OpXk57yx/OHRwxKzuogQgQgvzxHcT0NnJPH7/GXo5JycRA1VgIGQS8DcQ0O/xxFj88F0IfGqi6PHNO8/UhU8OPQ4UjZH1Tg0UJJ/PL7KImT69AYwBmiJKACK09JGwYTlQetXVxT9C48mEOwMhk4BvuHtbTCHvHr8P9Dp2e23nOoJFipmMXuuEAvG1x/006oe6y+Yi1nZbWb4/izp8wqFJogQgcGvzeV4+HpelA+Ypo4t/4IaT+qAMhEoCXoLXMwX1PJ/yXVD8dSDLsc1yVVpQy9iyxNWvzArQEUKYWPwB6Ge7fd+dKFuVxMuTLyUAnmx20fVlbGvvaB7fdfHvQrQ2VY6BUEnAjokxsQr8uRvod+zfi/1Vu/vkouB3B8TVL2bu+yoQSpgEHAIMmg7gSIbHI6+h4gipVwlASHah+3Rg0EGQZ78u/oEbTOqjMhAiCfhl1AiyGePahJ2BvwCcO+dF6RHgPGB3oKqvlr0Nvuc5f3WWvRj1QwufeDkMuBF4FhgP8I7/aIBPbjRZlAAEbv3LoL+z0xf9rYt/4MaS+lIY8E4CTiklimYa/TnCLno+Y71XAb0yvLy+U9sEgMM/KQizTQ/hncN2wJseyqRDDCTEABe+fQy40sknXlQkcRjgkxcWmQ6V17QoUF0x0I0B77eZdbORZRuHyHhyswj/s5su/hYGJ67LRWJDAJ+1nq0NvBNtvfiDn5zf5FAtha8+5YXquTZwCHcc0CqDr5KCDJDbLQC+etp6R8hjThKHgcthhoucLY9fboD61kQiTrSyUhkGUkkAzgFj1oUuc0DHqsAVlWE/DUfJ2/ITsCw+lwY4H8iLvqc8BWVMBHjhuQW4FfgX8CIgyc7ARihqvfhzWJmjZZI4DDAxvhZYy2COCYBEDNSWAV4MeGKyoAovBym7AReDA3sAY4FBq64tbZGl7jvwgQkBFxrxcSk+Dirpz8DV2J2F235lYiwq6x9F8/YebGw3HisclZPEZ2BrmOx3PA3ap+tShjbb1UgyG4EHyaIZbDWpCFdObwr8CrgPGNRZy97PkYEjgPWAKQHJ+wyshq8e7bPJ+yr1LRIDqzu03cqRfJWZiRlQAjAxH0F+TQ2tfPTHeoL7ZRDvqqWUF04uGvoF8Axg5bSs+lxLcALAee9UpqvgSmlyBixb2+Iu6Ji8tAiaa5j9l9NdlvZbp7n0lRq5EoBI9H/LeIDw4OJ826yR/E3NzBJw6McAXx9qOdGkWJeLCb8NLAg0UYYQtMfbMj/bRPISifkc+GE5tpZLJI6muaEEIFKLzw47fDzJcpCwrnVBYaRwXczwUc5tgcsArsi3cpd6fU7zXABsBDTpTvYnDm3LxJCPlEnKYeDzMFv0+HoJdTUKVk67KQGIyPtvDQdJ6+Di3aLlkZuI4RY2NQNq7gtUYV6/1S7en3yaYAzA6aM6ywcQHC8AVv4OqzNJFYiNNzj8XwZF2vH3FYivri4qAYjYskvClsed7I4RfY5paloY+yLAx+qKnEjqWGccuNgdqOsd0pcc2poXnrkBSbkMHA7zeY/B8aizaLluN9q6EoDIzX8+7OU9SDrL3xDZ59DmeHHjEOKjQGes+v0/Tu4BN58C6jQ1wAWd4xza/DjokJTPABP4a4GsxyxvhnYr3+1Ge6AEIHLzbwB7WQ+QfuXWiux3KHPkg4/H9YtV+97n5x/gqi6PTH3Cod15EVkWkKTBwCxw42/AoGOWb8/cIw2XG+2FEoASmv/fsDnoABm0/6wS/PY0uQCU8SUSg+LU/kk54mJB3vXOBlRZmMxY2/eSKhNQU9+5eJfTVvyPe53ty+maU4HFAUn5DCgBKKENxsBm54GR9/fb0LFICb5bTfLksA/wHyBvzCo/MWdcK8FpgSrKqnDaoz2t/2ejitxVyedF4SzfdcGneVYBZgYk6TCgBKCEtuAb7J4ArCfAqr0YiAnLVQ5xW3mrW/3zwGnVFsGd5tAP7oCOOq2JQDgSMRCVASUAUel+39hB+Gq9EL0CHR98X2XS37aDdy8A1phVvzuHfA5+y6R7wPvOjcZXvfjnfT70TQyUxYASgJKY53OzrwLWC9oBJfmf1Syf8z7dIU4rT02ozwVxvwY4wpSy8I2O1vZ4Bjr04p+UW1m+VYGB2iYAoxJn/1n4dyKwp9FP1j/CqCNU9aWgmIsV+Rrf1ORlODQOeAjgXDovKM8B3E7h6ArXK0zPHxAmMnMATNzmAhYChoDWfnwtXTgcvjewMsA510eA1IQvseICMav8Fgq4klwiBsSAGKgkAx+C17xrs94N8UKbmnwCDvFiao3No/798IPJ1v7ABsCcgJfMB0WbAAcCnNd+FPDw2arjafixHpCarA+HrLFxJXnV1jyk1g7yRwyQgdqOAFSleS+Ao9YT4qcTC/Yb8McjsSnKy5Ow/wfgk8A8QGwZDYNjACYEzwNF47DWexO2PwOkJF+BM9a4xqYUkHwRAxVmQAlAiY3HIWaPdwJw2DcF4fDuMYD1BF+k/ouwy3eKrwWQ11RkSjiyMXASMB4oEpu1zvdgl9MDKci34YQ1nr+nEIh8EAM1YEAJQImNuBNsW0+GrL9DiTG0TE+PLxcCHvFk1cGV5OcDjH86IHWZCQ7uBowA7wBZ4/QodwLspbAu5gtOcW8IPRIxIAZsDCgBsPFXuDbvlu8DPE7uixX2wqciL2yXAR6xZNHBtQVcST4vUFVZGI5zIRvns7PE7FHmT7A1NVCmcITGI5broSeVUY0y+ZRtMWBhQAmAhT1D3b1Q1+NEeJ3BB4+qs0DJNU6xDOKD7xE4DJgNqItwEeHPgFjTA1xzMm2J5HFK5H5gUFtn2b9NiXHItBioAwNKAEpoRQ6XPw5kOckNKsPHvcoS3vnHuPi/CDtfB/goXl1lDgT2A8Dj3RCD+sx5sFPmSIBX8ns74mBCIREDYqAYA0oAivFmqvU11B50ks6y/yroKWsYlHPulzrF0S/Wc2FjfqApwqkBXqD7ceKx7yzYKGtNAO3e4hTjrtAjEQNioBgDSgCK8Va41oyoyRfOWE/ib0PH8oW9sFXkCdzj8cV+HNwBG+va3Kx07Y/D+4eAfhxZ9x0H/WUlkBs4xcbpBI0CgASJGCjAgBKAAqRZqnitgj7S4oSx7u9Q33rx6VWfi+I4QsJFkk2XGUDADwEme734sm4/pESSz3SKa/sSY5BpMVBlBpQARGw93qk8AFhP2lwMV9ZCOK/pi24c3Iu4VgAkEzPAkRCvNSOdvPOFTTtPbC7aL053vAF0+pT3d9kLYaMRJkNiwJkBJQDOhPZTtx125j25dSvPBXFlCFdd84LRzSfrtlOht86L/KztNRcUXBKIe16EV7c6WLD+L51i4uOFEjEgBvIxoAQgH1+m0h4r5h+DB3yKILYsAYMvAtYLfWd9DvnvFzuYitrjfD254it+O3m0/n4COst4rwKffnjJIZ5zoEMiBsRAPgaUAOTjq3DpNVHTepJm/c8V9qB4RT7ux0V5Hv6363gKOj9S3K3G1twIkb8MtHPp8f0K6Cxj7cUhDrG8Ax2LAxIxIAayM6AEIDtXppJno7b1JM1V4WU8v32yg++dsXMtRNlvMIQLlRUmTk8Dnbxaf3PRYWyZBQZfBKy+/ya247InBirOgBKACA3It715rOTeO4KvnSY+jQ3WE3Nn/dugc/5OQ/qdmwEuouPCyU5+Lb95J71+bk/sFb7rEMcr0MHRKokYEAPZGFACkI0nUyku2rOclFmXc7TTmbzIX3kBVHkesPreXv8a6CvrCYb8DKRfY264+E+gnWPr90ehL3Yb0d5/HOIYAx0SMSAGsjGgBCAbT4VLceHWXYD1pPyVwh4Uq0i/Rxz8bo+bc8yxk5hi0Ver1qxw91agnWvr9z+WQMFPHWK4vAS/ZVIMVJUBJQCBW24N6LeejDm0+cHAfnaq39PB7/a4eYHihUoShgGu4B8HtHNu/b5FGFd7ah2NPW8ZY+Bjqov2tKAdYkAMtDOgBKCdjQDfj4FO64n4VwH86qdyHuz0HPp/GPo4nSAJywAvfE8C1v7Wqs9Fp7Hn1Pkvi1v2i35+BzokYkAMDGZACcBgjgqX4Ktcrc84l/F402nwu+jJt7MeV6rr8azCXSh3xVVQ42Wgsx2K/v5xbg9sFdZy8J0J5xQ2N1RbDDSCASUAAZvZYwX9xQH966Z6bWwserHorMeX/PCCJInLwGYwx8Sxsz2K/OZbAmMncLc4+L4BdEjEgBjoz0BtE4AU7gC27c99pr2cQogl5Ownjsa+DF3XO+qTqmwMnI9iP8pWdGCpqVGCi/NiynEOxrZx0CEVYkAMiIFCDHC1OxfvFbnratV5BvWnKWS9WKXdjP62/ObnGcVcUC0nBkZBz5VAe5tYvm/o5FcWNbOhEEePLP4+ivp8kkUiBsRAbwZqOwLQO+Q4ezaHGcsJjHVj3nnxTm+cg8/0+35gZkBSLgN82RKTSGs/ZP3rgJgX1FMc/F4ZOiRiQAz0ZqC2CUDZUwAk1ionWhXkqL8Hyg7lKN+rKB/j2gng4kdJuQzwLngXgI/GWYVrOZjUxhKP9xBsFctZ2REDYkAMtBhg8mF9HOvulrIIn9PCBi8WHneKB0XwVybyMfBbp7blGwdjjQJwROo5o9+3or5EDIiB3gzUdgSgd8jh96wOE9aL6aHh3XzPwmcd/GW89wJMJiRpMcAXMD0FWPsk628aMbTfOfi8WER/ZUoMVI0BJQDOLbY89F0AWE+2Szv71Usd7+hud/CX8W7Uy4i2l87AbvDA2idZ/28RI1nPwWeuJVg8os8yJQaqxIASAIfW4oK3PYGrAI+T7H0OPmVVsZmTz6dlNahypTDARO8ywKN/rhgpglGw4/VGyhuhi8fojJF8lxkxUAUGlAAUbCXO8/MO5STgNcDjxNrSEXP1/18dfP8PdMwHSNJmYFm4x0WarX5W9PP4iGGe7OBve5zsq78HVosYg0yJgVQZqG0CwLuHELIAlI4BOKS6EBBCzg2htIvOIWzzeL77Z9DzWBf92pQWA1wUNxbYw+jWdqj/RSDGkx48Fj5l9Le9Ov+3AeMn7gD40iE+bcNXVkuqy8CUcH0ZgI++Th8xjPGwxXPfbQDfvimpIQN8Gc/2AO+W2cjtdxTe33lSnQqIId+BEav/vKP6YAxnZcOFgUWh5W3A2u57uXgzWAkXMHr42y/eN2HjLICPOfJCIqkOAzz3/BiwPjHSr39k2fcsfODbN9lfqyS1HQHwaITloOTnABs3SyfwKBPr7p8nukcd4vJ65SxckURi4CTYsfbVGyP5SjPXO/ibNV7ezf0AWAyQpM3A2nDP6+mWrP1jULkn4NMaadM2kXdKACaiY7LJZsFv3t3cAAxq7BD7v9ThT6if6zrE9yp0zB3KQekNxsBS0OwxkrV4MA8nVnw4foY41vrp5MuTrgB2BWYAJGkx8FG4w+H3fm1Y1j6+An7ltOjq6Y0SgAnUzIXPowBe1MrqOLTLxwhjyG9gxBrnr2I4KhtBGDjTof0PCuLZpEo3dPDV0tc5LfdDgE/7SMpnYHq4cD9gadPQde+Ff1V4J4oSADTUWsAzCXSoR+ADny4ILaNgwDp0xjvIodCOSn8wBlaFZutJkIsKY8h0MMK1JlZ/rfUfgg+cFpSUy8C+MG9tyxj19y6XpkzWG58ArACaUhlK+n6mJrMXGoYK6wFwqd0NaSiZgTsd+kGsaYBjHXy19nnW53qghQFJeQzcDtMebRlaB58MSF1qmwBkuZPmavs/AhxSKluehwOxhtQ3dQj2BAcdUlEuAyc6mN/EQUcWFUeg0GtZCgYuMxv0jwUmD2xH6rszwPc3cA1LFWRpOMmRNkmiDOwMv0JngVn0czh9u4gc/dsYN0dM+Dy1pNoMLAj32fey9NFeZS6MSEFKQ78bRIxbpt5ngC9x6tUXU9zO/2eRstR2BCAL6eehUNmd5nX4sEMWZ53KzAc9XOFsiZuPkUnqwQCncix9gYtmOUcfS5gEWJMWS7ytusfEClh23mOAT2OksBak1QeyfHIBKf1OVWqbAGSZAvhIia3Ci/DpwLLAaRH9WAe2rMOXGv6P2GCBTVmnAXjxXyWwj+3qj8SPFYELAJ6Ay5Iyzx1lxVy2XY6SVm3k8QPw+RNlEyf73RkI/YaxbhniOLhyCMDh1zKEJ9BufmXd9iLq8ykCST0Y4Jy29Tj4ZklUcAEiX9rzOJC1/3qVe6ykmJts9soS2tmjv1yecKPVdgQgC+cejZtFB4f5ebe/BTBlFscClvkXdGfxuVeZMwL6JtXlMHCNsU/wbrxM4Wgf5+R5jPG1vr36ruf2J2FHEo8BJnvWqUvP9s+ra8l4VOWyVNsEIMsUQC6mChT+J+r8HzAPsD1wLsD5y7JkRhhexmj8r8b6qp4eA9YLOFc6W6eVLKzwwvA3gMfYAsABAB9xlNSHgd0RSpl9zMrkLlYFqu/PQN4sLkt5DpEfDazk765Z4+rQkCWGfmUWNnshBakxsLZDvxidWlDwh8cgj8UQC8c0AhCvwTnlyCmXfuel1PfxfwSkOHVa2xGALN3Tq9Pwrv4qYE9g+iyGSyrzedi1xKyTXkkNF9gsF/K9YewbnN5KVaaFY1xAdgngNYysYyFea28JU5bzVip1N4tHWWZLtU0AYmRbD4HmscDxAL+nLssaHbzaWF/V02SAL9i5GeBQflFh3+IUV4rCNThcu0IsAewGcEiWU3OS9Bng8L9VuM7lUYOS+VF3NUN9Vv0McL5Rh6o7MmDNDFNYZ5CHjhEUtsR8UB5jKlspBo4y9o2TKhXt/y7+lmNBIwBxGnxumLEu7GR96rEI678FWPoM/ZjT4kSAurUdAYhxceZwYpVkIaOztxjrq3q6DNxmdM3at4zmc1ev2rGbO8AaVPggYvgGMJUxFi5ytSZsrE89FmEcjGdWixLV9WPAks2xbpWEUyLWDFYLAKvU4vl8XQvFLccDn8WvkswFZy3xWi8oVeIqpq/zwdjeANdrWM9XrfblGgIP2QpKWjotnxwJuBjYC5gXKFNqOwKQhVRLI7JulYR3aJZ42WnLfodBlfiumq+cD7f0D95RczFhVUQJwMQtxaHp7YEDJ+BT+OTFOIbMAiOfBzhPz35k6YeddZmYeq0Hox6u5u+0YfnNBeT/AD4HzAzEEPLNtxNy0fqxgMX/s1G/smIJnHWrJGvCWUu891cpWPmam4HJUeNVwNJHFslttbwKSgD+x/1ofJwCdLvb5sXpQmBjgP3DUzhFuz7AtSPWftevzx7u6TR0/QjoZ8+yjzycCKwLePNNfWxHtme3ti7qtxIAEFoFsQ5fXVqFIOWjiYE7UbvoiYD1VjFZj1tZCcBkk20IyvnParK0OdeI7AFMC1iELyPbD+ANRRa7ljIcTVgC8JQlocziU9a698EOXyJHvizC9mK7sf2y2s5TTgmApXUi1v2MsQOcHNFXmSqHgctgNs/B31l203LcLmS16QnAJmDttQLt/TTqHA7knR7gKvpDgeeAzn4T6vcVsBVCOGQfyudOvUzQfgEskDOQOVH+QOAxoFOn528lADkbpqziXzV2hCPLclx2ozHwJ2Mf2Tmap3ZDTU4A+EKa141tzeThGGDQq8W5cHgswDVEnheeLLrGwGYI2R1Ks9j3LPMGbB4PLDQgILbHsYC1fbP6rgRgQIOksvswOJK1UbuVOzSVQORHMAaOhuZubZ91G1c1V0WamgB4XPzb+wOH2S8COtcJcITgN0AZF376x9c/zwCEEA7Lvwy08xDrOxOBo4D2pwc4v88RnYsB70WUg+JKNgEYBTIk7zMw9ftfC317tVAtVaoSA9Y2nqZKwTbQV178zwQ824kXn40m4HZ8/hLgvDsf5eP8c1lyGgyPD2T8Feg9HeBIQGzheZyJ9hiAicC9wBeApQBJGwNKANrIwFfrQc9MXlJvBnh3YRFrkmmxrbr9GeAdIqd4rOeBflaWxk6OIqUgHAYPKcdBeRkJQCum6fDly60f+pyUgSkm3dToLdaTsxKA+ncfawJQ5h1f/VuneIS88z8HaEr7XI9Yry1OV6aaXAh4U6aSKlQKA0oAJqadczkW4VCfpN4MWNuY84+StBgIMeyfVoSTevP1STcF2RLLThDn665UCcDELWy9g7eOIEzsjX6lyID1DtE6gpAiJ1X2aRM4H3rYPzV+vguHLo3k1CWwc3gkWzKTkwGtAZiYMOvJWQnAxHzW8Ze1ja1JZh05LSumpt35vwOifwAcHJnwb8AeR74OBKaMbFvm+jCgEYCJybEmADNNrE6/asiAtY2tfayGlJYSUpMu/kw6ub5hDeAgwDrVCRW5hPa+CawF/Bl4C5AkwIBGACZuBD4Xa5HZLZVVtxIMzGb0km8tk5TLQBMu/k+C4ouBiybguXIp/6/1a/B3a4DH0MYAp182Avi+iTqLdd1QqdwMesnBoP2lOp/T+C4oPyiefvvPyGlPxavHwFXGPrJhhUKu44uAePGP9Qa4fucK730c3r8c+BqwAlCViw79pL9fB64AGIc3N2XrY3/7GFBJsZJXpaB5crDEy4uDpN4M3I/wLH1kxQrRU7cEoI4X/zvRnzjHvkCF+lU/VxfETk4X3AVYjrPU6lY2CbAS2a+xU9v3UWOnezS1gOSPKwOcMuN8quWY4AmuKlKnBKBOF38O5/P/jvB8VWdZFcH9GmC8lCmvOQAAOBhJREFUlmMulbqVTAKs5FWpg85n7Ghc6TptlQKWr7kYGEJpy/HAxU9T5bJYbuG6JACca34NsLRdCnXHIYb9gOmBJgnfzMjp2buBFNrB4gMXAW8JVEYswbJulYRPRVhPFEtXKWD5mosBLliyHA/jclkrv3AdEoBQd/6cq94d2AG4FrD0i0F1b5pgp+mP0HEE7lPAzYH55mLF7QH+e/gQaxIqNRIwqHMO2g8OKyXWLJMdVFJPBvhe8UH9vd/+SytGS9UTgJAXf96Rtsvq+MEXCr0N9OsDefbxVbrrA5JJGeBiWl6o8/DZryzb7QyA7dguY/Cj0UlAP9Ky7Junnc0KfL8QPmaJq1eZH1QgRrlYjIGxqNar3bNs5/+Gr5J8GM5miatXmSdLDDbmxb89zIXw42cAHynuxcug7Q+gLu9Aq7KSH66WIuTnk8CDwCBOe+3nY7k/BYaAXjIGO0IlAeynSUsv4rJu57znX4CtgCrMfx4BP7PG1q3cxagvqScDtyKsbm2edduXKkAL17DwpMp+bD3plZUAlHXxb2/emfGDI0YPAln7By9GBwJsA0l2BsjX1wDyl5XrB1F2f+ADQBYZg0LW46Gbb5wOSDoJ6OZ00W1PINgfAUsCqcrOcKxofKzHzL/pc3Wptq3Fr1lR2XoCSHk4dwXE9yvgecDS/9vrlpEArAX/eVJt98PjO9u+c9gfmwYK5615N38t0MuP8dhH7ucEJMUZ4JQVn454FejF9TXYtx3AdskrY1DBeg7o5tdr0LtmXmdile/msMe2qxAAF9HMGCuQjHaWRzlrfBw6ldSLAWbp1n6R2gmeSc2+QKhFVbETAN7NPebQTp3tzJP+roBVloGCrwOnAOcBnBLaG9AbREGCo8wBXfsAxwLk+WSAIwRLA1YZAwUhkoBHoXcmq3Mh6nceDN6/X4bTbKg1QjhfQCf/2QszMkucHFqS1IuBnyAcS5/gAZ6C8EmXDQCeFK39fBAfsROAbyGmQT7l3e918YdrkpowMAZxhEgCmBwmJ3kPGEv5OxH9V4G5S2bhSti3xHFJyf7LvD8Dtxv7xGn+LuXSOBqlDwHGAZa+nadu7ATgbufYdPEHoZKuDIzBVu8k4I6ulkre+Abs5znoPcpy4eCfgS2BUUBsORwGLXFwDnKG2E7LXjAGhqDZ0h9Y9wvBvOuteBrs+iTgsaCvSPwP93bNfc9s0FjEx151dPF3b6LaKRyDiLyTAE7LJSUPwpteB0mM7XfB/jaRGdnCIeYdI/ssc+EYOMChP6wUzr1JNPPxqN2Ah4AYx2gvG1xwFUs4v9vLj7zbdfGP1WrVtzMGIXgmAUumRgnnCvMeQCHK/xB+8MQWQ2aBEY5CWOL4awxHZSMKA7cY+8JzqB/ryRCOmB1v9NfS79vrct1ELFkEhtptF/2ui/+kLTYdNvHOtAX+lrzPwBh89UoCht5Xm8a3jeFG0YPJu943I1JyhTHut1F/3oj+ylQYBqwvw+ExwFXfseTXMOR93BXR9y78WC5W0LDDBGs8UMTX9jq80WiS8GZnbWAvgI9onw5w5OZe4EWgnZvO79zPcix/GkDuPg+sBVBvk4TcdfKT9zcXxHORbnJyCTzKG0yI8lyPsGwkdrgi0xrDVyL5KjPhGPipQz/YNZx7E2leD7944bX2W4/6J07kWZwfZzjEfkMcV0uzMgTLnB46AXgQ8GjrXjrGQf8fgDHAgkCd5UYE14uHrNuZRCUp88CrsucTWyQeHYmhD8NOy2bRTw4dS6rLAIfTnwCKtj/rcWhwbiCG/AVGLL561WW//0CMgDts8P3wHjHwDrYuMh0C2Q7gOwfuBzz4KaqDowW/A7YFpgXqIhxBKcpJe731UyaEGdz1ToG2B533+wvwIdYrhdlh8/rXWX5l6JBUk4Et4XZne+b9fXmk0LkK/k0Hf/PG11meo4X0pQyZHEat6zUYz1llOO9okzwwifk9MGgYv7P9Yv3meZw3c2sC9LfKcg6ct/L2ryoQwDui3YFbHQK2ELZGJLK+5xDnmZF8lRl/Bq52aP+9/d3qqpF3eZZjylqXNwfbA2WfzHdz4IHrdxYBqibzweFvAw8A1vaMWf8++HsIwJHmqsmicJijfFa+dq1a4CvB4V8AXOFsDT5v/YMikbWcQ2zvQgdfASqpFgMcjsvbLzvL80IyV6Swf+Pgb6f/g3637uJWiBRjFjPToJB12oZx89xWFRkNR+nvq8CgNkt5/xvwn2sTeFGtihwJR62cPgkdlZ0SmR7O7wJcBvBiZyUjS/0R2IklHkOKJ8VyVnbcGLgUmrL0xX5lLnTzZrCiux387RdLax/vdhgXRxx4sU1ReIPQ8rfo58vQMUuKwbX59CF8/wPwFlA0zhTrcSrrOGBxIGWZFc69Alg5/FbKQebxjZkbh80fBayk9Kv/OvTHetPe/znEwgO0ikOKcLuRsjqi7tf/su7bNhJ7o5387RfX/bDBC+sCkWKymJkDlT3uhg+wOBGwLkeVeOF/B+jXZlXfxxG0Y4DZgRTlQDhl5Zj9NNX4CnM+JWpuBnD+m8M6VpK61d8aemMIszyPkwk7sqQaDPAOt1ufy7PtKeiYOlK4+zj42y029nuOXvHxwsmBKglXm3eLKc+2h6FjVEJB87zKNSWceskTR9XLcpp5T2AKIBXhQvRHACu3v00loFB+MBvfH7gNsJLVXv/YUA530ct5qXbbRb4zm12xi25tSosBJq5F2rezzg8jhsW3Tnbat/zmM8280KQ+BN6P4qWw02NK8pP9jETctzJs3QBY2rXqda9F/KmcQ3dyaAv2zyWBxshHEenRwEuAtTNy4USsjJCdzuov618X0WeYkuRkYDqUvx+wtjXnMGMNlc8EW5wSs/r8LHRwIdnyQF3kAgRi5YXHbJnCO80fAXUf7s/aTryR+j5Q9siMx4t/zkccjZTpEfVRQNZG71VujYjseSwKYxyfi+izTOVj4DAU79XX8mznsHks2R6G8vjWrex3oCPVBX0WHjd04IZ8xTzPtMe7IH5c7RRDt3av8rYrwcv87WRF/L6WU5tsENHn5Ewt7UDiLyNG5TU0zPksTotI0mJgUbjzGuBxUlwhYmhnG33mMOS8Ef2NbYovWLG26ZGxnYa9LQCeK6y+17n+M+DnY0Bs4by9lddboKP0dTVlO3AvSOCJt6hwGoBZIIfHQgu5uhn4sIOhsdCxm4MeqfBhgG3LefSNHNRxWG9zBz1ZVMyMQjwGps1SuEcZnshe7LGvDps52mgd3RgHHQtHIoML/Tjk/yWg7PNzpJBNZth/ud7mmwCT2RjyMIxYp/h4/h8bw9mUbfwYzlkzqfUjBsis3Opvqz6HbiVpMMCTbatdLJ88AcVcpDTGyW9LzE2oyzUdMYSJHF9D3AROvWM8DbxZE70sbcykzLoe4y3omDGLsbqX8ZhLGRuZJC4K8ui8L0GPZfQjcti1NbcKIvN6VPXMyCz9HfY8+qJ09OeRid2owG3L0ZzLgFTbgtNjzwNe02Qh4vwb/JsJCClMMtgfrP5/LqSTWXWXPcTE4a4nAMuc+KuozzlMXlBjCEcc2NE8hFMKqwO8AEniMzArTLINhhxMvw0dnB663UFXFhWLoBCn0Mo+hrP4WvUyDyAA8h1K5oZiTkGV+QTGXbDPvnv3BPD3U8B/JoB3vS3hefsDE0DflwCWBBYHlp3wiY9ShMcz1wXQ91DyIBSPNip/FPUXA1436ql89eMRgTWb2isyC+c4+NyKuYwFRpHpStIcL5zWBXStNuRn7Hb8Hmy229f3cHycGLAHD0H3/SW0JW3+DvgUwIu4p8wDZTsBxwBMnmL3TSbGCwKh5GQo9ojpi6EcrJJeZmtWMm+KHDCH7pm5Wf1u1f90ZP9lbrLJDnRsv+ega7aIpHI4mncQrf6jz7BccJoohHDkk3fcsdrvWdhiohoqHqjuKqti668BHiexYr0DtkIdk6s5xcFRihmARgtPZo8D1o7BofSYcjiMWX1u1X8TujaO6XzDbe2M+D3m8Vrtt09kPreDvZZtfYbl4qJAbTsT9N4QqR3/ATvbAFMDZco0MM7/j3ENEKPfXgs7oS6wlzjF8BXoabz8EAxYO8TpkVmcDvY41GT1u1V/PHTFTmIiU5aEuQ3gxRtAi3fr53XQxTnRmHI1jFn9Vv3BHHJdx7IBGpYX4r9GaMOrYGOLAP57qFwTSs4FQvfDv8FGiMSH6zXYP6z+cyQvhH9QWx3hAhIrkW9BR8h5n25sro+NnneSz0AfF9RIwjDwUah9BbD2tVZ9JhLLhHG1p1bG0LKvz7BccI7cW/j68lOBkG13I/RX5WaCicA/A/PBNRwhFsse4+T3TtDTePEYFvpxCSx6dYLWCeFBxLBACXHU3eRSCJAJVotnj89vl0Ba6IuHBy910MHV73MFaN+vO/fBdq5fgO59gdgjUlaa6O8XAL6Qqj0ez+9ftjrZpf482Payg883ddHduE17OhDJxpgtMnOcy/Nexcs3TX0ochx1NsdFSM8CnieU66FvqsikLQ57HsOOnjzUVRcv1N6yFhRypDIEZ2dC79zeDkfWxwuq5xNW7TxznRXPA95yEBS22yn6fdjbsarpmxkOcx68KIGtet8tIfDVYNP7wOYFK0SHLYGeUk3yKRPPYX/2MyaafIY3thwPg61+rs9wXDwEnqd1btzZoe+RAO33OnTyrr8uwqH6/YA3AO8+/iB0fhDwlOmhjPP4Vl//5OlUVXVxzs1KJIeRZimBAK9MsD1+Xrg2LSGWupjcBYEw82/n1OP7biUQtFCgWDz4qJsOXoA8hRe1CwBvnu6DzpU8HU1I18rw5QHAm7M/Qyfbw1O+DGVWP5nwzOHpVBV1cTHgO4CVzMNKCJ6Le0Ic5LyA7V5CPFU2yQP864DnAs1Wn/x9ScQcC7stH/QZjovnwLP3o2P7B2g7rvDnmyzrLJzO9Vgb1nm8/J8zaZwG5vqLTjt5f3/R2a9KqvuLA5G8cy5jPowHJLPyvA2fpfwJ0Ot9YoLK2gmnks4AsnCatwxfM8rHP2MLE2PvKaa8sTel/LedG3cB6OOUkSd/50Ifh56bIIzzPMCTPy7wnM+ZPI83c97q7FMl1a0Drz0a+8iSol8edr0P+BYft0H3UiXFVQWzXIvxENDiy/PzKehdsCQSQi2M8uSnDrpeRfvO6dzGZ0OfJzdjoW+Us4+pq+NiW94AefJ4mnPQvOF8zcHHjzj7VUl1NzgQyaHzRUuKfnPYDbVa+xXoHlNSXKma5ZD/V4AQ8/086XBxKp+/L0PWhFGPE9/F0MMRqrridw48HQUdnrIZlHm0XUvHydDHqcYmCuP2fgR2Q2cij4a+VlsV/fyps0+VVPdJByLZAJxOKEv2geGinSBLvbOgv6w70rI47Wb3Q9h4KZCFsyJluCbl490MR9jGk96NQBG/O+usFcHfskwwAXwQ6Iw572/Pl3Bxquh+B59aMVwEXU1/Yxzjv8SR07uhaxrAS3guarVX0c9xXs5UWQ+HuB5wIJONsGmJRBzuFEOvzsTRgK8CHCJrmsyAgH8AvAH04sdju/eCoTzttIdTbJflMVrBsis58HSNc9wHO/jU6r/XQdeMzv5VVR0X3HklxeT3a85EsK1a7Vb0c0VnnyqpbhcHItkAzPLKypx5Z3KkUxz9OtPtsDEMNEW2RqAPAv048dj3jRIJ5aOsTznF6D3UWSItXU1/14GnvbpqLrbxA6j2vINP7MNPAGUsaIbZZGVeeOZ1bDwDXbyZ8BKPkd/veDlTZT18PeRtgMeJnI1SljAJOB7wiKOfjndhg4vF+PxsXWVdBHYp0I8Hr30cXShTPC5q5OLqMoOIZJsJsKXdX0f9Dzr6yrtKiz+tupx+Wt/Rrzqp2gjBkJ8WV5bPLzsSMxt0WUcled2TgAHe6VkatlWXc3FMKMoS2j4WaPkT+vOvsLVWWcE622UC9THgH0Bo3lr6v+8cQ151HO71uoNcJ6/xipTn+ogNgFOAVrsV/fyTY8x8bM3r7vRQR7/qqMorSX4c5EzrSBDXZxXti616J0MH+zf7eWOFJ/9rgRYplk8+nlemMJZfApYY8ta9HPY2A8pMfmC+kEyDWtsDNwF547aUL3PYv0XUpk4xn99SWKPPBRHLIcA4wNLO7XW3dOTnC05+XQk9VTxuHakcqGoUSlwDtLdl0e97D7SWvYDXjStjGQccDLDfN1LWQ9RFG7W93q6JsOeVtbbHNuj7E4j9J0DZSVCWJlgNhfg41nPAoLg89/OxzX2BFMRjCJnDo8ulEIyDD0wGdwAuAhiXZ7vznR1TAx7CxbiPAFb/3oSOZTwcaoCODyNGj5dkPQg9TCg8hP2VC7St/aC9Pvs9+z+PA+pvlPwN0baTUeT7ngkx9ln44tFpi/Dwb9jmnNdCCfHxIfjCLPceoEhM1jrjYZdZeypyKByxxnRSKsEY/ODJnaNmIZPBPxv866y6FTZY2431j+hUrN99Gfg59nrwztFSLzkPijx86qaDx8MvgCrc0LnweaMDmRxOTkk2hjMvAd0aONa2u2D/ZwBPXHMAsYSreLcDfgOMA2LF283Ok7C/MpCSfBHOdPM1z7bzUwoohy+zoiwX7d4E5Im3aFnPod8zHXzmCMKMgCQ7Ax9AUc7jF+0DrXqnZjc5sCRHE1t6Q37y2sg+PMtAjypaYG34bSXwXejwfvezB528873TIT4rP636TAh4EHwd2AKgf9MCRWUGVFwG2AbgHf4ZwANAy17Zn9fCl/mB1GQlOGTlhn2e7VcVmRuO/hZ4DbDGnqf+Ik4E8SmC1x18383Jn6ap4QhvnnbvVvZV6JjZibhFHfzp5mOvbfSdU6dz5fGfC9NSl7Ph4NZGJ29A/VWMOkJVnwmKxwK8SKYqT8Cxp4FngWeA/wCU8QBXqU7HHxDevc0O8FEYntDnBFKVo+HYfsAbCTrI43IcMNro2+9Q/3NGHTGqD8PInwD2m5hyL4wt7mRwL+jhCdgiD6HyYgCnByX5GOC8+H2ANaHfAzqOzWe6Z2n645Vg9jTSsYPnaF5LruzYXsmfzKI8Fv3smnj0POF/CfC4g+iVIWr7/+4QOO2yc+L9ge59FbC22avQwYQsZfkInKOf1liL1P+VIzFXO8TgOR3hGFplVDGhL9IP2utc7hjtkQ7+tPuW9TtvzFZwjKM0VTxAswbdqxznhpgdVkGWh5O3A71i0XYbN9eA24Wr0BHgI0dTXgasbf6thOOdGr7d5RBjUY6GnbhZ0CEGnqcs021OoVRazfTw/imgaH9gPU6deU0Xr2v0xRIHryN8KqWy0oQTYLfG4XD6T4G3AUsHUN33+ePIykHAKKBK4pEAP4GAU02Ax8C3svop16Jw5M1DxkCJNY7veDgiHf/9/yDWtviME4+cHh0HWP0pWn8npzhKUdOUIdBe5K6CHf8Gija+6v2PO86FLdmL5MS3e02BjUk0zgvhV1n9dEtHTk4wxsG7zsUd/WmyqqWMbcH+yMXKXsL1a2X18XO9goith0MXjzgQ99vYjjvbIw8HAlx0V1YnqqpdLlrcE2AWXmXhIlhrGzCRTFHYRtbYitT/iTMZ1nPV1c7+NF3djcZ+9Rzqe543fm70p0gfZx2O/lVSdoTXRYNu1WNWXdU7v85GmxsbjgM8FkS2+Knr55vgiVModXkudm3E4tFW60NPSsLh99j9mU98MKH2FN65W9vn854OSdd/n+6xtskyzjx+E/p4brL6lac+p5ErKXxsL0+g3cqeX8nI+zu9InYzrm7xNn0bLyYnAzwh102sdzTsG+clRgrvsGL12ddgayywMOAtvHhb4uCNChN8iR8DC0KVpU1Y93N+7rynaRF8GwuwP1r9y1ofpqola8HdrMH1K7dBtcLO5e1qKH2JE0/9OKzCPp5AzwK8M3aoTEa4mMfaFuQppRGxGAkAE6e9gZCjQWOh39I2XK0t8WfgXqi0tMsx/i69p5H9kf3SI7EfFON7RqvyxWPO8xYE67XCN2XeVoBzJwBvAYM6Qt32cziXsS8N1F24FuRhwNqGKa2JCZUAvACejgY4WhZD/gkjlnbhkx4Sfwb4EixLu1zn71JXjUth6+FAqPUwXY2mupFDJB6Pv41JNcBAfi0EvT8GQnUiy4HkXZcLrr4NNG3YlHPXVi5TejGQZwLA6Z+LgB2AmI888rFS63DuttAh8WeAfcFyvIxHffbRWMJ+S5/Zjz3XxsTy38XOL6HF0misy5WPMU8CLoE7KZkaerYH2Ik8EilrW3jVfwPxcGRoM2BKoInC92K8Alg5/VYi5HkkAOMQy8EA53zLED6maW2PecpwvAE2F3Bom9El8cT+fAjA/m3tXyWFkN8s50Vedgj4oPyma1ljLkTFeabLAc+M0tohs9bnitkLgd2AkHO4UF8Z8Xi16OOINoUE2ZoAsE/HvEPr1km4zihrf+5WjtMVkjAMTA611uvJcBjXMmu1HiPsc5WRA+Fpt4Mkz7aUhjhTIn52OLMdcDTAC0AeTmOW5Ws8Twd2AXjHK5mYgYXw02NkZ9eJ1Zbyy3pyYwJQtnwWDliOj2vLDqDm9m8yts+YBPix9C/WrYRwLu1hwBosL3CS/gzwxLscwNGBk4AHACvvRerzBH43cDywO5DSCnW4k6ycA8+K8N1e518JRFeHBOAQY1v8IYF2qLMLfzS2zzcTIKf9uC3yvW8IvPCmIJvAiQWMjpCcnxt1NKH6uwiST0kQR00IeGZ8Mingo3TEEMC7TWJawCJcTDNuAphs8LEn2uYn57Ql+Rj4GYpvla/KJKWXx5aVAb5vQ1KcgdmKV/1vzXuM9VW9PwNWfq3t29+7BPamkgBs6sAFX9/4rIOeJqp4CUFfOQGd8c+BDTwQWuA/K2LCQJkBYELxGn9AXgD4nW1BPANwm8SPgYeg6nXAmphtDB1KAGztwqk1izxvqay6Axmw8mtt34EOll0glQRgMQci2FiXAusBvPBIfBggl+LTh0urliEoGAGsF3/64XHMUU+T5QPG4F821lf1/gxY+bW2b3/vEtjLebgUZConJzh8zSSAd60SMVAnBoYQDC/+/PSQVJJ/j1jK0sHHbi2iKTALe4PrWhOAFJ6WGRyloUQqCQBf7uIlSgK8mJSeVBgYgiOeF3/G9Rj/SEwMWBMA6wXK5HwDKlv5VQIQqZNc4WxHSYAzoVJXGgNDsOx98Wcwl/OPxMSA9QaKj3RKwjHAV6RbxNq+FttR6qYS4BmI1pqtdRKmJKCTEf2uGgNDcDjExZ8jbhdVjYwE/eXLqiwyo6Wy6g5kYKaBJfoXeKP/7urvTSUB4Cr0bwegU0lAAFKlMgoDQ7AS4uJP5/nSLd19kgmbWBMA6wXK5n39a1v5tbZv8gynkgCQqJ8BfwrAmJKAAKRKZVAGhqA91MX/SOg+Jaj3zVHON49aRCMAFvYG17UmAOMHm6h2iZQSAD5PvhPwlwCUKgkIQKpUBmFgCFpDXfyPg+79gnjdTKXPGcOu/WNmRn6s1a38WtvX6n/w+qk9CsQhl+0ArgnY0jn6VhKwHvSGeq6dL8lZH1gFYPbJqQ2+dvUSoPbZJGKsk8yMYDYElgfYrlyj8g+Ai+esi4ugoqsMYWvIi/9noZ+JtsSHAesFYiEfN6SlBwNWfq3t28MtbR7EAB+v+TPw/wLgVuj0fk/AotDJoVVeJLr5zITjEEBDfiAhcZkV/h0OMHnr1pbPY/sPAeurq6FiIhnCr3FAN5vWbcdCb0qjfXDnv/5Y4uL/kihbOJpiieHisgOouX2+E8bSPvskwI/Ff9atrDAJOBuwEtCt/p3QO7cDM2tCB/97Xdb/0PY4yu4CTA5I0mKAF0i2zVNAtz7TuY0XoHOB1QCrLAgF9wOdNjx+Hwe9qV38yRd9ssSXQgKwtTGGh0iEJBgDPN9a+thmwTzLrtjiP+tWWlIcCZgKjHKtwk1A0cbhe/c/AkjSYGAduHEzULQ9r0DdjwNFLrRDqDcOKGq7X71jC/qEasHFmgC8Cw+/AywS3NPeBjg91I//QfsYwwy91WuPgQHO/w/if9D+pQ32rVXZr7/rEIPVj9Lrp5IEcGj4a8CjwKCOk2U/D/5TAU4fSMphYFmYPQ/I0l5ZytwHXV8Ask71DKHsOCCL7rxlUr74I2TzCECLDx5HlwKfBrhWI6bMBGO03/KlyCdHESX+DAxDZZH2aNXhCNP0/m711cj+uzMwAlj7VSuOvgarsrPMJGAxkMT5/VeAFqmen1z4yH/LuwAgicMAk64/ADzIPduypesF6P0R0K9Nh7B/HNCq4/l5LPQWGY1AtWhiHQHoxteL8P43wMrRophssgdgq5svWbcdFNHXJpk6zNgud0cki/2V/Zb9N2u/yVouYhhhTTEJiLkmgJl5nvn9rA3SqxwTgROAxQFJGAY4rHY0wFX8vdrBczsTDK4TWB1olwXx437A01ZL13HQm/rFn1yESABaHPDzDoAvPPJe8AuVE8k5+NVuN+/3SyfSph9eDPCJnbxt0V7+DC9HeuiZBdv3BCxTj+3+9vrew3w1N4ceCZgPtHAo0TK/36shsm7nxelEYCVA4sMAk7kzAV6Qs7aDd7krYXsbYGFgXCA/joXeKlz84WbwBKDVfq/DFhP59Wk0gBwMnS1bRT5fQ/3YUxcBaEhKJafgeENVpD1adb4VKCL2Q/ZH9suWrZCfgcIoT23IJODtSI2StcGvgD+8aExZHt2Vtcx+siNwA5CV7xjlQvWxKl382alCjwB0a8vLYJfvA/GUtaCsm6082zb1dEi6JtvaoU3WdeZxOei73MGvPP2KZWspIZOAvATHKM+Fh98BFqpla/oGtSTUHQE8BcRomxRsVO3i32rxXu/NCMkp51mHWw44fPJcNB6w+PxHBz+k4n0GOHxvaQ+OHkz/vjrzt/Wgodd7RSx+DqrLvl5baVoSwMZ+B/gbMAaYGZD8j4HZ8LEncCUw6KCo2/6qXvzZcjeW1F48MS5AB5zkIuix9CsmEHxsTWJngE9rcVrF0h5X2d14T8MQvpVx8Wf8177nRU2/NDEJaHVsdvKzgO0BPo7UNOGBvjNwPmCd72txWrXPKl/82V85qlUW51yc6SVcbGiNYzcvZxquhzcC1rbwnP+/0MGfovEc0oS+0OQkoNUx3kBD8y5kX6DO0wSLI74vAyNArJX8LY5T+6z6xR9NONn8gHX4vGi7vAPbo+mEg/B/fxT1o1XP867TIaTKqrjOoS28XtLGc/G7Dv60+kieTz62Pi/QCFESMPEJ6D60+u+ATwKzV7gHzA3feZd/PPAwkOcAqHPZOlz80Zz/lf3xt6y2+toEH6wfU0IB1+lY41jb6kjD66/v0AYPQsfkTjx+3cGfon3qC04xVEaNkoDuJyAOj/NfLK9WmZb833/h44jG20DRA6Cu9ep08W91yV+U1M6XtRxw+PyRQwzs85LiDPCdCtbj/rvFzU9Ss6w1ST+dxJOGbFAS0PsA4MX0e4BXdhuiS42C0t8AZQ2bWU8eoevX8eLf6kdj8CX2kxtMjr0W3/HxQo/253SCJD8Da6CKB/9L5DfdtcYs2Bp7mpLHzy5dvWnQRiUB/Q+E7yfaF5iY8ALncRDXUUedL/6tLslHrz4LXBOxH2zVMu7webOD3xoFKNYQHnf/XD/gJdtCUazz0NWwtQcwnZfzVddTZhLwKsj7LXAK8A4QqxPkscO5stRkJziUJ4ZYZZnF8+L7B+CNknxswsUf1E4kS+PXT4DQowIccfKSL0KRR7/8hJdDDdHzKSfeuYjaS34PRR59oZcOHhc/BpbycrhuemInAY+DwG8C7YvuPozffEytVyOWtf16+JSSTAVn7gfK4qObXU5DnA60DwnOg9+cRnkW6FYnxLYmXvxB73vC45hvwzwPCLEm5IH3LNm/zAUVHkniI9Azo92dRmjgFA7PvdZj7zXoaD93W8kLsWiZ/Z+Pr34c4DlTMoCBGEnAv+DDrgBt9ZI1seMKwNpJPeuv1svZErZvnRg3F8KfFfvwwKHqzwN3AZ5t0qmr6Rf/ziaYDxu+AdzrzPsynYYMv/n0TWc7FvnNuzvJYAZ+jiJF+O2sc9RgU5lLrODkU8vHe6CPT6zMm9kDFXyPgRBJwDvQzjuSvEPpH0OdG4FWw5b5ySGqVIRPKZTJRcv25fBj7RykTIGymwN/B1o6vD518e/dEFwvsg7AaRmP9wj8sLep3HsWQY23AGs/4N3eMCDpzQDPvzwXW7l+EzpG9zaTew9X4Vt9egU6xgJrAezvEgMDXkkATzacM2wfFi7i1rqoxASCw8zWjlK0/n9gewagbOGwuscJsygPPNFyqP+jRiI43cMLkscQsC7+2RuDr8R+Hija/qzHZ/inBLzkRCiy+NOq+zj0zOnlVM30zI14ngRaXFk+j3Pkhk8yWf16Fjo4tSFxZIBJwNlAkY7CBj0U8JwjgrrJFgX4DDQXDhbxy1pnDOyWLRzassZRpP7LsHs0YE3mOvmbCxsOBZ4BivjFkxFHFiTZGfC44G6Y3dzAkh9CCY87U/afSwHP5GSg8xUowOPjYqDI8dVZhzcAizvGvJmDX7wBkARggEnAyUBnJ+j1+58ouwvAeiGFF43DgMeBXr6E2H5lyKAy6ObQ1t2RY34I9ph0zAqElCLrBH4Jh3Txz98q26CK9fg4Kb/ZvjXOcPCpFRMXnkreZ4BTNi1urJ+8HnjKqVBm9WkLT4eka2IGeNHZA3gM6NZQzNy50nI9ILaMgkHOKZ8JeAwld4uvfdu7sLM4UJZwcWS7P6G+c4SFJ/gNgNgXWNobtE7gfpT5BCApxgCnsqyjaJze8/ynWotC32uAV5/eF7okk022H0jw4pRtPuRIKqejrG3OkclpHX2Sqh4MTIXtmwDfBjgU/Cvgs8D8QArC6QZ2dj5l4NXhu+k5vMRgjw8c2zXQ/zmAB2YKsgic2Af4NfAb4GBgXSB2UgKTtZNzEFG3/p1nG9vGU3huyWO/X1nemOzg6VwFdX0KPpOHfjzl2fdNZw48khOuR5KIgYkY4AKz7wC3AHk6eJaynHbgyENs4d3WK0AWH7OW4YjGDcC3AM7DSprDwI4INWs/6VWOIzGe8+28k7vPwa+WvxwV3AxoonBY3HNU9C7om8aRSN5QPgi02qrop0YCHRuljqqGENSeAKcp+PhK0Y7WXo8HV2zZAwbbfSj6/W3ouQpg9r0AIGkmA9Mh7BeAov2oVc/7LntjB59avvGT/f0zQJNkZwTrda5rccnRX0+hjy3dRT+5+t8zKfGMT7oSZIDTBEcCRTtcq97ZJcR2tYPfHGKdpQTfZTJNBjit0urTRT9vChDamQ5+tcfDka6vBPAzRZUHwinG2x6/9fspzoFODn3/dvCRT4RJxEAuBvg8rPU5embXc+WyaivM4XnrQfwSdHClvUQMtBhYBV+s/Yr1N2gpdPqcA3p6LTq2+Mvkf2onH1NTwzthj4Suk9+HoHc252A3hb5OO0V+c6pXIgZyM+CxACrmHcURiLDIAdJehws3JWKgk4FbsaG9nxT5fnGnUoff60AHh++L+NOvDte8LOzgX0oqFoUzHInpF3eRfbzRWT1AoJc5+HpzAL+ksiEMbOnQAe+IxBUXyzzp4O9HI/krM9Vi4P8c+hYvLt6jAGTxW06+dV78XoTeT9BADWQHxMDRvc4YPX4fEICfjzn5+rkAvkllQxgYhTi5mt96kKwWga+PO/h5WwQ/ZaKaDHBaiIuprMfC7dDB48pT+LjnRYDVt171uTB4CKiizAenTwB6xWbdfj50c67eU/jECM9FVt+eg44ZPB2TruYx8EOEbO2Ix0SgjScpq5/7R/BTJqrLwA8c+hj7KN8L4i1zQuGDgPUY6FX/Feg+EOBIWxWEaxi+AYwHesVk3X4fdHvP+0PlZHs5+XwYlZUh3hlRGTHI5v8YWAIfdwKWNn0Z9bmQinNlIWRWKL0WsNxZ0bf5gWcAiRjoxgDvJh8ArAvkOFW1OMDjwlOWhLIrgdk9lXbo4kXvcOBEINTx3GEy10+2za4AX8sdcg3DU9C/BsB3PHgK/1nPvQATOou8jspDAP2UiAETA1ehtjVbTr3+n0wMqXJTGPAaTv5eIMKYaDOxCH28PQQb+wDTAinIdHCC6zQeBkLHzrUEKwIhhMmVh/8xRl1DxC+dCTKwm1On9OjYoXRw0Y1EDAxiYCkUeBuw9kMOTc8xyFjB/RujHu/OrT5mqf887PwW4N2wZZQQ1XML7a0F/A7weFlTlnh5Z70+EELmgtLXgCx+9CvzFnRwhEkiBlwYmBFa/gP063RV3vcoYuPCG4kYyMKA1yjAoVmMFSyzE+p5JCp5jmtOD3BkYz0g1MgA7/R5AeZ6DE7H5PHPWpZ8bg+Eku9CsdVH1j8ulIPS21wGjkHoHp0zRR2hhmOb21vqHfkiCM/jDpvP2oeUT0A571jLOOZ4J/t34CBgG4AjJ3nXTrD80sC2wMHApYDHHXIRPmh3ayCk/BPKi/jWXof/12AopJNZdMceCsrik8rYGFgd1f9hU5FkbR48HC7j3YtEDGRlgC+M2jNr4R7leHHm6No7PfZ7bF4XSvhCLy4uK1t4B/0g8DjApwoIvmuAPHDEYBaAfBDzAUNACiNz9JHvRLkSCCVcwMxpISY9FjkKlbk2QyIG3Bm4Axrbs806fL/MnSUpbAID8yNIzrVajgFe+KeIQNYKsPGk0VdLnFWu+xh4WzZCGzEBsPLEUal5I/g60ESMTj3QCRVwZ+B4d43lK9R8WfltUEUPFoDTPGlbhKvJ37UoyFiXQ8trAPdkLK9i/2Pgdnxw5PPWCIRwdMT6WOhU0MHEVCIGgjAwF7Qyy7RmqqnU5wmYb3iTiIG8DJyBCtZ+HPu/Zc4En//o4Lc17irU50LPGYCYci6MWbk5JabDstU8BnjSsnbSVOr/tnnNp4gdGBiCDuvwP4+BMUAZwrULZS2mS+XY7+UH5+HHlNEosLk70MuvrNvZLxcsyX+ZbQADWyDGrJ0x9XIrN6C9FKI/Az91OAaehg4+0laWcFX+bUDqx2hM/+4EHzHm+3u1OfvDMw5tckQvA9ouBqwMcN6TC2NiHpghbN1iJUL1G8kAV9Nz6sjaJw9LgD2utv8J4DGaYeWjzPqc1uQb+FKYDvwu/LBywacWON0jEQNBGDgAWq2dtOz6OwdhRkrrzsCXHPo+H3ubOyGieNfLR9zKPibLsM93C3woobaYB77wWX4rF/slFJNcqRkD0yAe3kFbO2lZ9Ufgu55UqVmnjBDOlLAxDrD22+Mj+JrXBN/dMgbg1IQ1virUfwJx7gSk+M6asQ5tcD90sL9KxEAQBkZD64NAFQ72dh+ZuMwOSMRAXga2Q4X2vlTkOx/7Wy6v4YjlZ4WtQ4HngSLxpV6Hc+zfAjiVk6osD8c8eOQbGCViIBgDc0DzmYBHZw2tgy9dOQ7Q3BhIkBRi4GrUsvbTSwpZjl+Jx8mBwFOANeYU6vOO/8sA1z1UQf4OJ628XVVWoCkOq5TFRRPsfhhB7gjwX5HyXQHW11lChYtwrpVvQOOJ+yTgbkAiBoowsCoqXVOkYkedzfD7go5tKf/kwrg9gP8DFk3Z0R6+3YPtvwKOAXg+qIqwn5zn4OxHoeN6Bz1SIQbEgBhoLAOnI3LrHdld0FHltScrwf9fAKmvE3gBPp4AbABU9WaUfnu8ev0U6JGIATEgBsRAQQZGo57Ho3J8AU8dZBoEsS1wFsB/6GNNjDzqvww//gRsDaQyAglXTPJ51LZyw36rFwOZmkGVxYAYaDIDP0Tw1hMxF5/xRS91EyYDvNM+AuAUSaxXhfNRuX8AbJv1gLpc9BHKe8Lpl2cBa9/7wXsa9UUMiAExIAZyMfAQSltPwt/PZbG6hZnkrAnsDfwWuAJ4FODTD0U45OLdR4DLAerbC1gDqGMyhbAmEb6gqAhv7XUemERr4A1VnXcJTIvUiwExUDEG5oa/Tzj4PA461gWYTDRROFLA/1THJ4dmAz4ItC7iM+M7365IeQ3gI4jPAVxrwLeO8m6/iTKEoEcAflplTijgKJREDIgBMSAGMjKwDMq1301ZvvNObHRGuyrWbAaGEP44wNLf2usu2Ww6Fb0YEANiID8DQ6jSfiK1fucIwEL53VCNBjHARXt8k5+1r7XXn7dB/ClUMSAGxIALA3ydKh8raz+ZWr9rJMClaWqpZAhRjQOsfay9PhcSVvnxU7gvEQNiQAyUw8CJMNt+QvX4riSgnLZM2eoQnBsHePSvdh3HxQ568tgGZU8MiAExEIiB5aD3ZsD7n6vwZL8uwGkBq4yGAq5XaD069i9858iFxJeBWaCObz7lYsbxwG3Aw4BVhqBgBOCnp7wNZfT3dk+l0iUGxIAYaBID30Gw7XdVXt8tIwEzwKd9gH928Y2Pz/FFPXwVrMTOAHkkn+S1s+2ZHPKxR7ZHERlCpXFAp16P3wcXcUh1xIAYEANi4H0GOKo5FvA4KXfqGAe9o4GsMh8K8uUuzwOdujp/v4sypwMLA5L8DJA38kceO7nt/M1HF9kueRbcDaH8g0CnLo/fx0Iv+61EDIgBMSAGjAxwIdVYwOPk3KmD0wCDLtIcyj0a4LPynfUH/eYb+vgefw5hSwYzMCOKHAoU5ZpJw6pAP1kQOx8ABrVdkf3HQS/7q0QMiAExIAacGAiZBIyDj6M7/KS9rYDLgCIXgs46fBkMpw3q+OpchGUW8rIvQJ46uSvyewR6tgQ6L8ZD2PYgUETnoDq88++0h00SMSAGxIAYsDIQMglojQRMCyd3ATz+I1y3C8YT0H0ooBEBkADhHf9+wMNAN76s2+6boJ/rBHTnDxIkYkAMiIGqMhAyCeDrb7PM71svSqzPJwX4fwr4yuMmCuNm/OTBg89BOrhOgO07qFyR/brzB7ESMSAGxEAMBkImAUUuAJY6nOv+PbBaDOISsME4fwcUmeO38Byqri7+CXQquSAGxECzGKhTEtC6OHEagv+FbpGaNSX/GdGBwN1AK9Y6fGrBX806qsIRA2KgOgzUMQnghfFd4DJgT2ABoIrCi/5ngRHgHaAOF/z2GHTnj0aViAExIAbKZIDPW/8WaD851+37/YiPjyFuAXCRYooyCk6tCXAE40aASUzd2qEVj+780bgSMSAGxEAKDNR1JKB1wWn/5GtwzwG2AaYumXza/zhwFvAK0O5nXb/rzh8NLREDYkAMpMRAE0YCOi+qfB/+iiU1wrKwezPQ6VOdf+vOv6TOJrNiQAyIgUEMNDEJeBWkcOg9pvBNexyJqPPFvjM2Xfxj9jDZEgNiQAwUYIDTAccDnSfwOv/mM+553oNfgNb3qnBxX6x3JaTSZhr2f6/59UUMiAExkDYDTRwJ4CLBGHIMjKRyYY7hh+78Y/Qq2RADYkAMODLQtJEA/tOheRz566aKowxvATEuvCnY0J1/t16gbWJADIiBCjAQKwm4Alw8DJR90eLLdkLK16G87BjJ85UR/NDFP2RPkm4xIAbEQAQGQk0H8I67/V/P8pE4vrjncaCsi+TdsM14Q8mdUFxWbPwvgUxwppsQ3Ar4PAFgO3j7pGH/CSTrQwyIATFQdQY8k4CXQMYvgAV6kML/Osf/bvcU4H1hyqIv1BMBa5cUDxc4Hgp8AOgm/KdChwLPAln4GVRGF38QKREDYkAM1ImBKRDM8cCgC0Cv/feg7j4AL/BZhBes/YEHgV46Q2w/HvZCyFgoDeFvL53jYO9LwExAFuG/Fd4XuBfopXPQdg37Z2FaZcSAGBADFWSAScDvgEEXgvb9Iyi/JcC6RYSvyN0BuB5o1xvqO9/Il/WiiaKZhMlMrDf9XQdb2wPkrYiwnbYCLgPycMzXSRdtY1SViAExIAbEQBUY4J08h/J7XSA4r3wi4P2WvdWhk3eZLwO9bHts3wP6PYVrGzz86qXjP9BPXsiPp6wEZScBbM9etl/Evs8DEjEgBsSAGGgIA7MgTg4Z/xngK3VvAc4DvgLMC4QUDlePAa4A3gV6XZyKbr8GOj3lWigr6kuveoyb8Y8ByEdIYXseAJwP3DoB/H8KTARnBiRiQAyIATEgBqIzsDAsMun4B/AO0OuCmXf7UtDlIUtDSV7bvcozPsbJeBm3RAyIATEgBsSAGAADfJHPXsC/gF4X0azbfwwdHvITKMlqs1e5f0IH4wr9oiKPeKVDDIgBMSAGxEBpDHwUlntdTLNu52OIUxkjmBr1n3bwhXPxkggMFF05GcE1mRADYkAMiIEMDHAl/G3AMhnK9ioyJ3Z8E7i9V4EM22l/jgzl+hXh2oqb+hXQPjEgBsSAGBADYuB9BvbH16x3+ymX+8L7IembGBADYkAMiAExMIiB2VDgdSDli/sg396A/7MPClT7/RiYwk+VNIkBMSAGxEBJDDwHu+f9//buHiWCGAoAMKKNnsFC8SCWgr14EAvvYOEhFLyEgl7F1VLQSgstfOmmcBmc/DhxvsCD2Z+8vHxThJndzf7R2KWGTT+1eymVTB4CBAgQILAUgeOY6NhV9pxfP1rKiTJPAgQIECBQUiDd0V1FzHmRX1fbU9S9WRJDrnEBHwGMG3kHAQIEehBIu+Vd9VDoDzWmf9VLG/9oBAgQIECAwASB/ehTY7vgdVfuJZ5P9R5MmKsuBAgQIECAwEDgPo5LLMytctwNanfYUMBHAA2xDUWAAIEGAul2ek+tt3p7slUrAQIECCxIYDvm+hrR6go+Z5y3qHNnQedmVlN1B2BWp0MxBAgQyBb4iAw32VnaJLiOYd7bDGUUAgQIECDw/wXSl+rSzno5V+e1+6adC/ciNAIECBAgQKCgwHnkqr2I5+Q/KzhXqQgQIECAAIGBwGUc5yzStfpeDGp0SIAAAQIECFQQOI2cq4hai/lv8j5GHScV5ijlBIGNCX10IUCAAIG+BLai3LTX/mHEbkR63Kp9xkDPEQ8RtxFfERoBAgQIECBAgAABAgQIECBAgAABAgQIECBAgAABAgQIECBAgAABAgQIECBAgAABAgQIECBAgAABAgQIECBAgAABAgQIECBAgAABAgQIECBAgAABAgQIECBAgAABAgQIECBAgAABAgQIECBAgAABAgQIECBAgAABAgQIECBAgAABAgQIECBAgAABAgQIECBAgAABAgQIECBAgAABAgQIECBAgAABAgQIECBAgAABAgQIECBAgAABAgQIECBAgAABAgQIECBAIEPgG1E3hEHKaaTQAAAAAElFTkSuQmCC;" vertex="1" parent="1">
          <mxGeometry x="591" y="-872" width="52" height="52" as="geometry" />
        </mxCell>
        <mxCell id="izE_Z0ZMzIlTIWPwhQTC-5" value="&lt;b style=&quot;forced-color-adjust: none; font-family: Helvetica; font-style: normal; font-variant-ligatures: normal; font-variant-caps: normal; letter-spacing: normal; orphans: 2; text-indent: 0px; text-transform: none; widows: 2; word-spacing: 0px; -webkit-text-stroke-width: 0px; white-space: normal; background-color: transparent; text-decoration-thickness: initial; text-decoration-style: initial; text-decoration-color: initial;&quot;&gt;&lt;font style=&quot;color: rgb(0, 0, 0); font-size: 13px;&quot;&gt;Observation&lt;/font&gt;&lt;/b&gt;&lt;div&gt;&lt;font style=&quot;color: rgb(0, 0, 0);&quot;&gt;Detect accessibility violations by auditing tools&lt;/font&gt;&lt;/div&gt;" style="text;whiteSpace=wrap;html=1;align=center;" vertex="1" parent="1">
          <mxGeometry x="643" y="-1026.6399999999999" width="150" height="61.28" as="geometry" />
        </mxCell>
        <mxCell id="izE_Z0ZMzIlTIWPwhQTC-6" value="&lt;b style=&quot;forced-color-adjust: none; font-family: Helvetica; font-style: normal; font-variant-ligatures: normal; font-variant-caps: normal; letter-spacing: normal; orphans: 2; text-indent: 0px; text-transform: none; widows: 2; word-spacing: 0px; -webkit-text-stroke-width: 0px; white-space: normal; background-color: transparent; text-decoration-thickness: initial; text-decoration-style: initial; text-decoration-color: initial;&quot;&gt;&lt;font style=&quot;color: rgb(0, 0, 0); font-size: 13px;&quot;&gt;Think&lt;/font&gt;&lt;/b&gt;&lt;div&gt;&lt;font style=&quot;color: rgb(0, 0, 0);&quot;&gt;Detect accessibility violations by auditing tools&lt;/font&gt;&lt;/div&gt;" style="text;whiteSpace=wrap;html=1;align=center;" vertex="1" parent="1">
          <mxGeometry x="640" y="-948.64" width="150" height="61.28" as="geometry" />
        </mxCell>
        <mxCell id="izE_Z0ZMzIlTIWPwhQTC-7" value="&lt;b style=&quot;forced-color-adjust: none; font-family: Helvetica; font-style: normal; font-variant-ligatures: normal; font-variant-caps: normal; letter-spacing: normal; orphans: 2; text-indent: 0px; text-transform: none; widows: 2; word-spacing: 0px; -webkit-text-stroke-width: 0px; white-space: normal; background-color: transparent; text-decoration-thickness: initial; text-decoration-style: initial; text-decoration-color: initial;&quot;&gt;&lt;font style=&quot;color: rgb(0, 0, 0); font-size: 13px;&quot;&gt;Action&lt;/font&gt;&lt;/b&gt;&lt;div&gt;Resolve the detected violations&lt;/div&gt;" style="text;whiteSpace=wrap;html=1;align=center;" vertex="1" parent="1">
          <mxGeometry x="644" y="-876" width="150" height="61.28" as="geometry" />
        </mxCell>
        <mxCell id="izE_Z0ZMzIlTIWPwhQTC-9" style="edgeStyle=orthogonalEdgeStyle;rounded=0;orthogonalLoop=1;jettySize=auto;html=1;entryX=-0.005;entryY=0.054;entryDx=0;entryDy=0;entryPerimeter=0;strokeWidth=2;" edge="1" parent="1" source="oHhjSkNuNbOycix-90GL-6" target="oHhjSkNuNbOycix-90GL-14">
          <mxGeometry relative="1" as="geometry" />
        </mxCell>
        <mxCell id="izE_Z0ZMzIlTIWPwhQTC-10" value="&lt;div&gt;&lt;div&gt;&lt;div style=&quot;background-color: rgb(255, 255, 255); line-height: 18px; white-space: pre;&quot;&gt;...&lt;/div&gt;&lt;/div&gt;&lt;/div&gt;" style="rounded=0;whiteSpace=wrap;html=1;align=center;strokeColor=#000000;strokeWidth=1;" vertex="1" parent="1">
          <mxGeometry x="872" y="-820" width="309" height="34.57" as="geometry" />
        </mxCell>
      </root>
    </mxGraphModel>
  </diagram>
</mxfile>
